<?xml version="1.0" encoding="utf-8"?>
<!-- Generator: Adobe Illustrator 18.0.0, SVG Export Plug-In . SVG Version: 6.00 Build 0)  -->
<!DOCTYPE svg PUBLIC "-//W3C//DTD SVG 1.1//EN" "http://www.w3.org/Graphics/SVG/1.1/DTD/svg11.dtd">
<svg version="1.1" id="Isolation_Mode" xmlns="http://www.w3.org/2000/svg" xmlns:xlink="http://www.w3.org/1999/xlink" x="0px"
	 y="0px" viewBox="0 0 1275.5 607.4" enable-background="new 0 0 1275.5 607.4" xml:space="preserve">
<line fill="none" stroke="#70CCDB" stroke-width="2" stroke-miterlimit="10" x1="56" y1="0" x2="56" y2="572"/>
<line fill="none" stroke="#70CCDB" stroke-width="2" stroke-miterlimit="10" x1="56" y1="572" x2="1260.1" y2="572"/>
<line opacity="0.2" fill="none" stroke="#70CCDB" stroke-width="4" stroke-linecap="round" stroke-miterlimit="10" stroke-dasharray="2,10" x1="56" y1="92" x2="1274.5" y2="92"/>
<line opacity="0.2" fill="none" stroke="#70CCDB" stroke-width="4" stroke-linecap="round" stroke-miterlimit="10" stroke-dasharray="2,10" x1="56" y1="455" x2="1274.5" y2="455"/>
<line opacity="0.2" fill="none" stroke="#70CCDB" stroke-width="4" stroke-linecap="round" stroke-miterlimit="10" stroke-dasharray="2,10" x1="56" y1="330" x2="1274.5" y2="330"/>
<line opacity="0.2" fill="none" stroke="#70CCDB" stroke-width="4" stroke-linecap="round" stroke-miterlimit="10" stroke-dasharray="2,10" x1="1274.5" y1="216" x2="56" y2="216"/>
<g>
	<path fill="#70CCDB" d="M9.7,81.5V98H7.8V83.6l-4.2,2.8L2.7,85l5.2-3.5H9.7z"/>
	<path fill="#70CCDB" d="M26,83.2c-1.5-0.2-3-0.3-4.4-0.3s-2.5,0.5-3.3,1.5c-0.8,1-1.2,2.4-1.2,4.2l0.6-0.2c0.4-0.1,1-0.3,1.7-0.5
		c0.7-0.2,1.3-0.2,1.8-0.2c3.7,0,5.5,1.7,5.5,5.1c0,1.8-0.5,3.1-1.5,4c-1,0.9-2.4,1.4-4.3,1.4c-3.9,0-5.9-2.9-5.9-8.6
		c0-2.9,0.6-5,1.7-6.4c1.1-1.4,2.7-2,4.8-2c1.3,0,2.6,0.1,3.8,0.3l0.7,0.1L26,83.2z M21.2,89.4c-0.6,0-1.2,0.1-1.9,0.2
		s-1.2,0.3-1.6,0.5l-0.6,0.2c0,1.9,0.3,3.4,1,4.5c0.6,1.1,1.6,1.7,2.9,1.7s2.2-0.3,2.9-1c0.6-0.6,1-1.5,1-2.7c0-1.2-0.3-2-1-2.6
		C23.3,89.7,22.4,89.4,21.2,89.4z"/>
	<path fill="#70CCDB" d="M32,98h-1.9V80.7H32v8l2.9-0.1l4.4-7.9h2.2l-5,8.7l5.2,8.6h-2.3l-4.6-7.6L32,90.5V98z"/>
</g>
<g>
	<path fill="#70CCDB" d="M12.5,203v16.5h-1.9v-14.4L6.3,208l-0.9-1.5l5.2-3.5H12.5z"/>
	<path fill="#70CCDB" d="M29,219.5H18.5v-1.6l4.8-5.1c0.8-0.9,1.4-1.5,1.8-2c0.4-0.5,0.7-1,1-1.6s0.5-1.2,0.5-1.9
		c0-1.1-0.3-1.8-0.9-2.2c-0.6-0.4-1.5-0.6-2.7-0.6c-1.1,0-2.3,0.1-3.6,0.4l-0.7,0.1l-0.2-1.6c1.6-0.4,3.2-0.7,4.9-0.7s3,0.4,3.8,1.1
		c0.9,0.7,1.3,1.8,1.3,3.4c0,1.2-0.3,2.2-0.8,3.1s-1.4,1.9-2.7,3.1l-4.4,4.5H29V219.5z"/>
	<path fill="#70CCDB" d="M34.8,219.5h-1.9v-17.3h1.9v8l2.9-0.1l4.4-7.9h2.2l-5,8.7l5.2,8.6h-2.3l-4.6-7.6l-2.9,0.1V219.5z"/>
</g>
<g>
	<path fill="#70CCDB" d="M19.4,318.8c1-0.7,2.5-1.1,4.3-1.1c1.8,0,3.3,0.4,4.4,1.1s1.6,1.8,1.6,3.2c0,1-0.2,1.8-0.6,2.4
		s-1.1,1-2.1,1.5c1,0.5,1.8,1,2.2,1.6c0.5,0.6,0.8,1.5,0.8,2.6c0,3.1-2.1,4.7-6.2,4.7s-6.2-1.5-6.2-4.5c0-1.2,0.2-2.1,0.7-2.7
		s1.2-1.2,2.2-1.7c-0.9-0.5-1.6-1-2-1.5c-0.4-0.6-0.6-1.4-0.6-2.3C17.8,320.6,18.4,319.5,19.4,318.8z M19.6,330c0,2,1.4,3,4.1,3
		s4.1-1.1,4.1-3.2c0-0.9-0.2-1.5-0.7-2c-0.5-0.4-1.2-0.8-2.2-1.1h-2.6c-0.9,0.2-1.6,0.6-2,1.1C19.8,328.4,19.6,329.1,19.6,330z
		 M27.6,322.2c0-1.9-1.3-2.8-3.9-2.8c-2.6,0-3.9,0.9-3.9,2.8c0,0.7,0.2,1.3,0.6,1.8c0.4,0.5,1,0.8,1.9,1.1H25c0.9-0.3,1.6-0.6,2-1.1
		C27.4,323.6,27.6,323,27.6,322.2z"/>
	<path fill="#70CCDB" d="M34.8,334.5h-1.9v-17.3h1.9v8l2.9-0.1l4.4-7.9h2.2l-5,8.7l5.2,8.6h-2.3l-4.6-7.6l-2.9,0.1V334.5z"/>
</g>
<g>
	<path fill="#70CCDB" d="M25.8,458.5v-3.2h-8v-1.5l4.7-11.8h2.1l-4.8,11.6h6v-5.2h1.9v5.2h2.1v1.7h-2.1v3.2H25.8z"/>
	<path fill="#70CCDB" d="M34.8,458.5h-1.9v-17.3h1.9v8l2.9-0.1l4.4-7.9h2.2l-5,8.7l5.2,8.6h-2.3l-4.6-7.6l-2.9,0.1V458.5z"/>
</g>
<g>
	<path fill="#70CCDB" d="M6.5,591.4c0.8-1,1.9-1.4,3.4-1.4s2.6,0.5,3.4,1.4c0.7,1,1.1,2.5,1.1,4.8s-0.4,3.8-1.1,4.7
		c-0.8,0.9-1.9,1.4-3.4,1.4s-2.6-0.5-3.4-1.4s-1.1-2.5-1.1-4.7C5.4,593.9,5.8,592.3,6.5,591.4z M11.8,592.6c-0.4-0.7-1-1-1.9-1
		s-1.5,0.3-1.9,1c-0.4,0.7-0.6,1.8-0.6,3.4s0.2,2.8,0.6,3.4c0.4,0.6,1,0.9,1.9,0.9s1.5-0.3,1.8-0.9c0.4-0.6,0.6-1.8,0.6-3.4
		S12.1,593.3,11.8,592.6z"/>
	<path fill="#70CCDB" d="M16.3,591.9v-1.8h7.5v2.4l-4.4,9.7l-1.9-0.5l4.2-9.2v-0.5H16.3z"/>
	<path fill="#70CCDB" d="M26.1,598v-1.8h5.4v1.8H26.1z"/>
	<path fill="#70CCDB" d="M41.5,602h-7.7v-1.7l2.9-3c0.9-0.9,1.5-1.6,1.9-2.1c0.4-0.5,0.5-1.1,0.5-1.7c0-0.6-0.2-1.1-0.5-1.3
		c-0.3-0.3-0.9-0.4-1.7-0.4c-0.7,0-1.6,0.1-2.5,0.3L34,592l-0.1-1.6c1.2-0.3,2.4-0.5,3.6-0.5c2.5,0,3.7,1.1,3.7,3.3
		c0,0.9-0.2,1.6-0.6,2.2c-0.4,0.6-1.1,1.4-2,2.3l-2.5,2.5h5.4V602z"/>
	<path fill="#70CCDB" d="M47.2,600.5c1.8,0,2.7-1.2,2.8-3.5l-0.4,0.1c-0.9,0.3-1.6,0.5-2.2,0.5c-1.3,0-2.3-0.3-3-0.9
		c-0.7-0.6-1-1.5-1-2.8c0-1.2,0.4-2.2,1.1-2.9c0.8-0.7,1.8-1.1,3.1-1.1c1.5,0,2.6,0.5,3.3,1.6c0.7,1.1,1.1,2.6,1.1,4.7
		c0,2.1-0.4,3.6-1.2,4.5c-0.8,0.9-2,1.4-3.6,1.4c-0.9,0-1.9-0.1-2.9-0.3l-0.5-0.1l0.2-1.6C45.1,600.4,46.1,600.5,47.2,600.5z
		 M47.5,595.8c0.7,0,1.4-0.1,2.1-0.4l0.4-0.1c0-2.4-0.8-3.7-2.4-3.7c-0.7,0-1.2,0.2-1.6,0.6s-0.6,0.9-0.6,1.6
		C45.4,595.2,46.1,595.8,47.5,595.8z"/>
	<path fill="#70CCDB" d="M53.9,598v-1.8h5.4v1.8H53.9z"/>
	<path fill="#70CCDB" d="M69.2,602h-7.7v-1.7l2.9-3c0.9-0.9,1.5-1.6,1.9-2.1c0.4-0.5,0.5-1.1,0.5-1.7c0-0.6-0.2-1.1-0.5-1.3
		c-0.3-0.3-0.9-0.4-1.7-0.4c-0.7,0-1.6,0.1-2.5,0.3l-0.4,0.1l-0.1-1.6c1.2-0.3,2.4-0.5,3.6-0.5c2.5,0,3.7,1.1,3.7,3.3
		c0,0.9-0.2,1.6-0.6,2.2c-0.4,0.6-1.1,1.4-2,2.3l-2.5,2.5h5.4V602z"/>
	<path fill="#70CCDB" d="M72.1,591.4c0.8-1,1.9-1.4,3.4-1.4s2.6,0.5,3.4,1.4c0.7,1,1.1,2.5,1.1,4.8s-0.4,3.8-1.1,4.7
		c-0.8,0.9-1.9,1.4-3.4,1.4s-2.6-0.5-3.4-1.4s-1.1-2.5-1.1-4.7C71,593.9,71.3,592.3,72.1,591.4z M77.3,592.6c-0.4-0.7-1-1-1.9-1
		s-1.5,0.3-1.9,1c-0.4,0.7-0.6,1.8-0.6,3.4s0.2,2.8,0.6,3.4c0.4,0.6,1,0.9,1.9,0.9s1.5-0.3,1.8-0.9c0.4-0.6,0.6-1.8,0.6-3.4
		S77.7,593.3,77.3,592.6z"/>
	<path fill="#70CCDB" d="M87.8,590.1V602h-2v-9.6l-2.8,1.8l-0.9-1.5l3.9-2.6H87.8z"/>
	<path fill="#70CCDB" d="M96.7,602v-2.1h-5.3v-1.5l3.1-8.2h2.2l-3.3,8h3.3v-3.5h2v3.5h1.3v1.7h-1.3v2.1H96.7z"/>
</g>
<g>
	<path fill="#70CCDB" d="M199.3,591.4c0.8-1,1.9-1.4,3.4-1.4s2.6,0.5,3.4,1.4c0.7,1,1.1,2.5,1.1,4.8s-0.4,3.8-1.1,4.7
		c-0.8,0.9-1.9,1.4-3.4,1.4s-2.6-0.5-3.4-1.4s-1.1-2.5-1.1-4.7C198.2,593.9,198.6,592.3,199.3,591.4z M204.5,592.6
		c-0.4-0.7-1-1-1.9-1s-1.5,0.3-1.9,1c-0.4,0.7-0.6,1.8-0.6,3.4s0.2,2.8,0.6,3.4c0.4,0.6,1,0.9,1.9,0.9s1.5-0.3,1.8-0.9
		c0.4-0.6,0.6-1.8,0.6-3.4S204.9,593.3,204.5,592.6z"/>
	<path fill="#70CCDB" d="M209,591.9v-1.8h7.5v2.4l-4.4,9.7l-1.9-0.5l4.2-9.2v-0.5H209z"/>
	<path fill="#70CCDB" d="M218.9,598v-1.8h5.4v1.8H218.9z"/>
	<path fill="#70CCDB" d="M226.6,590.5c1.1-0.4,2.3-0.6,3.7-0.6s2.3,0.3,2.9,0.8c0.6,0.5,0.9,1.3,0.9,2.4c0,0.5-0.1,0.9-0.3,1.3
		c-0.2,0.4-0.4,0.7-0.6,0.8c-0.2,0.2-0.4,0.4-0.7,0.5c0.6,0.3,1.1,0.6,1.4,1c0.3,0.4,0.4,0.9,0.4,1.7c0,1.3-0.3,2.2-0.9,2.8
		s-1.6,0.9-3,0.9c-0.5,0-1.1,0-1.8-0.1s-1.2-0.2-1.5-0.3l-0.6-0.1l0.1-1.5c1.3,0.2,2.5,0.4,3.5,0.4c1.4,0,2.2-0.6,2.2-1.9
		c0-0.6-0.2-1-0.6-1.3c-0.4-0.3-0.9-0.5-1.5-0.5h-2.4v-1.7h2.4c0.4,0,0.9-0.2,1.2-0.5s0.6-0.8,0.6-1.3s-0.2-0.9-0.5-1.2
		c-0.3-0.3-0.8-0.4-1.4-0.4c-0.9,0-1.9,0.1-2.9,0.3l-0.5,0.1L226.6,590.5z"/>
	<path fill="#70CCDB" d="M239.9,600.5c1.8,0,2.7-1.2,2.8-3.5l-0.4,0.1c-0.9,0.3-1.6,0.5-2.2,0.5c-1.3,0-2.3-0.3-3-0.9
		c-0.7-0.6-1-1.5-1-2.8c0-1.2,0.4-2.2,1.1-2.9c0.8-0.7,1.8-1.1,3.1-1.1c1.5,0,2.6,0.5,3.3,1.6c0.7,1.1,1.1,2.6,1.1,4.7
		c0,2.1-0.4,3.6-1.2,4.5c-0.8,0.9-2,1.4-3.6,1.4c-0.9,0-1.9-0.1-2.9-0.3l-0.5-0.1l0.2-1.6C237.8,600.4,238.9,600.5,239.9,600.5z
		 M240.2,595.8c0.7,0,1.4-0.1,2.1-0.4l0.4-0.1c0-2.4-0.8-3.7-2.4-3.7c-0.7,0-1.2,0.2-1.6,0.6s-0.6,0.9-0.6,1.6
		C238.1,595.2,238.8,595.8,240.2,595.8z"/>
	<path fill="#70CCDB" d="M246.6,598v-1.8h5.4v1.8H246.6z"/>
	<path fill="#70CCDB" d="M262,602h-7.7v-1.7l2.9-3c0.9-0.9,1.5-1.6,1.9-2.1c0.4-0.5,0.5-1.1,0.5-1.7c0-0.6-0.2-1.1-0.5-1.3
		c-0.3-0.3-0.9-0.4-1.7-0.4c-0.7,0-1.6,0.1-2.5,0.3l-0.4,0.1l-0.1-1.6c1.2-0.3,2.4-0.5,3.6-0.5c2.5,0,3.7,1.1,3.7,3.3
		c0,0.9-0.2,1.6-0.6,2.2c-0.4,0.6-1.1,1.4-2,2.3l-2.5,2.5h5.4V602z"/>
	<path fill="#70CCDB" d="M264.9,591.4c0.8-1,1.9-1.4,3.4-1.4s2.6,0.5,3.4,1.4c0.7,1,1.1,2.5,1.1,4.8s-0.4,3.8-1.1,4.7
		c-0.8,0.9-1.9,1.4-3.4,1.4s-2.6-0.5-3.4-1.4s-1.1-2.5-1.1-4.7C263.7,593.9,264.1,592.3,264.9,591.4z M270.1,592.6
		c-0.4-0.7-1-1-1.9-1s-1.5,0.3-1.9,1c-0.4,0.7-0.6,1.8-0.6,3.4s0.2,2.8,0.6,3.4c0.4,0.6,1,0.9,1.9,0.9s1.5-0.3,1.8-0.9
		c0.4-0.6,0.6-1.8,0.6-3.4S270.5,593.3,270.1,592.6z"/>
	<path fill="#70CCDB" d="M280.6,590.1V602h-2v-9.6l-2.8,1.8l-0.9-1.5l3.9-2.6H280.6z"/>
	<path fill="#70CCDB" d="M289.4,602v-2.1h-5.3v-1.5l3.1-8.2h2.2l-3.3,8h3.3v-3.5h2v3.5h1.3v1.7h-1.3v2.1H289.4z"/>
</g>
<g>
	<path fill="#70CCDB" d="M392.1,591.4c0.8-1,1.9-1.4,3.4-1.4s2.6,0.5,3.4,1.4c0.7,1,1.1,2.5,1.1,4.8s-0.4,3.8-1.1,4.7
		c-0.8,0.9-1.9,1.4-3.4,1.4s-2.6-0.5-3.4-1.4s-1.1-2.5-1.1-4.7C391,593.9,391.3,592.3,392.1,591.4z M397.3,592.6c-0.4-0.7-1-1-1.9-1
		s-1.5,0.3-1.9,1c-0.4,0.7-0.6,1.8-0.6,3.4s0.2,2.8,0.6,3.4c0.4,0.6,1,0.9,1.9,0.9s1.5-0.3,1.8-0.9c0.4-0.6,0.6-1.8,0.6-3.4
		S397.7,593.3,397.3,592.6z"/>
	<path fill="#70CCDB" d="M401.8,591.9v-1.8h7.5v2.4l-4.4,9.7l-1.9-0.5l4.2-9.2v-0.5H401.8z"/>
	<path fill="#70CCDB" d="M411.7,598v-1.8h5.4v1.8H411.7z"/>
	<path fill="#70CCDB" d="M419.3,590.5c1.1-0.4,2.3-0.6,3.7-0.6s2.3,0.3,2.9,0.8c0.6,0.5,0.9,1.3,0.9,2.4c0,0.5-0.1,0.9-0.3,1.3
		c-0.2,0.4-0.4,0.7-0.6,0.8c-0.2,0.2-0.4,0.4-0.7,0.5c0.6,0.3,1.1,0.6,1.4,1c0.3,0.4,0.4,0.9,0.4,1.7c0,1.3-0.3,2.2-0.9,2.8
		s-1.6,0.9-3,0.9c-0.5,0-1.1,0-1.8-0.1s-1.2-0.2-1.5-0.3l-0.6-0.1l0.1-1.5c1.3,0.2,2.5,0.4,3.5,0.4c1.4,0,2.2-0.6,2.2-1.9
		c0-0.6-0.2-1-0.6-1.3c-0.4-0.3-0.9-0.5-1.5-0.5h-2.4v-1.7h2.4c0.4,0,0.9-0.2,1.2-0.5s0.6-0.8,0.6-1.3s-0.2-0.9-0.5-1.2
		c-0.3-0.3-0.8-0.4-1.4-0.4c-0.9,0-1.9,0.1-2.9,0.3l-0.5,0.1L419.3,590.5z"/>
	<path fill="#70CCDB" d="M435.5,590.1V602h-2v-9.6l-2.8,1.8l-0.9-1.5l3.9-2.6H435.5z"/>
	<path fill="#70CCDB" d="M439.4,598v-1.8h5.4v1.8H439.4z"/>
	<path fill="#70CCDB" d="M454.7,602h-7.7v-1.7l2.9-3c0.9-0.9,1.5-1.6,1.9-2.1c0.4-0.5,0.5-1.1,0.5-1.7c0-0.6-0.2-1.1-0.5-1.3
		c-0.3-0.3-0.9-0.4-1.7-0.4c-0.7,0-1.6,0.1-2.5,0.3l-0.4,0.1l-0.1-1.6c1.2-0.3,2.4-0.5,3.6-0.5c2.5,0,3.7,1.1,3.7,3.3
		c0,0.9-0.2,1.6-0.6,2.2c-0.4,0.6-1.1,1.4-2,2.3l-2.5,2.5h5.4V602z"/>
	<path fill="#70CCDB" d="M457.6,591.4c0.8-1,1.9-1.4,3.4-1.4s2.6,0.5,3.4,1.4c0.7,1,1.1,2.5,1.1,4.8s-0.4,3.8-1.1,4.7
		c-0.8,0.9-1.9,1.4-3.4,1.4s-2.6-0.5-3.4-1.4s-1.1-2.5-1.1-4.7C456.5,593.9,456.9,592.3,457.6,591.4z M462.9,592.6
		c-0.4-0.7-1-1-1.9-1s-1.5,0.3-1.9,1c-0.4,0.7-0.6,1.8-0.6,3.4s0.2,2.8,0.6,3.4c0.4,0.6,1,0.9,1.9,0.9s1.5-0.3,1.8-0.9
		c0.4-0.6,0.6-1.8,0.6-3.4S463.2,593.3,462.9,592.6z"/>
	<path fill="#70CCDB" d="M473.3,590.1V602h-2v-9.6l-2.8,1.8l-0.9-1.5l3.9-2.6H473.3z"/>
	<path fill="#70CCDB" d="M482.2,602v-2.1h-5.3v-1.5l3.1-8.2h2.2l-3.3,8h3.3v-3.5h2v3.5h1.3v1.7h-1.3v2.1H482.2z"/>
</g>
<g>
	<path fill="#70CCDB" d="M584.9,591.4c0.8-1,1.9-1.4,3.4-1.4s2.6,0.5,3.4,1.4c0.7,1,1.1,2.5,1.1,4.8s-0.4,3.8-1.1,4.7
		c-0.8,0.9-1.9,1.4-3.4,1.4s-2.6-0.5-3.4-1.4s-1.1-2.5-1.1-4.7C583.7,593.9,584.1,592.3,584.9,591.4z M590.1,592.6
		c-0.4-0.7-1-1-1.9-1s-1.5,0.3-1.9,1c-0.4,0.7-0.6,1.8-0.6,3.4s0.2,2.8,0.6,3.4c0.4,0.6,1,0.9,1.9,0.9s1.5-0.3,1.8-0.9
		c0.4-0.6,0.6-1.8,0.6-3.4S590.5,593.3,590.1,592.6z"/>
	<path fill="#70CCDB" d="M595.1,590.7c0.8-0.5,1.8-0.8,3.1-0.8s2.4,0.3,3.2,0.8s1.2,1.3,1.2,2.3c0,0.7-0.1,1.3-0.3,1.6
		c-0.2,0.4-0.6,0.7-1.3,1.1c0.6,0.4,1.1,0.8,1.3,1.2c0.3,0.4,0.4,1,0.4,1.7c0,1.2-0.4,2.1-1.2,2.6s-1.9,0.8-3.3,0.8
		c-3,0-4.5-1.1-4.5-3.2c0-0.8,0.1-1.4,0.4-1.9c0.3-0.4,0.7-0.9,1.3-1.3c-0.6-0.4-1-0.8-1.2-1.2c-0.2-0.4-0.3-0.9-0.3-1.6
		C594,592.1,594.4,591.3,595.1,590.7z M595.9,598.5c0,1.2,0.8,1.9,2.3,1.9c1.6,0,2.3-0.6,2.3-1.9c0-0.8-0.5-1.4-1.5-1.7h-1.7
		C596.4,597.1,595.9,597.7,595.9,598.5z M600.5,593.4c0-1.1-0.7-1.7-2.2-1.7s-2.2,0.6-2.2,1.7c0,0.7,0.4,1.3,1.3,1.7h1.7
		C600,594.7,600.5,594.1,600.5,593.4z"/>
	<path fill="#70CCDB" d="M604.4,598v-1.8h5.4v1.8H604.4z"/>
	<path fill="#70CCDB" d="M612.6,591.4c0.8-1,1.9-1.4,3.4-1.4s2.6,0.5,3.4,1.4c0.7,1,1.1,2.5,1.1,4.8s-0.4,3.8-1.1,4.7
		c-0.8,0.9-1.9,1.4-3.4,1.4s-2.6-0.5-3.4-1.4s-1.1-2.5-1.1-4.7C611.5,593.9,611.8,592.3,612.6,591.4z M617.8,592.6
		c-0.4-0.7-1-1-1.9-1s-1.5,0.3-1.9,1c-0.4,0.7-0.6,1.8-0.6,3.4s0.2,2.8,0.6,3.4c0.4,0.6,1,0.9,1.9,0.9s1.5-0.3,1.8-0.9
		c0.4-0.6,0.6-1.8,0.6-3.4S618.2,593.3,617.8,592.6z"/>
	<path fill="#70CCDB" d="M628.3,590.1V602h-2v-9.6l-2.8,1.8l-0.9-1.5l3.9-2.6H628.3z"/>
	<path fill="#70CCDB" d="M632.2,598v-1.8h5.4v1.8H632.2z"/>
	<path fill="#70CCDB" d="M647.5,602h-7.7v-1.7l2.9-3c0.9-0.9,1.5-1.6,1.9-2.1c0.4-0.5,0.5-1.1,0.5-1.7c0-0.6-0.2-1.1-0.5-1.3
		c-0.3-0.3-0.9-0.4-1.7-0.4c-0.7,0-1.6,0.1-2.5,0.3l-0.4,0.1l-0.1-1.6c1.2-0.3,2.4-0.5,3.6-0.5c2.5,0,3.7,1.1,3.7,3.3
		c0,0.9-0.2,1.6-0.6,2.2c-0.4,0.6-1.1,1.4-2,2.3l-2.5,2.5h5.4V602z"/>
	<path fill="#70CCDB" d="M650.4,591.4c0.8-1,1.9-1.4,3.4-1.4s2.6,0.5,3.4,1.4c0.7,1,1.1,2.5,1.1,4.8s-0.4,3.8-1.1,4.7
		c-0.8,0.9-1.9,1.4-3.4,1.4s-2.6-0.5-3.4-1.4s-1.1-2.5-1.1-4.7C649.3,593.9,649.7,592.3,650.4,591.4z M655.6,592.6
		c-0.4-0.7-1-1-1.9-1s-1.5,0.3-1.9,1c-0.4,0.7-0.6,1.8-0.6,3.4s0.2,2.8,0.6,3.4c0.4,0.6,1,0.9,1.9,0.9s1.5-0.3,1.8-0.9
		c0.4-0.6,0.6-1.8,0.6-3.4S656,593.3,655.6,592.6z"/>
	<path fill="#70CCDB" d="M666.1,590.1V602h-2v-9.6l-2.8,1.8l-0.9-1.5l3.9-2.6H666.1z"/>
	<path fill="#70CCDB" d="M675,602v-2.1h-5.3v-1.5l3.1-8.2h2.2l-3.3,8h3.3v-3.5h2v3.5h1.3v1.7H677v2.1H675z"/>
</g>
<g>
	<path fill="#70CCDB" d="M777.6,591.4c0.8-1,1.9-1.4,3.4-1.4s2.6,0.5,3.4,1.4c0.7,1,1.1,2.5,1.1,4.8s-0.4,3.8-1.1,4.7
		c-0.8,0.9-1.9,1.4-3.4,1.4s-2.6-0.5-3.4-1.4s-1.1-2.5-1.1-4.7C776.5,593.9,776.9,592.3,777.6,591.4z M782.9,592.6
		c-0.4-0.7-1-1-1.9-1s-1.5,0.3-1.9,1c-0.4,0.7-0.6,1.8-0.6,3.4s0.2,2.8,0.6,3.4c0.4,0.6,1,0.9,1.9,0.9s1.5-0.3,1.8-0.9
		c0.4-0.6,0.6-1.8,0.6-3.4S783.2,593.3,782.9,592.6z"/>
	<path fill="#70CCDB" d="M787.9,590.7c0.8-0.5,1.8-0.8,3.1-0.8s2.4,0.3,3.2,0.8s1.2,1.3,1.2,2.3c0,0.7-0.1,1.3-0.3,1.6
		c-0.2,0.4-0.6,0.7-1.3,1.1c0.6,0.4,1.1,0.8,1.3,1.2c0.3,0.4,0.4,1,0.4,1.7c0,1.2-0.4,2.1-1.2,2.6s-1.9,0.8-3.3,0.8
		c-3,0-4.5-1.1-4.5-3.2c0-0.8,0.1-1.4,0.4-1.9c0.3-0.4,0.7-0.9,1.3-1.3c-0.6-0.4-1-0.8-1.2-1.2c-0.2-0.4-0.3-0.9-0.3-1.6
		C786.8,592.1,787.2,591.3,787.9,590.7z M788.7,598.5c0,1.2,0.8,1.9,2.3,1.9c1.6,0,2.3-0.6,2.3-1.9c0-0.8-0.5-1.4-1.5-1.7h-1.7
		C789.2,597.1,788.7,597.7,788.7,598.5z M793.2,593.4c0-1.1-0.7-1.7-2.2-1.7s-2.2,0.6-2.2,1.7c0,0.7,0.4,1.3,1.3,1.7h1.7
		C792.8,594.7,793.2,594.1,793.2,593.4z"/>
	<path fill="#70CCDB" d="M797.2,598v-1.8h5.4v1.8H797.2z"/>
	<path fill="#70CCDB" d="M805.4,591.4c0.8-1,1.9-1.4,3.4-1.4s2.6,0.5,3.4,1.4c0.7,1,1.1,2.5,1.1,4.8s-0.4,3.8-1.1,4.7
		c-0.8,0.9-1.9,1.4-3.4,1.4s-2.6-0.5-3.4-1.4s-1.1-2.5-1.1-4.7C804.2,593.9,804.6,592.3,805.4,591.4z M810.6,592.6
		c-0.4-0.7-1-1-1.9-1s-1.5,0.3-1.9,1c-0.4,0.7-0.6,1.8-0.6,3.4s0.2,2.8,0.6,3.4c0.4,0.6,1,0.9,1.9,0.9s1.5-0.3,1.8-0.9
		c0.4-0.6,0.6-1.8,0.6-3.4S811,593.3,810.6,592.6z"/>
	<path fill="#70CCDB" d="M822.6,602H815v-1.7l2.9-3c0.9-0.9,1.5-1.6,1.9-2.1c0.4-0.5,0.5-1.1,0.5-1.7c0-0.6-0.2-1.1-0.5-1.3
		c-0.3-0.3-0.9-0.4-1.7-0.4c-0.7,0-1.6,0.1-2.5,0.3l-0.4,0.1l-0.1-1.6c1.2-0.3,2.4-0.5,3.6-0.5c2.5,0,3.7,1.1,3.7,3.3
		c0,0.9-0.2,1.6-0.6,2.2c-0.4,0.6-1.1,1.4-2,2.3l-2.5,2.5h5.4V602z"/>
	<path fill="#70CCDB" d="M825,598v-1.8h5.4v1.8H825z"/>
	<path fill="#70CCDB" d="M840.3,602h-7.7v-1.7l2.9-3c0.9-0.9,1.5-1.6,1.9-2.1c0.4-0.5,0.5-1.1,0.5-1.7c0-0.6-0.2-1.1-0.5-1.3
		c-0.3-0.3-0.9-0.4-1.7-0.4c-0.7,0-1.6,0.1-2.5,0.3l-0.4,0.1l-0.1-1.6c1.2-0.3,2.4-0.5,3.6-0.5c2.5,0,3.7,1.1,3.7,3.3
		c0,0.9-0.2,1.6-0.6,2.2c-0.4,0.6-1.1,1.4-2,2.3l-2.5,2.5h5.4V602z"/>
	<path fill="#70CCDB" d="M843.2,591.4c0.8-1,1.9-1.4,3.4-1.4s2.6,0.5,3.4,1.4c0.7,1,1.1,2.5,1.1,4.8s-0.4,3.8-1.1,4.7
		c-0.8,0.9-1.9,1.4-3.4,1.4s-2.6-0.5-3.4-1.4s-1.1-2.5-1.1-4.7C842.1,593.9,842.4,592.3,843.2,591.4z M848.4,592.6
		c-0.4-0.7-1-1-1.9-1s-1.5,0.3-1.9,1c-0.4,0.7-0.6,1.8-0.6,3.4s0.2,2.8,0.6,3.4c0.4,0.6,1,0.9,1.9,0.9s1.5-0.3,1.8-0.9
		c0.4-0.6,0.6-1.8,0.6-3.4S848.8,593.3,848.4,592.6z"/>
	<path fill="#70CCDB" d="M858.9,590.1V602h-2v-9.6l-2.8,1.8l-0.9-1.5l3.9-2.6H858.9z"/>
	<path fill="#70CCDB" d="M867.7,602v-2.1h-5.3v-1.5l3.1-8.2h2.2l-3.3,8h3.3v-3.5h2v3.5h1.3v1.7h-1.3v2.1H867.7z"/>
</g>
<g>
	<path fill="#70CCDB" d="M970.4,591.4c0.8-1,1.9-1.4,3.4-1.4s2.6,0.5,3.4,1.4c0.7,1,1.1,2.5,1.1,4.8s-0.4,3.8-1.1,4.7
		c-0.8,0.9-1.9,1.4-3.4,1.4s-2.6-0.5-3.4-1.4s-1.1-2.5-1.1-4.7C969.3,593.9,969.6,592.3,970.4,591.4z M975.6,592.6
		c-0.4-0.7-1-1-1.9-1s-1.5,0.3-1.9,1c-0.4,0.7-0.6,1.8-0.6,3.4s0.2,2.8,0.6,3.4c0.4,0.6,1,0.9,1.9,0.9s1.5-0.3,1.8-0.9
		c0.4-0.6,0.6-1.8,0.6-3.4S976,593.3,975.6,592.6z"/>
	<path fill="#70CCDB" d="M980.7,590.7c0.8-0.5,1.8-0.8,3.1-0.8s2.4,0.3,3.2,0.8s1.2,1.3,1.2,2.3c0,0.7-0.1,1.3-0.3,1.6
		c-0.2,0.4-0.6,0.7-1.3,1.1c0.6,0.4,1.1,0.8,1.3,1.2c0.3,0.4,0.4,1,0.4,1.7c0,1.2-0.4,2.1-1.2,2.6s-1.9,0.8-3.3,0.8
		c-3,0-4.5-1.1-4.5-3.2c0-0.8,0.1-1.4,0.4-1.9c0.3-0.4,0.7-0.9,1.3-1.3c-0.6-0.4-1-0.8-1.2-1.2c-0.2-0.4-0.3-0.9-0.3-1.6
		C979.5,592.1,979.9,591.3,980.7,590.7z M981.5,598.5c0,1.2,0.8,1.9,2.3,1.9c1.6,0,2.3-0.6,2.3-1.9c0-0.8-0.5-1.4-1.5-1.7H983
		C982,597.1,981.5,597.7,981.5,598.5z M986,593.4c0-1.1-0.7-1.7-2.2-1.7s-2.2,0.6-2.2,1.7c0,0.7,0.4,1.3,1.3,1.7h1.7
		C985.6,594.7,986,594.1,986,593.4z"/>
	<path fill="#70CCDB" d="M990,598v-1.8h5.4v1.8H990z"/>
	<path fill="#70CCDB" d="M998.1,591.4c0.8-1,1.9-1.4,3.4-1.4s2.6,0.5,3.4,1.4c0.7,1,1.1,2.5,1.1,4.8s-0.4,3.8-1.1,4.7
		c-0.8,0.9-1.9,1.4-3.4,1.4s-2.6-0.5-3.4-1.4s-1.1-2.5-1.1-4.7C997,593.9,997.4,592.3,998.1,591.4z M1003.4,592.6
		c-0.4-0.7-1-1-1.9-1s-1.5,0.3-1.9,1c-0.4,0.7-0.6,1.8-0.6,3.4s0.2,2.8,0.6,3.4c0.4,0.6,1,0.9,1.9,0.9s1.5-0.3,1.8-0.9
		c0.4-0.6,0.6-1.8,0.6-3.4S1003.7,593.3,1003.4,592.6z"/>
	<path fill="#70CCDB" d="M1007.7,590.5c1.1-0.4,2.3-0.6,3.7-0.6s2.3,0.3,2.9,0.8c0.6,0.5,0.9,1.3,0.9,2.4c0,0.5-0.1,0.9-0.3,1.3
		c-0.2,0.4-0.4,0.7-0.6,0.8c-0.2,0.2-0.4,0.4-0.7,0.5c0.6,0.3,1.1,0.6,1.4,1c0.3,0.4,0.4,0.9,0.4,1.7c0,1.3-0.3,2.2-0.9,2.8
		s-1.6,0.9-3,0.9c-0.5,0-1.1,0-1.8-0.1s-1.2-0.2-1.5-0.3l-0.6-0.1l0.1-1.5c1.3,0.2,2.5,0.4,3.5,0.4c1.4,0,2.2-0.6,2.2-1.9
		c0-0.6-0.2-1-0.6-1.3c-0.4-0.3-0.9-0.5-1.5-0.5h-2.4v-1.7h2.4c0.4,0,0.9-0.2,1.2-0.5s0.6-0.8,0.6-1.3s-0.2-0.9-0.5-1.2
		c-0.3-0.3-0.8-0.4-1.4-0.4c-0.9,0-1.9,0.1-2.9,0.3l-0.5,0.1L1007.7,590.5z"/>
	<path fill="#70CCDB" d="M1017.7,598v-1.8h5.4v1.8H1017.7z"/>
	<path fill="#70CCDB" d="M1033.1,602h-7.7v-1.7l2.9-3c0.9-0.9,1.5-1.6,1.9-2.1c0.4-0.5,0.5-1.1,0.5-1.7c0-0.6-0.2-1.1-0.5-1.3
		c-0.3-0.3-0.9-0.4-1.7-0.4c-0.7,0-1.6,0.1-2.5,0.3l-0.4,0.1l-0.1-1.6c1.2-0.3,2.4-0.5,3.6-0.5c2.5,0,3.7,1.1,3.7,3.3
		c0,0.9-0.2,1.6-0.6,2.2c-0.4,0.6-1.1,1.4-2,2.3l-2.5,2.5h5.4V602z"/>
	<path fill="#70CCDB" d="M1036,591.4c0.8-1,1.9-1.4,3.4-1.4s2.6,0.5,3.4,1.4c0.7,1,1.1,2.5,1.1,4.8s-0.4,3.8-1.1,4.7
		c-0.8,0.9-1.9,1.4-3.4,1.4s-2.6-0.5-3.4-1.4s-1.1-2.5-1.1-4.7C1034.8,593.9,1035.2,592.3,1036,591.4z M1041.2,592.6
		c-0.4-0.7-1-1-1.9-1s-1.5,0.3-1.9,1c-0.4,0.7-0.6,1.8-0.6,3.4s0.2,2.8,0.6,3.4c0.4,0.6,1,0.9,1.9,0.9s1.5-0.3,1.8-0.9
		c0.4-0.6,0.6-1.8,0.6-3.4S1041.6,593.3,1041.2,592.6z"/>
	<path fill="#70CCDB" d="M1051.7,590.1V602h-2v-9.6l-2.8,1.8l-0.9-1.5l3.9-2.6H1051.7z"/>
	<path fill="#70CCDB" d="M1060.5,602v-2.1h-5.3v-1.5l3.1-8.2h2.2l-3.3,8h3.3v-3.5h2v3.5h1.3v1.7h-1.3v2.1H1060.5z"/>
</g>
<g>
	<path fill="#70CCDB" d="M1163.2,591.4c0.8-1,1.9-1.4,3.4-1.4s2.6,0.5,3.4,1.4c0.7,1,1.1,2.5,1.1,4.8s-0.4,3.8-1.1,4.7
		c-0.8,0.9-1.9,1.4-3.4,1.4s-2.6-0.5-3.4-1.4s-1.1-2.5-1.1-4.7C1162,593.9,1162.4,592.3,1163.2,591.4z M1168.4,592.6
		c-0.4-0.7-1-1-1.9-1s-1.5,0.3-1.9,1c-0.4,0.7-0.6,1.8-0.6,3.4s0.2,2.8,0.6,3.4c0.4,0.6,1,0.9,1.9,0.9s1.5-0.3,1.8-0.9
		c0.4-0.6,0.6-1.8,0.6-3.4S1168.8,593.3,1168.4,592.6z"/>
	<path fill="#70CCDB" d="M1173.5,590.7c0.8-0.5,1.8-0.8,3.1-0.8s2.4,0.3,3.2,0.8s1.2,1.3,1.2,2.3c0,0.7-0.1,1.3-0.3,1.6
		c-0.2,0.4-0.6,0.7-1.3,1.1c0.6,0.4,1.1,0.8,1.3,1.2c0.3,0.4,0.4,1,0.4,1.7c0,1.2-0.4,2.1-1.2,2.6s-1.9,0.8-3.3,0.8
		c-3,0-4.5-1.1-4.5-3.2c0-0.8,0.1-1.4,0.4-1.9c0.3-0.4,0.7-0.9,1.3-1.3c-0.6-0.4-1-0.8-1.2-1.2c-0.2-0.4-0.3-0.9-0.3-1.6
		C1172.3,592.1,1172.7,591.3,1173.5,590.7z M1174.3,598.5c0,1.2,0.8,1.9,2.3,1.9c1.6,0,2.3-0.6,2.3-1.9c0-0.8-0.5-1.4-1.5-1.7h-1.7
		C1174.8,597.1,1174.3,597.7,1174.3,598.5z M1178.8,593.4c0-1.1-0.7-1.7-2.2-1.7s-2.2,0.6-2.2,1.7c0,0.7,0.4,1.3,1.3,1.7h1.7
		C1178.3,594.7,1178.8,594.1,1178.8,593.4z"/>
	<path fill="#70CCDB" d="M1182.8,598v-1.8h5.4v1.8H1182.8z"/>
	<path fill="#70CCDB" d="M1190.9,591.4c0.8-1,1.9-1.4,3.4-1.4s2.6,0.5,3.4,1.4c0.7,1,1.1,2.5,1.1,4.8s-0.4,3.8-1.1,4.7
		c-0.8,0.9-1.9,1.4-3.4,1.4s-2.6-0.5-3.4-1.4s-1.1-2.5-1.1-4.7C1189.8,593.9,1190.2,592.3,1190.9,591.4z M1196.1,592.6
		c-0.4-0.7-1-1-1.9-1s-1.5,0.3-1.9,1c-0.4,0.7-0.6,1.8-0.6,3.4s0.2,2.8,0.6,3.4c0.4,0.6,1,0.9,1.9,0.9s1.5-0.3,1.8-0.9
		c0.4-0.6,0.6-1.8,0.6-3.4S1196.5,593.3,1196.1,592.6z"/>
	<path fill="#70CCDB" d="M1205.4,602v-2.1h-5.3v-1.5l3.1-8.2h2.2l-3.3,8h3.3v-3.5h2v3.5h1.3v1.7h-1.3v2.1H1205.4z"/>
	<path fill="#70CCDB" d="M1210.5,598v-1.8h5.4v1.8H1210.5z"/>
	<path fill="#70CCDB" d="M1225.8,602h-7.7v-1.7l2.9-3c0.9-0.9,1.5-1.6,1.9-2.1c0.4-0.5,0.5-1.1,0.5-1.7c0-0.6-0.2-1.1-0.5-1.3
		c-0.3-0.3-0.9-0.4-1.7-0.4c-0.7,0-1.6,0.1-2.5,0.3l-0.4,0.1l-0.1-1.6c1.2-0.3,2.4-0.5,3.6-0.5c2.5,0,3.7,1.1,3.7,3.3
		c0,0.9-0.2,1.6-0.6,2.2c-0.4,0.6-1.1,1.4-2,2.3l-2.5,2.5h5.4V602z"/>
	<path fill="#70CCDB" d="M1228.7,591.4c0.8-1,1.9-1.4,3.4-1.4s2.6,0.5,3.4,1.4c0.7,1,1.1,2.5,1.1,4.8s-0.4,3.8-1.1,4.7
		c-0.8,0.9-1.9,1.4-3.4,1.4s-2.6-0.5-3.4-1.4s-1.1-2.5-1.1-4.7C1227.6,593.9,1228,592.3,1228.7,591.4z M1234,592.6
		c-0.4-0.7-1-1-1.9-1s-1.5,0.3-1.9,1c-0.4,0.7-0.6,1.8-0.6,3.4s0.2,2.8,0.6,3.4c0.4,0.6,1,0.9,1.9,0.9s1.5-0.3,1.8-0.9
		c0.4-0.6,0.6-1.8,0.6-3.4S1234.3,593.3,1234,592.6z"/>
	<path fill="#70CCDB" d="M1244.4,590.1V602h-2v-9.6l-2.8,1.8l-0.9-1.5l3.9-2.6H1244.4z"/>
	<path fill="#70CCDB" d="M1253.3,602v-2.1h-5.3v-1.5l3.1-8.2h2.2l-3.3,8h3.3v-3.5h2v3.5h1.3v1.7h-1.3v2.1H1253.3z"/>
</g>
<path fill="none" stroke="#70CCDB" stroke-width="2" stroke-linecap="round" stroke-miterlimit="10" stroke-dasharray="0,10" d="
	M70.1,219.5"/>
<polyline opacity="0.3" fill="none" stroke="#13BAAD" stroke-width="5" stroke-miterlimit="10" points="56,181.6 274.1,216 
	502.1,241.6 634.1,572 "/>
<polyline opacity="0.3" fill="none" stroke="#CBEAF1" stroke-width="5" stroke-miterlimit="10" points="56,48.1 436.1,111.1 
	782.5,303.1 892,514.6 1274.5,514.6 "/>
<circle opacity="0.3" fill="#13BAAD" cx="609.1" cy="515.5" r="32.2"/>
<g>
	<path fill="#FFFFFF" d="M614.3,500.7v24.7h-5.2v-18.8l-5.3,3.4l-2.4-3.9l8.1-5.4H614.3z"/>
</g>
<polyline opacity="0.3" fill="none" stroke="#CBEAF1" stroke-width="5" stroke-miterlimit="10" points="56,34.6 454.1,92 
	845.5,281.4 989.5,393.1 1274.5,372.1 "/>
<polyline opacity="0.3" fill="none" stroke="#CBEAF1" stroke-width="5" stroke-miterlimit="10" points="56,25.6 476.6,82.6 
	896.5,232.6 1274.5,281.4 "/>
<polyline opacity="0.3" fill="none" stroke="#CBEAF1" stroke-width="5" stroke-miterlimit="10" points="56,9.1 976,123.1 
	1139.5,232.6 1274.5,243.2 "/>
<circle opacity="0.3" fill="#CBEAF1" cx="1047.3" cy="514.6" r="32.2"/>
<g>
	<path fill="#FFFFFF" d="M1055.8,501.6v4.5h-11l-0.6,5.3c1.5-0.6,3-0.9,4.4-0.9c5.3,0,8,2.5,8,7.4c0,2.8-0.7,4.9-2.2,6.5
		c-1.5,1.5-3.6,2.3-6.2,2.3c-1.1,0-2.4-0.1-3.9-0.3c-1.5-0.2-2.6-0.5-3.5-0.7l-1.3-0.3l0.6-3.8c3,0.5,5.5,0.7,7.6,0.7
		c1.2,0,2.2-0.3,2.8-1c0.6-0.6,1-1.6,1-2.8c0-1.2-0.3-2.1-0.8-2.6c-0.5-0.5-1.3-0.8-2.3-0.8c-1.7,0-3.1,0.2-4.4,0.5l-0.6,0.1
		l-3.1-0.7l0.7-13.3H1055.8z"/>
</g>
<circle opacity="0.3" fill="#CBEAF1" cx="1047.3" cy="393.1" r="32.2"/>
<g>
	<path fill="#FFFFFF" d="M1049.5,404.8v-4.1H1039v-3.9l6.1-16.7h5.7l-6.6,16.1h5.3v-6.9h5.2v6.9h2.4v4.5h-2.4v4.1H1049.5z"/>
</g>
<circle opacity="0.3" fill="#CBEAF1" cx="1047.3" cy="251.7" r="32.2"/>
<g>
	<path fill="#FFFFFF" d="M1039.8,239.6c2.3-0.9,4.9-1.3,7.7-1.3s4.9,0.5,6.2,1.6s1.9,2.8,1.9,5.2s-1,4.2-2.9,5.5
		c1.2,0.6,2,1.3,2.6,2c0.5,0.7,0.8,1.8,0.8,3.3c0,2.7-0.7,4.6-2,5.9c-1.3,1.3-3.5,1.9-6.4,1.9c-2.2,0-4.4-0.3-6.8-1l-1.2-0.3
		l0.3-3.9c2.8,0.5,5.1,0.7,7,0.7c2.6,0,3.8-1.1,3.8-3.3c0-0.9-0.3-1.7-1-2.2c-0.7-0.5-1.5-0.8-2.6-0.8h-5v-4.3h5
		c0.8,0,1.6-0.3,2.2-1c0.6-0.7,1-1.5,1-2.3c0-1.8-1.2-2.7-3.7-2.7c-1.7,0-3.6,0.2-5.5,0.5l-1,0.1L1039.8,239.6z"/>
</g>
<circle opacity="0.3" fill="#CBEAF1" cx="1047.3" cy="169.1" r="32.2"/>
<g>
	<path fill="#FFFFFF" d="M1055.9,180.7h-16v-4.4l5.3-5.3c1.9-1.9,3.2-3.4,3.9-4.4c0.7-1,1.1-2.1,1.1-3.3s-0.3-2-0.9-2.4
		c-0.6-0.5-1.5-0.7-2.6-0.7c-1.7,0-3.5,0.1-5.5,0.4l-0.9,0.1l-0.3-4c2.4-0.7,5-1.1,7.6-1.1c5.2,0,7.9,2.4,7.9,7.1
		c0,1.8-0.4,3.4-1.2,4.8c-0.8,1.3-2.2,3-4.3,4.9l-4.3,3.9h10.2V180.7z"/>
</g>
</svg>
