<?xml version="1.0" encoding="utf-8"?>
<!-- Generator: Adobe Illustrator 18.0.0, SVG Export Plug-In . SVG Version: 6.00 Build 0)  -->
<!DOCTYPE svg PUBLIC "-//W3C//DTD SVG 1.1//EN" "http://www.w3.org/Graphics/SVG/1.1/DTD/svg11.dtd">
<svg version="1.1" id="Layer_1" xmlns="http://www.w3.org/2000/svg" xmlns:xlink="http://www.w3.org/1999/xlink" x="0px" y="0px"
	 viewBox="0 0 1372 900" enable-background="new 0 0 1372 900" xml:space="preserve">
<path opacity="5.000000e-02" fill="#6DC6D7" d="M479,901c15.8-51.9,31.5-103.8,47.4-155.7c12.1-39.7,24.8-79.3,36.3-119.2
	c2.8-9.8,1.9-20.8,2.3-31.2c1.2-35,2.1-69.9,3.3-104.9c0.8-25.3,1.9-50.6,2.9-75.9c1.6-38.6,3.3-77.2,4.7-115.8
	c0.4-11.3,0.1-22.6-0.6-34.1c-1.4,7.9-2.9,15.8-4.3,23.6c-4.6,25.4-9.1,50.8-13.6,76.3c-4.5,25.1-8.9,50.2-13.4,75.3
	c-4.5,25.4-8.2,51-13.8,76.2c-15.5,69.9-31.8,139.7-47.6,209.5c-1.2,5.1-1.2,10.5-1.5,15.8c-1.4,23.7-2.4,47.5-4.2,71.2
	c-1.4,19-3.8,38-5.7,57c-1.1,10.6-2.1,21.2-3.1,31.7c-0.3,0-0.7,0-1,0c0.3-4.6,0.6-9.3,1.1-13.9c1.4-15.2,2.9-30.4,4.3-45.6
	c1.6-18.3,3.3-36.7,4.7-55.1c1-13.6,1.5-27.2,2.3-40.8c0.1-2.1,0.5-4.2,0.7-6.4c-4.6,13.7-8.7,27.5-12.7,41.3
	c-4.5,15.5-9.8,30.9-13.1,46.7c-5.1,24.4-8.9,49.1-13.2,73.7c-0.3,0-0.7,0-1,0c1.9-11.6,3.8-23.1,5.7-34.7
	c1.1-6.8,2.3-13.5,3.4-20.3c-3,6.9-5.3,14-7,21.2c-2.6,11.2-4.7,22.5-7.1,33.8c-1.7,0-3.3,0-5,0c3.7-12.7,8.3-25.1,10.9-38
	c6.5-32.8,12-65.7,17.8-98.6c1.1-6,1.6-12,2.4-18c-1.2,1.8-1.7,3.7-2.1,5.7c-7.6,35.9-15.2,71.8-22.7,107.7
	c-2.9,13.7-5.5,27.5-8.3,41.3c-0.7,0-1.3,0-2,0c1-4.7,2.1-9.4,3-14c8.5-40.3,16.8-80.7,25.6-120.9c7.9-36.1,14.6-72.4,19.4-109
	c3.2-24.6,6.9-49.2,10.2-73.9c3.4-25.3,6.6-50.6,9.7-76c0.4-3.5,0.1-7.2,0.1-10.8c-1.6,4.4-2.6,8.7-3.4,13.1
	c-6.2,31.2-12.6,62.3-18.6,93.5c-5.1,26.7-9.9,53.4-14.7,80.1c-4.8,26.7-9.5,53.4-14.3,80.2c-4.5,24.8-9.1,49.5-13.6,74.2
	c-3.8,21.2-7.5,42.4-11.3,63.5c-0.7,0-1.3,0-2,0c2-10.4,4.1-20.8,6-31.2c4.6-25.1,9.1-50.2,13.7-75.2c4.8-26.6,9.6-53.1,14.4-79.7
	c5.1-28.3,10-56.7,15.3-85c5.4-29.1,11-58.2,16.8-87.3c3.9-20,8.5-39.8,12.3-59.8c1.6-8.6,2-17.5,2.6-26.3c1.5-22.4,2.7-44.8,4-67.3
	c0-0.4-0.2-0.9-0.4-2.5c-4.8,12-9.4,22.9-13.5,34c-19.4,52.9-39.2,105.6-57.7,158.8c-6.9,19.8-10.4,40.7-15.4,61.1
	c-12.1,49.6-22.7,99.6-38.8,148.3c-4.1,12.3-5.1,25.6-7.2,38.5c-3.7,21.7-7.1,43.5-10.7,65.2c-0.5,2.8-0.9,5.6-1.3,8.3
	c-0.3,0-0.7,0-1,0c0-1.3-0.1-2.7,0.1-4c3.5-21.4,7-42.7,10.5-64.1c1.2-7.3,2.3-14.6,3.4-21.9c-7,19.4-13.1,38.9-19.1,58.4
	c-3.3,10.5-6.6,21.1-9.9,31.6c-0.7,0-1.3,0-2,0c8.2-25.8,16.6-51.6,24.6-77.5c3.8-12.3,7.8-24.6,10.3-37.2
	c3.9-19.3,6.6-38.8,9.8-58.2c1.2-7.6,2.4-15.3,3.6-22.9c-1.2,0.8-1.8,1.8-2.1,2.8c-19.6,56.2-39.2,112.5-58.6,168.8
	c-2.7,7.9-4.4,16.2-6.6,24.3c-0.7,0-1.3,0-2,0c7.5-23,14.6-46,22.5-68.9c15.7-45.9,32.1-91.5,47.4-137.5c4-12,5.1-24.9,7.1-37.5
	c3.1-19,5.8-38,8.6-57c2.5-16.7,5-33.4,7.4-50.1c2.8-18.8,5.6-37.7,8.4-56.5c2.8-18.8,5.8-37.6,8.5-56.5c5-34.1,10-68.1,17.4-101.8
	c8.3-37.3,15.7-74.8,23.6-112.1c11.2-52.8,22.4-105.5,33.6-158.2c4.4-20.4,8.9-40.7,13.4-61c0.2-1,0.6-1.9,0.9-2.8c0.3,0,0.7,0,1,0
	c-3.2,14.5-6.3,29.1-9.5,43.6c-9.2,43-18.5,86-27.6,129.1c-7.9,37.4-15.8,74.8-23.6,112.2c-6.4,30.6-13.2,61.1-18.9,91.9
	c-3.9,21-6.3,42.3-9.4,63.4c-3.5,23.4-7.2,46.8-10.7,70.3c-3.2,21.1-6.2,42.3-9.3,63.4c-2.8,18.8-5.7,37.7-8.6,56.5
	c-2.2,14.6-4.3,29.1-6.7,45c1.1-1.6,1.6-2,1.8-2.6c10.7-30.5,22.4-60.6,31.6-91.5c8.5-28.6,14-58.2,21.4-87.2
	c11.8-46,24.1-91.8,36.1-137.7c8-30.4,16.4-60.7,23.7-91.3c3.4-14.4,4.8-29.4,6.8-44.1c2.1-15.8,3.8-31.6,5.7-47.4
	c1.5-12.5,2.9-25.1,4.4-37.6c1.9-16.3,3.9-32.6,5.8-48.9c1.8-15.5,3.5-31,5.3-46.5c1.6-13.5,3.3-27,4.9-40.5c0.3,0,0.7,0,1,0
	c-0.2,2.3-0.2,4.7-0.5,7c-1.8,15.8-3.7,31.6-5.6,47.5c-1.8,15.5-3.5,31-5.3,46.5c-1.9,15.8-3.8,31.6-5.7,47.4
	c-1.9,16.1-3.8,32.3-5.7,48.5c-0.9,7.7-1.7,15.4-2.5,23.1c1-0.5,1.1-1.1,1.3-1.7c6-28.8,12-57.6,17.9-86.5
	c2.2-10.7,5.1-21.4,5.8-32.2c1.5-21.8,1.3-43.6,2.4-65.4c0.6-11.4,2.5-22.8,3.8-34.1c0.3,0,0.7,0,1,0c-1.2,14.9-2.9,29.7-3.5,44.6
	c-0.6,14.1-0.1,28.2-0.1,42.3c-0.3-3,0.2-6,0.7-9.1c2.2-16.1,4.4-32.2,6.5-48.2c1.3-9.8,2.3-19.7,3.5-29.6c1,0,2,0,3,0
	c-0.3,5.2-0.6,10.5-0.9,15.7c0.2,0,0.4,0,0.5,0c1.1-5.2,2.3-10.5,3.4-15.7c0.3,0,0.7,0,1,0c-0.2,1.5-0.3,3-0.6,4.4
	c-1.5,8.6-3.7,17.2-4.3,25.9c-1.4,20.7-2,41.5-3.1,62.3c-1.7,32.9-3.3,65.8-5.2,98.6c-0.6,10.6-1.8,21.2-2.8,31.8
	c-0.6,6.4-1.3,12.7-2,19c1.1-1.8,1.6-3.7,2-5.6c7.9-36.7,15.7-73.4,23.5-110.1c2.5-12,6.7-23.9,7.1-35.9c1-30.1,0.3-60.3,0.3-90.4
	c0.7,0,1.3,0,2,0c0,26.9,0,53.9,0,81.3C585.1,54.9,591,28,597,1c0.7,0,1.3,0,2,0c-0.3,0.6-0.7,1.2-0.9,1.8
	c-4.3,19.4-8.9,38.7-12.9,58.1c-2.8,13.6-6.3,27.3-6.8,41c-1.1,29.3-0.4,58.7-0.5,88c0,1.1,0,2.1,0,3.2c5.6-10.8,12.4-21,13.2-33.5
	c0.3-4.8,1.6-9.5,2.3-14.2c3.2-20.1,6.5-40.2,9.6-60.3c2.7-17.2,5.2-34.4,7.6-51.6c1.5-10.8,2.9-21.7,4.3-32.5c0.7,0,1.3,0,2,0
	c-0.8,5.4-1.6,10.8-2.4,16.2c-2.5,17.4-5,34.7-7.6,52.1c-2.8,18.6-5.7,37.3-8.6,55.9c-2,12.6-4.1,25.1-6.2,37.7
	c2.4-3.6,4.1-7.3,5.8-11c13.6-28.9,26.8-58,41-86.7c10.7-21.7,22.6-42.8,34-64.2c0.7,0,1.3,0,2,0c-29.1,51.6-54.9,104.9-79.3,158.9
	c-5.8,12.9-7.2,26.4-9.7,39.8c-2.8,15-5.1,30-7.5,45.1c-0.5,3.4-0.7,6.9-0.8,10.4c-0.6,27.6-1,55.3-1.9,82.9
	c-1.1,35.9-2.7,71.9-4,107.8c-1,26.5-2.1,52.9-3,79.4c-1,27.6-1.9,55.2-2.8,82.9c-0.1,1.6,0,3.2,0.9,4.9c3-9.7,6.2-19.3,9.1-29.1
	c39.2-133.2,82.4-265.2,129.7-395.7c20.5-56.5,43.8-111.9,65.9-167.9c2.5-6.5,5-13,7.5-19.4c0.7,0,1.3,0,2,0
	c-21.4,53.2-43.7,106-64,159.6c-17.8,47.2-33.1,95.4-50.1,142.9c-35.6,99.3-64.2,200.7-96.1,301.2c-4.3,13.5-5.7,27.1-5.9,41.1
	c-1.2,58.6-2.6,117.2-3.8,175.9c-0.5,23.1-0.8,46.3-1.2,69.5c-0.1,3.3-0.6,6.6-0.9,9.9c-0.3,0-0.7,0-1,0c2-90.2,4-180.4,6.1-270.6
	c-1.2,1.3-1.7,2.8-2.2,4.3c-24.5,80-49,160-73.5,240.1c-2.7,8.7-4.9,17.5-7.4,26.2C480.3,901,479.7,901,479,901z M483,712.8
	c0.2,0,0.4,0,0.7,0.1c0.4-1.7,0.9-3.5,1.3-5.2c9.2-39.3,18.5-78.6,27.5-117.9c5.7-24.8,11.4-49.6,16.4-74.6
	c5-25.3,9.2-50.8,13.7-76.2c4.5-25.3,9-50.5,13.5-75.8c4.5-25.3,9-50.5,13.5-75.8c3.6-19.9,7.9-39.7,6.5-60.2
	c-0.4-6.1,0-12.3,0-18.5c0-1.2-0.2-2.3-0.3-3.5c-10,20.2-18.7,40.5-27.8,60.8c-7.5,16.6-12.1,33.8-13.3,52.1c-0.9,14-3.3,28-5,42
	c-1.9,15.3-3.8,30.6-5.7,45.9c-2,15.9-3.9,31.9-6.4,47.8c-4,25-8.4,50-12.6,74.9c-3.8,22.7-7.8,45.4-11.5,68.1
	c-2,12.4-4.1,24.8-5.5,37.4c-1.4,13.2-2.1,26.5-2.9,39.8C484.3,686.9,483.7,699.9,483,712.8z M507.8,272.2
	c-11.8,35.2-74.1,279.4-73.2,287.2c0.6-1.6,1-2.8,1.5-4c19-51.1,38-102.1,56.8-153.2c3.3-8.8,6.6-17.7,8.6-26.9
	c1.6-7.2,1.1-14.9,1.5-22.4c0.9-14.9,1.9-29.9,2.8-44.8C506.5,296.5,507.1,284.9,507.8,272.2z M525.9,315.7c0.3,0.1,0.5,0.1,0.8,0.2
	c0.5-1,1-1.9,1.3-3c9.4-24,12.1-49.4,15-74.7c1.9-16.8,3.1-33.7,4.3-50.6c1.4-20.1,2.6-40.2,3.8-60.3c1.1-18.8,2-37.5,2.8-56.3
	c0.3-7.4,0.1-14.7,0.1-22.1c-2.2,8.5-4,17-5.5,25.6c-2.2,12.7-5.2,25.4-6.1,38.2c-1.5,20.4-1.4,40.9-2.4,61.4
	c-0.6,11.1-2,22.1-3.1,33.2c-1.5,15.4-3.1,30.7-4.7,46.1c-1.2,12.1-2.5,24.1-3.7,36.2C527.4,298.2,526.7,307,525.9,315.7z
	 M576.6,103.4c-0.2,0-0.3,0-0.5,0c-12.7,59.7-25.4,119.4-38,179.2c0.5,0.1,1,0.3,1.5,0.4c0.3-0.6,0.6-1.1,0.8-1.7
	c11.5-26.4,23.1-52.8,34.5-79.2c0.9-2.1,1.2-4.5,1.2-6.8c0.3-15.3,0.4-30.6,0.5-46C576.7,134,576.6,118.7,576.6,103.4z M489.4,609.8
	c18.5-102.4,35.3-204.6,45.3-308.6C527,318.5,485.6,592.4,489.4,609.8z M538.1,129c-0.3,0-0.6,0-0.9,0c-0.4,1.9-0.9,3.8-1.3,5.8
	c-6.2,30.1-12.3,60.3-18.6,90.4c-4,19.2-7.3,38.4-8.5,58c-0.7,11.8-1.4,23.6-2.2,35.4c-1.2,18.6-2.4,37.2-3.5,55.7
	c0.5,0.1,1,0.2,1.6,0.4c2.1-8.3,4.5-16.6,6.2-25c1-4.7,1-9.6,1.4-14.4c1.5-15.4,3-30.7,4.7-46.1c1.4-12.9,2.9-25.7,4.5-38.6
	c2-15.8,4.3-31.5,6.4-47.3c2.2-15.9,4.3-31.9,6.5-47.8C535.7,146.7,536.9,137.9,538.1,129z M539.6,139.2c-0.4,0-0.9-0.1-1.3-0.1
	c-9.2,69.8-20.4,139.3-24.9,209.6c6-12.9,11.3-25.8,11.9-40.4c0.4-11.8,2.1-23.5,3.2-35.2c1.5-15.4,3.1-30.7,4.6-46.1
	c1.5-14.9,3.1-29.7,4.2-44.6C538.3,168.1,538.8,153.6,539.6,139.2z M376.1,777.7c19.4-55.3,29.6-113.1,43.8-169.9
	c-5.8,14.3-10.9,28.8-15.9,43.3c-4.7,13.4-10.8,26.6-13.6,40.4C384.6,720,380.7,748.9,376.1,777.7z M446.8,841.8
	c0.6,0.1,1.1,0.2,1.7,0.3c2.7-12.7,5.7-25.4,8-38.1c4.4-23.9,8.4-47.9,12.5-71.9c3.9-22.7,7.6-45.4,11.6-68
	c3.8-21.9,7.4-43.8,7.5-66.1c0-0.9-0.2-1.8-0.3-2.7c-2,9.7-3.4,19.3-4.9,29c-2.5,16.7-4.9,33.4-7.7,50.1
	c-4.6,27.7-9.6,55.4-14.3,83.1c-3.7,21.7-7.1,43.4-10.7,65.2C449.2,828.9,448,835.4,446.8,841.8z M485,651.2c-0.2,0-0.4,0-0.7,0
	c-8.5,49.9-17,99.8-25.6,149.7c5.8-16.3,10.6-32.7,15.4-49.2c3.6-12.4,6.9-24.8,7.1-37.9c0.2-13.3,1.8-26.5,2.6-39.8
	C484.4,666.3,484.7,658.7,485,651.2z M521.6,334.8c-4.8,11.7-10.5,22.7-11.1,35.8c-0.7,15.4-2.9,30.7-4.5,46.1
	c-0.2,2.1-0.4,4.3-0.6,6.4c-0.2,1.9-0.2,3.9-0.4,5.8C511.4,397.6,521.1,366.9,521.6,334.8z M493.5,535c0.4,0,0.9,0,1.3,0
	c7.2-47.9,14.3-95.8,21.5-143.7c-0.6-0.1-1.1-0.2-1.7-0.3c-4.3,23.9-9.2,47.6-12.8,71.6C498.3,486.6,496.2,510.8,493.5,535z
	 M509.4,368c-5.2,7.3-7.1,15.4-7.5,24.1c-0.7,15.6-1.9,31.1-2.8,46.7c-0.5,7.9-0.8,15.8-1.1,23.7c0.6,0,1.1,0.1,1.7,0.1
	C503,431.1,506.2,399.6,509.4,368z M587.8,179.6c-3.7,8.3-10.5,15.7-10,26c0.4,9.4,0.1,18.8,0.1,28.2c0.3,0,0.6,0,0.9,0
	C581.8,215.7,584.8,197.6,587.8,179.6z M476.6,648.8c5.4-32,11.7-63.9,13.6-96.4C485.7,584.5,481.1,616.7,476.6,648.8z M550.6,48.9
	c0.6,0,1.1,0,1.7-0.1c1.3-11.5,2.7-22.9,4-34.4c-0.3,0-0.7-0.1-1-0.1C553.8,25.8,552.2,37.3,550.6,48.9z M529.2,316.8
	c-0.6-0.1-1.3-0.2-1.9-0.4c-1.4,7.2-2.8,14.3-4.2,21.5c0.5,0.1,1,0.2,1.6,0.3C526.2,331,527.7,323.9,529.2,316.8z M499.1,472.3
	c-0.4,0-0.8-0.1-1.2-0.1c-0.7,7.8-1.4,15.6-2.1,23.4c0.3,0,0.7,0.1,1,0.1C497.6,487.9,498.3,480.1,499.1,472.3z"/>
<path opacity="5.000000e-02" fill="#6DC6D7" d="M114,901c1.1-11.4,2.3-22.8,3.4-34.2c1.2-11.1,2.4-22.1,3.6-33.2
	c1.6-15.7,3.2-31.4,4.8-47.1c1.4-14.4,2.8-28.8,4.3-43.1c1.8-17.2,3.7-34.3,5.7-51.5c1.6-14,3.5-28,5.2-42
	c4.2-34.2,9-68.4,18.6-101.5c5.9-20.3,5.6-40.6,5.4-61.2c-0.6-55.3-1.3-110.6-2-166c0-2.1-0.2-4.2-0.4-6.3c-0.4,0-0.8,0-1.2-0.1
	c-0.8,6.7-1.6,13.4-2.4,20.1c-1.9,15.8-3.8,31.6-5.7,47.4c-1.8,15.3-3.5,30.6-5.3,46c-1.8,15.6-3.7,31.3-5.6,46.9
	c-2,16.3-4.1,32.6-6.4,48.8c-2.7,19.2-5.6,38.4-8.4,57.5c-2.5,17.2-5,34.4-7.6,51.6c-2.8,19-5.6,38-8.4,57
	c-2.5,16.9-5.1,33.7-7.5,50.6c-2.8,19.2-5.5,38.4-8.3,57.6c-2.5,16.9-5.2,33.7-7.6,50.6c-2.5,17.2-4.7,34.5-7,51.7c-0.3,0-0.7,0-1,0
	c1.5-12.3,2.8-24.7,4.5-37c2.4-17.4,5-34.8,7.5-52.1c2.8-19.2,5.8-38.3,8.6-57.5c2.5-16.9,4.9-33.8,7.4-50.6
	c2.8-19.3,5.7-38.7,8.6-58c2.5-16.9,4.9-33.8,7.4-50.6c2.5-17.2,5.2-34.4,7.7-51.6c2.6-17.9,5-35.8,7.4-53.7
	c2.4-18.3,4.6-36.5,6.8-54.8c2.2-18.3,4.1-36.6,6.2-54.9c2.2-18.3,4.2-36.6,6.8-54.8c2.9-20.2,3.1-40.4,1.7-60.6
	c-0.7-10.3-1-20.6-1.4-30.9c-0.7-17.6-1.4-35.3-2.1-52.9c0-0.8-0.2-1.5-0.8-2.3c-2.4,17-4.9,34.1-7.4,51.1
	c-2.6,17.7-5.2,35.4-7.7,53.1c-2.5,17.1-4.8,34.1-7.3,51.2c-2.8,19.2-5.6,38.4-8.4,57.5c-2.5,17.2-5.1,34.4-7.6,51.6
	c-2.8,19-5.7,38-8.5,57c-2.5,16.9-5,33.8-7.5,50.6c-2.8,19.2-5.6,38.4-8.4,57.6c-2.5,17-5.1,34.1-7.6,51.1
	c-2.2,14.6-4.4,29.2-6.4,43.8c-1.7,12.2-3.6,24.3-4.5,36.5c-2.3,30.3-4.2,60.7-6,91.1c-1,16.1-1.5,32.3-2.2,48.4
	c-0.3,7.3-0.6,14.6-0.9,21.9c-0.7,0-1.3,0-2,0c2-37.9,4.1-75.9,6.1-113.8c-1.6,9.3-2.4,18.6-3.1,27.9c-0.9,11.6-1.6,23.2-2.4,34.8
	c-1.2,17-2.4,34.1-3.6,51.1c-0.7,0-1.3,0-2,0c1.5-18.6,3-37.3,4.4-55.9c-2.1,7.9-3.2,15.9-4.1,23.9c-1.2,10.7-2.2,21.4-3.3,32.1
	c-0.7,0-1.3,0-2,0c0.7-5.3,1.4-10.5,2-15.8c2.1-18,4.2-35.9,6.3-53.9c2.3-20.6,5.5-41.2,6.5-61.9c1.8-36.8,2.3-73.6,3.2-110.4
	c0.8-31.5,1.4-62.9,2.2-94.4c0.4-15.6,1.2-31.3,1.7-46.9c0.1-3.7,0-7.5,0-11.2c-2.3,15.7-3.7,31.4-5.3,47.1
	c-1.8,18.3-3.9,36.6-5.7,55c-1.8,18.5-3.4,37-5.2,55.5c-2.2,21.6-4.6,43.3-6.7,64.9c-2.2,22.3-4.3,44.6-6.1,67
	c-1.6,20.4-2.7,40.8-4,61.2c-1,14.6-2,29.2-2.9,43.8c-0.3,0-0.7,0-1,0c0.7-14.1,1.4-28.3,2.1-42.4c-0.3,0-0.5,0-0.8,0
	c-1.5,14.1-2.9,28.3-4.4,42.4c-0.3,0-0.7,0-1,0c0.1-2.7,0-5.3,0.3-8c1.9-18.3,3.9-36.6,5.7-55c1.6-16.4,3-32.7,4.2-49.1
	c1.4-19.4,2.6-38.8,3.8-58.2c1.1-16.6,2.1-33.2,3.3-49.8c1.2-17.6,2.5-35.1,3.7-52.7c0.9-12.3,1.9-24.5,2.8-36.8
	c0.6-8.6,1-17.2,1.4-25.7c-1.5,6.9-2,13.8-2.6,20.7c-1.5,17.4-3.1,34.7-4.7,52.1c-1.2,13.1-2.2,26.2-3.3,39.2
	c-1.5,17.2-3.1,34.4-4.6,51.6c-1.1,12.7-2.1,25.5-3.3,38.2c-1.6,17.5-3.2,35.1-4.8,52.6c-1.2,13.1-2.5,26.1-3.6,39.2
	c-1.2,13.9-2.2,27.8-3.3,41.7c-0.7,0-1.3,0-2,0c2.4-26.8,4.8-53.6,7.1-80.4c2-22.5,4-45,6-67.5c2.3-26.3,4.7-52.6,7-78.9
	c2.4-26.6,4.7-53.3,7-79.9c2.3-26.6,4.6-53.3,7-79.9c2.3-26.6,4.7-53.3,7-79.9c2.3-26.1,4.5-52.3,7-78.4c2.1-22.1,4.5-44.3,6.7-66.4
	c0.2-1.5,0.1-3,0.1-4.5c0.5-71.6,0.8-143.2,1.4-214.9c0.2-23.1,1-46.3,1.6-69.4c0.3,0,0.7,0,1,0c-0.8,85.9-1.6,171.8-2.4,257.6
	c2.5-14.2,4.4-28.3,5.3-42.5c1.1-18.9,1.5-37.9,2.1-56.9c0.8-24.5,1.4-48.9,2.2-73.4c0.4-11.3,1.1-22.6,1.5-33.9
	C96.3,34.9,96.6,18,97,1c0.7,0,1.3,0,2,0c-0.7,15.6-1.4,31.3-2,46.9c-1.4,37.8-2.7,75.6-4,113.3c-0.2,5.1,0,10.3,0,15.9
	c0.6-0.7,0.9-1,0.9-1.2c2-20.8,4-41.7,6.1-62.5c2.6-26.1,5.1-52.2,8.2-78.2C109.5,23.8,112,12.4,114,1c0.3,0,0.7,0,1,0
	c-0.5,3.8-1.1,7.5-1.6,11.3c-2.2,15.1-4.5,30.1-6.4,45.2c-1.4,11-2.2,22.1-3.3,33.2c-1.6,15.7-3.1,31.4-4.7,47.1
	c-1.2,11.9-2.2,23.8-3.4,35.7c-1.5,15.5-3.5,31-4.5,46.6c-1.1,17.6-1.5,35.3-2,52.9c-0.2,6.9,0,13.9,0,20.9c0.7-0.9,0.9-1.8,1-2.7
	c1.4-13.2,2.8-26.4,4.2-39.6c1.9-17.5,3.9-34.9,5.8-52.4c1.8-17.7,3.4-35.3,5.3-53c2.2-20.6,4.3-41.2,6.8-61.8
	c2-16.8,4.5-33.5,6.7-50.2c1.5-11,2.8-22,4.3-33c0.7,0,1.3,0,2,0c-1.9,12.6-3.8,25.2-5.6,37.9c-1.9,13-3.8,25.9-5.4,38.9
	c-1.7,14.3-2.9,28.7-4.4,43.1c-1.5,14.7-3.1,29.4-4.7,44.1c-1.5,14.2-2.9,28.4-4.4,42.6c-1.5,14.5-3,29-4.6,43.6
	c-1.5,13.7-3,27.4-4.6,41c-1.4,12-3.3,24-4.2,36.1c-1.4,18.2-2.1,36.5-3,54.8c-0.2,4.9,0,9.9,0,14.8c2.1-14.8,3.5-29.7,5-44.5
	c1.1-10.9,2.2-21.8,3.3-32.7c1.6-15.4,3.2-30.7,4.7-46.1c1.5-14.9,2.8-29.8,4.3-44.6c1.5-15.2,3.2-30.4,4.7-45.5
	c1.5-15.2,2.8-30.4,4.3-45.6c1.8-18.5,3.6-37,5.8-55.5c1.9-16.6,4.3-33.2,6.5-49.8c1.4-10.8,2.9-21.7,4.4-32.5c0.7,0,1.3,0,2,0
	c-2,13.3-4.1,26.5-6,39.8c-1.9,13.8-3.8,27.6-5.4,41.4c-1.4,11.7-2.4,23.4-3.6,35.2c-1.6,15.9-3.2,31.7-4.8,47.6
	c-1.5,15-2.8,30.1-4.3,45.1c-1.5,15.4-3.2,30.7-4.7,46.1c-1.1,11.4-2.2,22.8-3.3,34.2c-1.5,15.4-3.2,30.7-4.7,46.1
	c-1.5,14.7-2.8,29.4-4.3,44.1c-1.5,15.2-3.3,30.4-4.7,45.6c-0.9,10.1-1.9,20.2-2.2,30.4c-0.9,31.3-1.4,62.6-2.2,93.9
	c-1.2,45-2.6,89.9-3.8,134.9c-0.4,14.8-0.1,29.6-0.1,40.1c1.3-9.3,3-22.8,5-36.4c2.5-17.1,5.1-34.1,7.6-51.1
	c2.5-16.9,4.9-33.8,7.4-50.7c2.9-19.3,5.8-38.7,8.6-58c2.8-19,5.5-38,8.3-57.1c2.8-19.3,5.8-38.7,8.6-58c2.5-16.7,4.9-33.4,7.4-50.2
	c2.5-17.2,5.1-34.4,7.6-51.6c2.5-17.2,5-34.4,7.4-51.7c2.5-17.6,4.9-35.1,7.5-52.7c3.6-23.8,7.1-47.5,5-71.8
	c-1.9-21-1.7-42.3-2.5-63.4c-0.9-24-2-47.9-3-71.9c0.7,0,1.3,0,2,0c0,5.3-0.1,10.7,0.1,16c1.6,41.9,3.2,83.8,4.9,125.7
	c0.1,2.8,0.6,5.6,0.9,8.4c1.1-1.7,1.1-3.4,1.4-5c2.6-18,5.2-36.1,7.8-54.1c2.5-17.4,5.1-34.7,7.6-52.1c1.8-13,3.5-25.9,5.3-38.9
	c0.7,0,1.3,0,2,0c-0.3,1.8-0.8,3.6-1,5.4c-1.5,10.3-2.9,20.7-4.4,31C174,54.9,171.5,72.4,169,90c-2.5,17.5-5.1,35.1-7.6,52.6
	c-1.3,9.3-3,18.7-3.1,28.1c-0.2,11.8,1.1,23.6,1.6,35.4c0.8,21.1,1.4,42.3,2.2,63.4c0.2,4.4,0.8,8.7,1.1,13.1
	c2.4-16.3,4.4-32.6,6.1-48.9c1.7-15.8,3.3-31.7,4.7-47.6c1.2-13.2,2.2-26.5,3.3-39.7c1.5-17.4,3.2-34.7,4.7-52.1
	c1.2-13.6,2.1-27.2,3.3-40.7c1.5-17.5,3.1-35,4.7-52.6c0.3,0,0.7,0,1,0c-1.3,15.9-2.5,31.8-3.8,47.7c-1.1,13.1-2.1,26.2-3.3,39.2
	c-1.2,14.1-2.5,28.1-3.7,42.2c-1.1,12.7-2.1,25.5-3.3,38.2c-1.9,20.8-3.8,41.7-5.9,62.5c-1.9,18.3-4.9,36.5-5.9,54.9
	c-1,17.7-0.3,35.5-0.2,53.3c0.4,55.8,0.9,111.6,1.3,167.4c0,2.6,0.2,5.2,1.4,7.8c4.8-20,9.6-40,14.4-60.1
	c15.6-64.5,31.3-128.9,46.6-193.4C246,188.2,263,115.6,280.1,43c3.3-14,6.6-28,9.9-42c0.3,0,0.7,0,1,0c-2.8,12.8-5.4,25.6-8.4,38.3
	c-14.5,61.7-29,123.3-43.6,184.9c-13.7,57.6-27.7,115.1-41.6,172.7c-10,41.6-20,83.3-30,124.9c-0.6,2.5-0.6,5.3-0.6,7.9
	c0.5,71.5,1.3,142.9,1.4,214.4c0,17.4-2,34.9-3,52.3c-0.8,12.4-1.5,24.9-2.2,37.3c-1.2,19.7-2.6,39.5-3.8,59.2
	c-0.2,2.7-0.1,5.3-0.2,8c-0.7,0-1.3,0-2,0c1.3-19.4,2.7-38.8,4-58.2c0.9-13.4,1.5-26.9,2.3-40.4c1.2-18.8,3.5-37.5,3.5-56.3
	c-0.2-69.8-1.1-139.6-1.8-209.5c0-0.5-0.1-1-0.2-1.5c-1.5,3.7-2.3,7.4-3.2,11c-7.6,28.5-13,57.5-16.7,86.7
	c-2,15.8-4.2,31.5-6.2,47.3c-2,16.1-4,32.3-5.7,48.4c-1.9,17.8-3.4,35.7-5.3,53.5c-2.2,21.5-4.5,42.9-6.8,64.4
	c-1.9,18.1-4,36.3-6,54.4C114.7,901,114.3,901,114,901z M82,371.4c-0.2,0-0.5,0-0.7,0c-1.1,8.8-2.2,17.7-3.3,26.5
	c-1.8,14.3-3.7,28.6-5.5,42.9c-1.6,13.3-3.3,26.7-4.5,40c-1.4,15.7-2.2,31.5-3.3,47.3c-1.2,17.6-2.5,35.1-3.7,52.7
	c-0.8,11.3-1.5,22.6-2.2,33.8c-1.2,17.6-2.5,35.1-3.8,52.7c-0.9,12.3-1.9,24.5-2.8,36.8c-0.6,8.2-0.9,16.4-1.4,24.6
	c2.8-18.9,4.5-37.9,6.4-56.9c2.5-25.1,5.2-50.2,7.8-75.3c2.4-23.3,4.7-46.6,7-69.9c2.5-26.1,5.3-52.2,7-78.4
	c1.6-24.1,2.1-48.2,3-72.3C82.1,374.5,82,373,82,371.4z M82.1,309.4c-3.6,39.1-7.1,78.3-10.7,117.4
	C80.8,376.2,84.7,331.9,82.1,309.4z M76.4,584.1c-0.3,0-0.7,0-1,0c-1.6,56.4-3.1,112.9-4.7,169.3c0.4,0,0.9,0,1.3,0
	C73.5,697,74.9,640.6,76.4,584.1z M84.2,324.9c0.6,0,1.1,0,1.7,0.1c0.8-22.5,1.6-44.9,2.4-67.4c-0.6,0-1.3,0-1.9-0.1
	C85.7,280,85,302.5,84.2,324.9z M76.3,577.7c0.2,0,0.4,0.1,0.5,0.1c0-9.9,0-19.8,0-29.7c-0.2,0-0.4,0-0.5,0
	C76.3,558,76.3,567.9,76.3,577.7z M77.8,516c-0.2,0-0.4,0-0.6,0c0,7.9,0,15.8,0,23.8c0.2,0,0.4,0,0.6,0
	C77.8,531.8,77.8,523.9,77.8,516z"/>
<path opacity="5.000000e-02" fill="#6DC6D7" d="M1364,1c-10.1,26.6-20,53.3-30.5,79.8c-32,80.3-59.3,162.3-87.5,244
	c-0.7,2-0.9,4.2-1,6.3c-0.1,12.8,0.4,25.7-0.2,38.5c-0.9,22.8-2.5,45.5-3.7,68.3c-0.7,12.1-1.4,24.2-2.1,36.4
	c-1.1,20.6-2.1,41.2-3.1,61.8c-0.1,1.1,0,2.3,0.7,3.5c1.5-8.1,2.8-16.2,4.4-24.3c8.2-40.4,15.3-81,25-121
	c21.7-89.9,44.6-179.4,67-269.1c10.3-41.3,22.8-81.9,37.4-121.9c0.3-0.8,0.4-1.6,0.6-2.4c0.7,0.3,1.3,0.7,2,1
	c-5.3,14.9-11.4,29.6-15.9,44.8c-10.1,34.1-20.1,68.2-28.9,102.6c-18.4,71.4-36.7,142.8-53.7,214.5c-11.3,47.8-20.6,96-30.5,144.2
	c-3.8,18.5-6.7,37.1-9.7,55.7c-1,6.2-0.9,12.6-1.2,18.9c-1.7,29.1-3.3,58.1-4.9,87.2c-1,17.9-1.9,35.9-3.2,53.8
	c-1.5,21.7-3.2,43.4-4.8,65.1c-1.1,14.9-1.9,29.8-3.2,44.7c-1.4,16.5-3.1,33.1-4.6,49.6c-0.5,5.9-0.9,11.9-1.3,17.9
	c-0.7,0-1.3,0-2,0c1.3-13,2.8-26.1,4-39.1c1.2-13.9,2.2-27.8,3.3-41.7c1.2-15.6,2.6-31.1,3.7-46.7c1.2-17.2,2.2-34.5,3.3-51.8
	c1.3-19.6,2.6-39.1,3.8-58.7c1-14.8,1.9-29.5,2.8-44.3c0.6-10.1,0.9-20.2,1.4-30.3c-1.1,1.5-1.2,3.1-1.5,4.6
	c-3.3,21.1-6.5,42.2-9.8,63.3c-3.2,20.1-6.4,40.2-9.6,60.3c-3.5,21.7-6.9,43.5-10.4,65.2c-3.1,19.8-6.3,39.6-9.4,59.4
	c-3.2,19.9-6.4,39.9-9.6,59.8c-0.7,0-1.3,0-2,0c1.7-9.6,3.5-19.2,5-28.8c3.6-22.1,7.1-44.1,10.6-66.2c3.2-19.8,6.2-39.6,9.4-59.4
	c2.8-17.5,5.6-35,8.3-52.5c2.9-18.5,5.8-37,8.6-55.5c3.5-22.4,7.1-44.8,10.4-67.3c1.3-8.9,2.1-17.8,2.6-26.7
	c1.5-27.1,3-54.2,4.2-81.3c1.9-41.6,3.6-83.1,5.4-124.7c0.1-1.3,0-2.6-1-4.1c-2.7,7.7-5.5,15.3-8,23c-23.4,72.6-52.5,143-80.4,213.9
	c-10.5,26.7-17.7,54.7-26.8,82c-26.5,79.1-53.1,158.1-79.8,237.2c-1.2,3.4-2.4,6.9-3.6,10.3c-0.3,0-0.7,0-1,0
	c0.4-1.8,0.7-3.6,1.2-5.3c29.5-87.9,59-175.7,88.4-263.5c2.7-8.1,5.1-16.3,7.6-24.4c-1.7,1.4-2.6,3.1-3.3,4.9
	c-13.4,33-25.9,66.4-40.2,99c-20.1,45.5-41.5,90.4-62.3,135.6c-8.2,17.9-16.3,35.9-24.5,53.8c-0.7,0-1.3,0-2,0
	c27-58.6,54.7-116.9,80.9-175.8c18.4-41.5,34.6-83.9,52-125.8c16-38.4,26.5-78.7,39.6-118.1c20.7-62.5,41.3-125.1,61.9-187.6
	c0.8-2.5,1.5-5.1,1.5-7.7c0.1-94.1,0.1-188.3,0.2-282.4c0-0.8-0.1-1.7-0.1-2.5c0.7,0,1.3,0,2,0c-0.1,69.8-0.2,139.6-0.4,209.5
	c0,24.3,0,48.6,0,72.9c0.3-0.7,0.9-1.7,1.3-2.8c24.1-71.3,48.4-142.6,72.3-214c7-20.9,12.6-42.2,18.9-63.2c0.2-0.8,0.6-1.5,0.9-2.3
	c0.3,0,0.7,0,1,0c-0.1,0.8,0,1.7-0.3,2.5c-5.8,19.5-11,39.2-17.4,58.5c-24.7,73.9-49.8,147.7-74.8,221.6c-2.5,7.5-3.6,28.3-1.8,36.8
	c0.5-1.5,1-2.7,1.4-3.9c32.5-95.7,66.4-190.8,103.7-284.7c4-10.1,7.5-20.5,11.2-30.7C1362.7,1,1363.3,1,1364,1z M1162.3,541.7
	c0.4,0.2,0.9,0.5,1.3,0.7c0.5-1.2,1-2.4,1.5-3.6c26.2-61.4,48.5-124.3,70.2-187.4c6.2-18,10.5-35.7,7.1-55.1
	C1215.7,378.1,1189,459.9,1162.3,541.7z"/>
<path opacity="5.000000e-02" fill="#6DC6D7" d="M1148,1c-7.4,28.5-15.3,56.9-22,85.5c-6.6,28.2-12.1,56.6-18,84.9
	c-8.6,41.3-17.1,82.6-25.7,123.9c-7.7,37.4-15.5,74.8-23.1,112.3c-1.8,9-2.9,18.3-3.4,27.6c2.2-7.3,4.4-14.5,6.5-21.8
	c14.7-50,28.9-100,44.1-149.8c11.4-37.4,23.7-74.5,36.1-111.6c16.3-48.8,33-97.5,49.5-146.3c0.5-1.5,0.7-3.2,1-4.8c0.7,0,1.3,0,2,0
	c-10.8,32.2-21.8,64.2-32.4,96.5c-17.5,53.1-35,106.2-51.8,159.6c-3.7,11.8-4.2,24.7-5.8,37.2c-1.8,14.7-3.2,29.4-4.7,44.1
	c-1.4,13.4-2.8,26.7-4.4,40.1c-1.8,16-3.8,32-5.7,47.9c-1.4,11.9-2.7,23.7-4.3,35.6c-2,14.8-4.2,29.5-6.5,44.3
	c-3.1,20.1-6.3,40.2-9.5,60.4c-3.3,20.6-6.5,41.2-9.8,61.8c-3,19.3-5.7,38.7-9.2,57.9c-4.4,24.4-9.5,48.7-14.4,73
	c-6.1,30.5-12.2,61-18.7,91.4c-3.6,16.8-7.9,33.5-11.9,50.2c-0.3,0-0.7,0-1,0c3.4-14.8,6.9-29.6,10.1-44.5
	c5.8-27.3,11.4-54.7,16.9-82.1c5.9-28.9,11.9-57.7,17.3-86.6c3.4-17.9,5.9-36,8.7-54c3.2-20.3,6.3-40.6,9.5-60.9
	c3.2-20.3,6.4-40.6,9.6-60.9c2.2-13.9,4.6-27.8,6.6-41.7c1.7-12.3,2.9-24.7,4.4-37c1.9-15.6,3.8-31.3,5.6-46.9
	c1.5-13.2,2.9-26.4,4.4-39.6c1.6-14.9,3.2-29.7,4.7-44.6c0.8-7.9,1.6-15.8,1.2-23.9c-3,12.2-6.3,24.3-8.9,36.5
	c-10.9,50.5-21.3,101-32.4,151.4c-10.3,46.7-21.1,93.3-31.7,139.9c-4.8,21.1-10.1,42.2-14.3,63.4c-3.5,17.7-5.9,35.6-8.7,53.5
	c-3.2,19.8-6.3,39.6-9.4,59.4c-3.2,19.8-6.4,39.6-9.6,59.3c-2.9,18.3-5.9,36.6-8.8,54.9c-0.2,1.5-0.2,3-0.2,4.5c-0.7,0-1.3,0-2,0
	c2.4-15.4,4.8-30.7,7.3-46.1c3.5-22.1,7.2-44.1,10.7-66.2c3.6-22.4,7.2-44.8,10.7-67.2c0.9-5.9,1.7-11.8,2.5-17.7
	c-2.8,7.4-4.6,14.9-6.3,22.4c-10.1,43.5-20.1,87-30.5,130.4c-3.6,14.9-8.3,29.6-12.5,44.4c-0.7,0-1.3,0-2,0
	c7-26.2,14.5-52.3,20.9-78.6c11.9-49.2,23.4-98.5,34.4-147.9c4-18,6.6-36.4,9.7-54.7c3.6-21.6,7.2-43.1,10.7-64.7
	c3.5-21.4,6.9-42.8,10.4-64.3c0.9-5.9,2-11.7,2.2-17.8c-2.6,8.6-5.1,17.2-7.8,25.8c-17.1,54.3-34.1,108.6-51.5,162.8
	c-25.6,79.4-51.5,158.7-77.3,238c-0.2,0.5-0.4,0.9-0.6,1.4c-0.3,0-0.7,0-1,0c4.3-13.7,8.6-27.4,13-41.1
	c31.6-97.6,63.5-195.1,94.9-292.7c11.7-36.5,22.7-73.3,33.2-110.2c3.5-12.2,4.6-25,6.9-37.6c4.1-21.4,8.1-42.9,12.5-64.3
	c8.1-39.5,16.4-79,24.6-118.6c8.9-42.7,17.1-85.6,26.7-128.2c7.8-34.7,17.2-69,25.8-103.5c0.3-1.3,0.3-2.6,0.5-3.9
	C1146.7,1,1147.3,1,1148,1z M1022.9,630c0.5,0.1,1,0.3,1.5,0.4c22.5-101.7,45.1-203.3,67.6-305c-0.6-0.1-1.1-0.3-1.7-0.4
	c-4.3,14.3-8.6,28.7-12.8,43c-8.6,29.2-18.4,58.1-25.5,87.6c-6,24.9-8.8,50.5-13,75.8c-3.6,21.6-7.1,43.1-10.6,64.7
	C1026.5,607.4,1024.7,618.7,1022.9,630z"/>
<path opacity="5.000000e-02" fill="#6DC6D7" d="M967,1c-14.3,51.8-28.3,103.7-45.3,154.7c-9.3,27.9-18.2,56-27.2,84.1
	c-0.3,0.9-0.3,1.9,0.3,3.2c4.4-7.7,8.9-15.4,13.3-23c40.7-71.2,81.4-142.5,122.1-213.7c1-1.7,1.9-3.5,2.9-5.2c0.7,0,1.3,0,2,0
	c-28.7,50.1-57.4,100.3-86.1,150.4c-19.1,33.4-38.7,66.6-57.1,100.4c-5.5,10-8.2,21.6-11.7,32.6c-19.4,60-39.2,119.8-57.8,180
	c-10.7,34.7-19.5,70.1-29.1,105.2c-21.5,79-43.2,157.9-64.2,237c-4.5,17.1-6.8,34.7-9.9,52.2c-2.1,12.1-3.9,24.2-5.7,36.3
	c-0.3,2-0.2,4-0.3,6c-0.7,0-1.3,0-2,0c6.9-53.4,18.5-105.8,33.1-157.7c25.5-91.1,49.6-182.6,75.2-273.7
	c10.4-37.1,23.3-73.5,35.1-110.2c10-31.2,20.1-62.4,30.2-93.5c0.1-0.4,0.2-0.9-0.3-1.7c-5.8,9.8-11.7,19.5-17.4,29.3
	c-57.2,98.7-114.5,197.4-171.4,296.3c-14.3,24.9-30.6,48.3-48,71c-0.9,1.1-1.9,2.1-4,2.9c0.2-1.4,0-3,0.5-4.3
	c14.7-37.6,21.2-77.5,31.6-116.3c7.9-29.2,17.4-58,26.7-86.8c24.5-76.4,45.4-153.9,66.9-231.2c11.2-40.1,22.8-80.2,33.3-120.5
	C811.2,70.3,818.8,35.6,827,1c0.7,0,1.3,0,2,0c-3.6,14.4-7.5,28.8-10.6,43.3c-11.2,50.9-25.5,101-39.5,151.2
	c-16.3,58.5-32,117.1-49.1,175.3c-15.7,53.5-33.2,106.4-49,159.9c-8,27.3-13.7,55.2-20.9,82.7c-3.8,14.2-8.8,28.1-13.2,42.1
	c-0.3,0.9-0.5,1.8,0,3.4c1-1.3,2.1-2.5,3.1-3.8c24.2-30.4,43.3-64.2,62.4-97.9c56.5-99.7,113.6-199.1,172.6-297.4
	c5.6-9.3,8.2-20.5,11.7-31c13.8-42.3,27.8-84.6,40.8-127.1c9.9-32.4,18.6-65.2,27.7-97.9c0.3-0.9,0.1-2,0.2-3C965.7,1,966.3,1,967,1
	z"/>
<path opacity="5.000000e-02" fill="#6DC6D7" d="M507,1c-15,33.6-30.3,67-44.9,100.8c-10.1,23.4-20.1,46.9-28.9,70.9
	c-9.7,26.6-18,53.6-26.8,80.5c-14.5,44.4-29.7,88.5-43.1,133.2c-19.9,66.5-38.9,133.4-57.3,200.3c-23.2,84.5-45.5,169.3-68.1,253.9
	c-5.4,20.1-10.7,40.3-16,60.4c-0.7,0-1.3,0-2,0c4.4-15.9,8.8-31.9,13-47.8c37.1-139.5,74.2-279,114.5-417.7
	c22.4-77.4,48.8-153.5,72.9-230.4c13-41.5,31-81,47.5-121.1c11.5-28,24.6-55.4,37-83.1C505.7,1,506.3,1,507,1z"/>
<path opacity="5.000000e-02" fill="#6DC6D7" d="M741,901c3.7-10.9,7.2-21.9,11.1-32.8c31.2-88.3,62-176.9,94-264.9
	c33.1-91.2,67.9-181.8,101.2-272.9c10-27.3,17.5-55.5,25.7-83.5c23.9-82,49.5-163.4,77.8-243.9c0.2-0.6,0.2-1.3,0.3-1.9
	c0.7,0,1.3,0,2,0c-10.3,30.4-21.3,60.6-30.9,91.2c-18.9,60.1-37.8,120.3-55.4,180.8c-17.4,59.7-40,117.5-61.9,175.6
	c-56,148.1-108,297.6-160.9,446.8c-0.7,1.9-1.3,3.7-2,5.6C741.7,901,741.3,901,741,901z"/>
<path opacity="5.000000e-02" fill="#6DC6D7" d="M1,846c0.3-5,0.9-9.9,1-14.9c0.4-34.6,0.4-69.3,1.2-103.9
	c0.8-31.9,2.5-63.9,3.7-95.8c0.8-21.1,1.6-42.3,2-63.4c0.8-40.6,1.1-81.3,2.2-121.9c3.8-133.9,4.4-267.8,5.1-401.7
	C16.4,30,16.8,15.5,17,1c0.3,0,0.7,0,1,0c-0.5,80.3-1,160.7-1.7,241c-0.3,32-0.7,64-1.4,96c-1.2,59.6-2.6,119.3-3.9,178.9
	c-0.4,17.5-0.6,35-1.1,52.5c-1.2,38.3-2.6,76.6-3.9,114.8c-0.8,23.6-1.6,47.3-2,70.9C3.5,792.3,3.2,829.4,3,866.6
	C3,878,3.7,889.5,4,901c-0.3,0-0.7,0-1,0c-0.3-9.1-0.6-18.2-1-27.3c-0.1-2.6-0.6-5.2-1-7.7C1,859.3,1,852.7,1,846z"/>
</svg>
