<?xml version="1.0" encoding="utf-8"?>
<!-- Generator: Adobe Illustrator 18.0.0, SVG Export Plug-In . SVG Version: 6.00 Build 0)  -->
<!DOCTYPE svg PUBLIC "-//W3C//DTD SVG 1.1//EN" "http://www.w3.org/Graphics/SVG/1.1/DTD/svg11.dtd">
<svg version="1.1" xmlns="http://www.w3.org/2000/svg" xmlns:xlink="http://www.w3.org/1999/xlink" x="0px" y="0px"
	 viewBox="0 0 511.8 101.7" enable-background="new 0 0 511.8 101.7" xml:space="preserve">
<pattern  x="-544.4" y="509.6" width="74.3" height="71.1" patternUnits="userSpaceOnUse" id="New_Pattern_Swatch_3" viewBox="0 -71.1 74.3 71.1" overflow="visible">
	<g>
		<polygon fill="none" points="0,0 74.3,0 74.3,-71.1 0,-71.1 		"/>
		<polygon fill="#DFF4F5" points="74.3,0 0,0 0,-71.1 74.3,-71.1 		"/>
	</g>
</pattern>
<g id="Bacground">
</g>
<g id="ICONS" display="none">
</g>
<g id="Line_work">
</g>
<g id="Logo">
	<g>
		<g>
			<path fill="url(#New_Pattern_Swatch_3)" d="M123.6,45.3c0,1.3-0.4,2.5-1.3,3.6c-0.8,1.1-1.9,2-3.1,2.8c-1.3,0.7-2.6,1.3-4.1,1.7
				c-1.5,0.4-2.8,0.6-4,0.6H10.5c-0.7,0-1.7-0.3-2.9-0.9c-1.2-0.6-2.3-1.4-3.4-2.3C3.1,50,2.1,49,1.3,48C0.4,47,0,46.1,0,45.3V8.9
				c0-0.6,0.4-1.5,1.1-2.4c0.7-1,1.7-2,2.9-2.9c1.2-1,2.5-1.8,3.9-2.5c1.4-0.7,2.9-1,4.3-1h72.5v9.8H31.1c-0.5,0-1,0.3-1.6,1
				c-0.6,0.7-1.2,1.5-1.8,2.3c-0.6,0.8-1.1,1.6-1.5,2.4c-0.4,0.7-0.6,1.2-0.6,1.3v20.8c0,0.7,0.2,1.3,0.6,2.1c0.4,0.7,0.9,1.4,1.5,2
				c0.6,0.6,1.2,1.1,1.8,1.5c0.7,0.4,1.2,0.6,1.7,0.6h59.3c0.6,0,1.3-0.3,2.1-0.8c0.8-0.6,1.6-1.2,2.4-1.9c0.7-0.7,1.4-1.4,1.9-2.1
				c0.5-0.7,0.8-1.2,0.8-1.5V0h13.7c0.7,0,1.8,0.2,3.2,0.6c1.4,0.4,2.8,1,4.1,1.8c1.3,0.8,2.5,1.7,3.6,2.9c1,1.1,1.5,2.4,1.5,3.9
				V45.3z"/>
			<path fill="url(#New_Pattern_Swatch_3)" d="M255.8,0v54.1h-36.3L160.7,18v36.1h-28.5V0h35l62.9,38.8V0H255.8z"/>
			<path fill="url(#New_Pattern_Swatch_3)" d="M264.5,0h27.9v17.9c0.2,0.7,0.5,1.3,0.8,1.7c0.4,0.4,0.8,0.8,1.3,1.2h59.8V0H380v43.8
				c0,1.1-0.4,2.3-1.1,3.5c-0.7,1.2-1.7,2.3-2.9,3.3c-1.2,1-2.5,1.9-3.9,2.5c-1.4,0.7-2.9,1-4.3,1H264.5v-11h87.7
				c0.9-0.6,1.6-1.7,2.1-3.3v-5.6c-0.5-0.7-1.2-1.5-2.1-2.4h-75.6c-2.5,0-5-0.9-7.5-2.8c-2.5-1.9-4-4.4-4.7-7.5V0z"/>
			<path fill="url(#New_Pattern_Swatch_3)" d="M388.6,54.1l43.8-27.1L388.9,0h35L450,16.3L476.1,0h35.6l-43.9,27.1l44.1,27.1h-35.6
				L450,37.8l-26.2,16.3H388.6z"/>
		</g>
		<g>
			<path fill="#C12732" d="M354.5,82.1h1v19.5h-1V82.1z M358.4,82.1h1.5v19.5h-1.5V82.1z M362.3,82.1h2v19.5h-2V82.1z M366.2,82.1
				h2.4v19.5h-2.4V82.1z M370.1,82.1h3.4v19.5h-3.4V82.1z M376,82.1h11.7c0.6,0,1.4,0.1,2.1,0.4c0.8,0.3,1.4,0.7,1.8,1.1
				c0.5,0.5,0.8,1,1.1,1.6c0.3,0.6,0.4,1.2,0.4,1.9c0.1,1-0.1,1.9-0.4,2.7c-0.3,0.8-0.8,1.5-1.4,2.2c-0.4,0.4-0.8,0.8-1.3,1
				c-0.5,0.3-1,0.5-1.7,0.6c-0.7,0.1-1.9,0.2-3.6,0.3h-2v-3.4c0.3,0,0.7,0,1.2,0c0.5,0,1.1-0.1,1.6-0.2c0.6-0.2,1-0.4,1.2-0.8
				c0.3-0.4,0.4-0.8,0.4-1.4c0-0.1,0-0.3-0.1-0.6c-0.1-0.3-0.2-0.6-0.4-0.8c-0.2-0.2-0.3-0.3-0.5-0.4c-0.2-0.1-0.5-0.1-1-0.1h-4
				v15.6H376V82.1z"/>
			<path fill="#C12732" d="M395,82.1h12.2c0.7,0,1.3,0.1,1.9,0.4c0.6,0.3,1.1,0.6,1.6,1.1c0.4,0.4,0.8,1,1,1.5
				c0.3,0.6,0.4,1.2,0.4,1.9c0,0.7-0.2,1.3-0.4,1.8c-0.2,0.5-0.5,0.9-0.9,1.3c-0.4,0.4-0.8,0.7-1.2,1c-0.5,0.3-1,0.6-1.5,0.9
				c1,0.4,1.7,0.9,2.3,1.7c0.5,0.7,0.9,1.5,1.2,2.4c0.2,0.9,0.4,1.8,0.4,2.8c0,1,0.1,2,0.1,2.9h-5.9c0-1,0-1.9,0-2.7
				c0-0.8-0.1-1.5-0.3-2.1c-0.2-0.6-0.4-1.1-0.8-1.6c-0.3-0.4-0.8-0.8-1.3-1c-0.3-0.1-0.7-0.1-1.1-0.2c-0.2,0-0.4-0.1-0.6-0.1
				c-0.1,0-0.3-0.1-0.3-0.1v-3.4c0.3,0,0.7,0,1.2,0c0.5,0,1-0.1,1.5-0.3c0.5-0.2,0.9-0.5,1.2-0.8c0.3-0.3,0.5-0.7,0.5-1.3
				c0-0.1,0-0.3-0.1-0.6c-0.1-0.3-0.2-0.6-0.4-0.8c-0.2-0.2-0.3-0.3-0.5-0.4c-0.2-0.1-0.5-0.1-1-0.1h-4v15.6H395V82.1z"/>
			<path fill="#C12732" d="M423.9,82.1c0.7,0,1.7,0.1,2.8,0.3c0.5,0.1,1,0.3,1.5,0.5c0.5,0.2,0.9,0.4,1.3,0.7
				c0.8,0.5,1.4,1.1,1.9,1.9c0.5,0.7,0.8,1.6,1.1,2.8c0,0.4,0.1,0.8,0.1,1.2c0,0.4,0.1,0.8,0.1,1.2c0.1,0.8,0.1,1.6,0.1,2.3
				c0,0.7-0.2,1.6-0.3,2.6c-0.3,1.2-0.7,2.2-1.1,2.9c-0.4,0.7-1.1,1.3-1.9,1.9c-0.9,0.5-1.9,0.9-2.9,1.1c-0.6,0.1-1,0.2-1.5,0.3
				c-0.4,0-0.8,0.1-1.1,0.1h-0.8c-0.7,0-1.6-0.1-2.7-0.3c-1.1-0.2-2-0.6-2.9-1.1c-0.9-0.5-1.5-1.1-1.9-1.9c-0.4-0.7-0.8-1.7-1.1-2.9
				c-0.2-1-0.3-1.9-0.3-2.6c0-0.7,0-1.5,0-2.3c0.1-0.8,0.1-1.6,0.2-2.3c0.3-1.1,0.7-2.1,1.1-2.8c0.5-0.7,1.1-1.3,1.9-1.9
				c0.4-0.3,0.9-0.5,1.3-0.7c0.4-0.2,0.9-0.3,1.4-0.5c1.1-0.2,1.9-0.3,2.5-0.3H423.9z M423.4,85.9c-0.2,0-0.5,0-0.9,0.1
				c-0.3,0.1-0.7,0.2-1,0.3c-0.3,0.1-0.6,0.3-0.8,0.6c-0.1,0.1-0.2,0.3-0.3,0.4c-0.1,0.1-0.2,0.3-0.3,0.5c-0.1,0.2-0.2,0.4-0.3,0.6
				c-0.1,0.2-0.2,0.5-0.3,0.9c0,0.8-0.1,1.4-0.1,2c0,0.5,0,0.9,0,1.1c0,0.5,0,0.9,0.1,1.4c0.1,0.5,0.2,1,0.5,1.6
				c0.3,0.7,0.8,1.3,1.3,1.7c0.6,0.4,1.2,0.6,1.8,0.6h0.4c0.6,0,1.2-0.2,1.8-0.6c0.6-0.4,1.1-1,1.4-1.7c0.1-0.3,0.2-0.6,0.2-0.8
				c0.1-0.3,0.1-0.5,0.1-0.8c0-0.2,0.1-0.5,0.1-0.7c0-0.2,0-0.5,0-0.7c0-0.2,0-0.6,0-1.1c0-0.5-0.1-1.2-0.1-2
				c-0.2-0.6-0.4-1.2-0.6-1.5c-0.2-0.4-0.4-0.6-0.6-0.9c-0.4-0.3-0.8-0.6-1.3-0.7C424.2,86,423.7,85.9,423.4,85.9z"/>
			<path fill="#C12732" d="M447.8,83.9v-1.8h5.1v9.7c0,0.7-0.1,1.4-0.1,2.1c-0.1,0.6-0.1,1.2-0.2,1.7c-0.2,0.6-0.3,1.2-0.5,1.6
				c-0.2,0.5-0.4,0.9-0.6,1.3c-0.2,0.4-0.5,0.7-0.8,1c-0.3,0.3-0.7,0.6-1.1,0.8c-0.8,0.5-1.7,0.8-2.8,1.1c-1.1,0.2-2.1,0.3-3.1,0.3
				h0.2c-1,0-2.1-0.1-3.1-0.3c-1-0.2-2-0.6-2.8-1.1c-0.4-0.3-0.8-0.5-1.1-0.8c-0.3-0.3-0.6-0.6-0.8-1c-0.2-0.4-0.4-0.8-0.6-1.3
				c-0.2-0.5-0.3-1-0.5-1.6c-0.1-0.5-0.2-1-0.2-1.7c0-0.6-0.1-1.3-0.1-2.1h5.1c0,0.9,0.1,1.6,0.1,2.1c0,0.3,0.1,0.5,0.2,0.8
				c0.1,0.3,0.2,0.5,0.3,0.8c0.3,0.7,0.8,1.3,1.3,1.7c0.6,0.4,1.2,0.6,1.8,0.6h0.5c0.6,0,1.2-0.2,1.8-0.6c0.6-0.4,1.1-1,1.4-1.7
				c0.1-0.3,0.2-0.6,0.2-0.8c0.1-0.3,0.1-0.5,0.1-0.8c0-0.2,0.1-0.5,0.1-0.9c0-0.4,0.1-0.8,0.1-1.3V83.9z"/>
			<path fill="#C12732" d="M455.2,82.1h11.6h4.6V86h-6.8h-4v11.7h4h6.9v3.9h-5.2h-11.1V82.1z M468.2,93.6H462v-1.9v-1.6h8.3v3.4
				H468.2z"/>
			<path fill="#C12732" d="M483.3,82.1c0.7,0,1.7,0.1,2.8,0.3c0.5,0.1,1,0.3,1.5,0.5c0.5,0.2,0.9,0.4,1.3,0.7
				c0.8,0.5,1.4,1.1,1.9,1.9c0.5,0.7,0.8,1.6,1.1,2.8l0,1h-5.4c-0.2-0.6-0.4-1.1-0.6-1.5c-0.2-0.4-0.4-0.6-0.6-0.9
				c-0.3-0.3-0.7-0.6-1.3-0.7c-0.5-0.2-1-0.2-1.3-0.2c-0.2,0-0.5,0-0.9,0.1c-0.3,0.1-0.7,0.2-1,0.3c-0.3,0.1-0.6,0.3-0.8,0.6
				c-0.1,0.1-0.2,0.3-0.3,0.4c-0.1,0.1-0.2,0.3-0.3,0.5c-0.1,0.2-0.2,0.4-0.3,0.6c-0.1,0.2-0.2,0.5-0.3,0.9c0,0.8-0.1,1.4-0.1,2
				c0,0.5,0,0.9,0,1.1c0,0.5,0,0.9,0.1,1.4c0.1,0.5,0.2,1,0.5,1.6c0.3,0.7,0.8,1.3,1.3,1.7c0.6,0.4,1.2,0.6,1.8,0.6h0.4
				c0.6,0,1.2-0.2,1.8-0.6c0.6-0.4,1.1-1,1.4-1.7l0.3-0.9h5.5l0,0.9c-0.3,1.2-0.7,2.2-1.1,2.9c-0.4,0.7-1.1,1.3-1.9,1.8
				c-0.8,0.5-1.8,0.9-2.9,1.1c-1.1,0.2-2.2,0.3-3.2,0.3h0.3c-1,0-2.1-0.1-3.2-0.3c-1.1-0.2-2.1-0.6-2.9-1.1
				c-0.9-0.5-1.5-1.1-1.9-1.9c-0.4-0.7-0.8-1.7-1.1-2.9c-0.2-1-0.3-1.9-0.3-2.6c0-0.7,0-1.5,0-2.3c0-0.8,0.1-1.6,0.3-2.3
				c0.3-1.1,0.7-2.1,1.1-2.8c0.5-0.7,1.1-1.3,1.9-1.9c0.4-0.3,0.9-0.5,1.3-0.7c0.4-0.2,0.9-0.3,1.4-0.5c1.1-0.2,1.9-0.3,2.5-0.3
				H483.3z"/>
			<path fill="#C12732" d="M505.7,82.1h4.6l0.1,0v3.9H505v15.6h-5.4V86.1h-5.5v-3.9H505.7z"/>
		</g>
	</g>
</g>
<g id="ICONS_in_SITU">
</g>
</svg>
