<?xml version="1.0" encoding="utf-8"?>
<!-- Generator: Adobe Illustrator 18.0.0, SVG Export Plug-In . SVG Version: 6.00 Build 0)  -->
<!DOCTYPE svg PUBLIC "-//W3C//DTD SVG 1.1//EN" "http://www.w3.org/Graphics/SVG/1.1/DTD/svg11.dtd">
<svg version="1.1" id="Layer_1" xmlns="http://www.w3.org/2000/svg" xmlns:xlink="http://www.w3.org/1999/xlink" x="0px" y="0px"
	 viewBox="0 0 220.4 49.9" enable-background="new 0 0 220.4 49.9" xml:space="preserve">
<g>
	<path fill="#FFFFFF" d="M1283,529.2c0.5,0,0.7,0.2,0.7,0.7v48.5c0,0.5-0.2,0.7-0.7,0.7h-48.5c-0.5,0-0.7-0.2-0.7-0.7v-48.5
		c0-0.5,0.2-0.7,0.7-0.7H1283z M1235.2,530.6v47.1h47.1v-47.1H1235.2z"/>
	<path fill="#FFFFFF" d="M1292.2,579.1c-0.5,0-0.7-0.2-0.7-0.7v-48.5c0-0.5,0.2-0.7,0.7-0.7c0.5,0,0.7,0.2,0.7,0.7v48.5
		C1292.9,578.9,1292.7,579.1,1292.2,579.1z M1340.8,579.1L1340.8,579.1h-0.1h-0.1h-0.1h-0.1v-0.1h-0.1h-0.1V579c0,0-0.1,0-0.1-0.1
		l-24.3-24.3c-0.3-0.3-0.3-0.6,0-1c0.3-0.3,0.6-0.3,1,0l23.1,23.1v-46.9c0-0.5,0.2-0.7,0.7-0.7c0.5,0,0.7,0.2,0.7,0.7v48.5v0.1v0.1
		v0.1c0,0-0.1,0-0.1,0.1v0.1l-0.1,0.1v0.1h-0.1c0,0,0,0.1-0.1,0.1v0.1h-0.1h-0.1v0.1h-0.1H1340.8L1340.8,579.1z"/>
	<path fill="#FFFFFF" d="M1370.7,558.1c0.3,0.4,0.2,0.7-0.1,1c-0.1,0.1-0.2,0.1-0.4,0.1c-0.2,0-0.4-0.1-0.6-0.3l-20.2-28.6
		c-0.3-0.4-0.2-0.7,0.1-1c0.4-0.2,0.7-0.2,1,0.2L1370.7,558.1z M1374.2,563.5c0.5,0,0.7,0.2,0.7,0.7v14.2c0,0.5-0.2,0.7-0.7,0.7
		s-0.7-0.2-0.7-0.7v-14.2C1373.5,563.8,1373.8,563.5,1374.2,563.5z M1397.9,529.6c0.2-0.4,0.6-0.4,1-0.2c0.4,0.3,0.4,0.6,0.1,1
		l-20.2,28.6c-0.1,0.2-0.3,0.3-0.6,0.3c-0.2,0-0.3,0-0.4-0.1c-0.4-0.3-0.4-0.6-0.1-1L1397.9,529.6z"/>
	<path fill="#FFFFFF" d="M1404.2,578.1l17-24.1l-17-23.7c-0.3-0.4-0.2-0.7,0.1-1c0.4-0.2,0.7-0.2,1,0.1l17.3,24.1v0.1h0.1v0.1v0.1
		h0.1v0.1v0.1v0.1v0.1v0.1v0.1h-0.1v0.1v0.1l-0.1,0.1l-17.3,24.4c-0.1,0.2-0.3,0.3-0.6,0.3c-0.2,0-0.3,0-0.4-0.1
		C1404,578.7,1403.9,578.4,1404.2,578.1z M1454,578.1c0.3,0.3,0.2,0.6-0.1,0.9c-0.1,0.1-0.2,0.1-0.4,0.1c-0.2,0-0.4-0.1-0.6-0.3
		l-17.3-24.4l-0.1-0.1v-0.1v-0.1h-0.1v-0.1v-0.1V554V554v-0.1v-0.1h0.1v-0.1v-0.1h0.1v-0.1l17.3-24.1c0.2-0.3,0.6-0.4,1-0.1
		c0.4,0.3,0.4,0.6,0.1,1l-17,23.7L1454,578.1z"/>
</g>
<g>
	<path fill="#FFFFFF" d="M49.2,0c0.5,0,0.7,0.2,0.7,0.7v48.5c0,0.5-0.2,0.7-0.7,0.7H0.7c-0.5,0-0.7-0.2-0.7-0.7V0.7
		C0,0.2,0.2,0,0.7,0H49.2z M1.4,1.4v47.1h47.1V1.4H1.4z"/>
	<path fill="#FFFFFF" d="M58.4,49.9c-0.5,0-0.7-0.2-0.7-0.7V0.7C57.7,0.2,58,0,58.4,0c0.5,0,0.7,0.2,0.7,0.7v48.5
		C59.1,49.7,58.9,49.9,58.4,49.9z M107,49.9L107,49.9h-0.1h-0.1h-0.1h-0.1v-0.1h-0.1h-0.1v-0.1c0,0-0.1,0-0.1-0.1L82.2,25.4
		c-0.3-0.3-0.3-0.6,0-1c0.3-0.3,0.6-0.3,1,0l23.1,23.1V0.7c0-0.5,0.2-0.7,0.7-0.7c0.5,0,0.7,0.2,0.7,0.7v48.5v0.1v0.1v0.1
		c0,0-0.1,0-0.1,0.1v0.1l-0.1,0.1v0.1h-0.1c0,0,0,0.1-0.1,0.1v0.1h-0.1h-0.1v0.1h-0.1H107L107,49.9z"/>
	<path fill="#FFFFFF" d="M136.9,28.8c0.3,0.4,0.2,0.7-0.1,1c-0.1,0.1-0.2,0.1-0.4,0.1c-0.2,0-0.4-0.1-0.6-0.3L115.6,1.1
		c-0.3-0.4-0.2-0.7,0.1-1c0.4-0.2,0.7-0.2,1,0.2L136.9,28.8z M140.4,34.3c0.5,0,0.7,0.2,0.7,0.7v14.2c0,0.5-0.2,0.7-0.7,0.7
		c-0.5,0-0.7-0.2-0.7-0.7V35C139.8,34.6,140,34.3,140.4,34.3z M164.2,0.4c0.2-0.4,0.6-0.4,1-0.2c0.4,0.3,0.4,0.6,0.1,1l-20.2,28.6
		c-0.1,0.2-0.3,0.3-0.6,0.3c-0.2,0-0.3,0-0.4-0.1c-0.4-0.3-0.4-0.6-0.1-1L164.2,0.4z"/>
	<path fill="#FFFFFF" d="M170.4,48.9l17-24.1l-17-23.7c-0.3-0.4-0.2-0.7,0.1-1c0.4-0.2,0.7-0.2,1,0.1l17.3,24.1v0.1h0.1v0.1v0.1h0.1
		v0.1v0.1v0.1v0.1V25V25h-0.1v0.1v0.1l-0.1,0.1l-17.3,24.4c-0.1,0.2-0.3,0.3-0.6,0.3c-0.2,0-0.3,0-0.4-0.1
		C170.2,49.5,170.1,49.2,170.4,48.9z M220.2,48.9c0.3,0.3,0.2,0.6-0.1,0.9c-0.1,0.1-0.2,0.1-0.4,0.1c-0.2,0-0.4-0.1-0.6-0.3
		l-17.3-24.4l-0.1-0.1v-0.1V25h-0.1V25v-0.1v-0.1v-0.1v-0.1v-0.1h0.1v-0.1v-0.1h0.1v-0.1l17.3-24.1c0.2-0.3,0.6-0.4,1-0.1
		c0.4,0.3,0.4,0.6,0.1,1l-17,23.7L220.2,48.9z"/>
</g>
</svg>
