<?xml version="1.0" encoding="utf-8"?>
<!-- Generator: Adobe Illustrator 18.0.0, SVG Export Plug-In . SVG Version: 6.00 Build 0)  -->
<!DOCTYPE svg PUBLIC "-//W3C//DTD SVG 1.1//EN" "http://www.w3.org/Graphics/SVG/1.1/DTD/svg11.dtd">
<svg version="1.1" id="Isolation_Mode" xmlns="http://www.w3.org/2000/svg" xmlns:xlink="http://www.w3.org/1999/xlink" x="0px"
	 y="0px" viewBox="0 0 91.7 85.7" enable-background="new 0 0 91.7 85.7" xml:space="preserve">
<line fill="none" stroke="#80CCDD" stroke-width="2" stroke-miterlimit="10" x1="1941.2" y1="-841.3" x2="1941.2" y2="-269.3"/>
<line fill="none" stroke="#80CCDD" stroke-width="2" stroke-miterlimit="10" x1="1941.2" y1="-269.3" x2="3145.3" y2="-269.3"/>
<line opacity="0.2" fill="none" stroke="#80CCDD" stroke-width="4" stroke-linecap="round" stroke-miterlimit="10" stroke-dasharray="2,10" x1="1941.2" y1="-749.3" x2="3159.7" y2="-749.3"/>
<line opacity="0.2" fill="none" stroke="#80CCDD" stroke-width="4" stroke-linecap="round" stroke-miterlimit="10" stroke-dasharray="2,10" x1="1941.2" y1="-386.3" x2="3159.7" y2="-386.3"/>
<line opacity="0.2" fill="none" stroke="#80CCDD" stroke-width="4" stroke-linecap="round" stroke-miterlimit="10" stroke-dasharray="2,10" x1="1941.2" y1="-511.3" x2="3159.7" y2="-511.3"/>
<line opacity="0.2" fill="none" stroke="#80CCDD" stroke-width="4" stroke-linecap="round" stroke-miterlimit="10" stroke-dasharray="2,10" x1="3159.7" y1="-625.3" x2="1941.2" y2="-625.3"/>
<g>
	<path fill="#80CCDD" d="M1894.9-759.8v16.5h-1.9v-14.4l-4.2,2.8l-0.9-1.5l5.2-3.5H1894.9z"/>
	<path fill="#80CCDD" d="M1911.2-758.1c-1.5-0.2-3-0.3-4.4-0.3s-2.5,0.5-3.3,1.5c-0.8,1-1.2,2.4-1.2,4.2l0.6-0.2
		c0.4-0.1,1-0.3,1.7-0.5c0.7-0.2,1.3-0.2,1.8-0.2c3.7,0,5.5,1.7,5.5,5.1c0,1.8-0.5,3.1-1.5,4c-1,0.9-2.4,1.4-4.3,1.4
		c-3.9,0-5.9-2.9-5.9-8.6c0-2.9,0.6-5,1.7-6.4c1.1-1.4,2.7-2,4.8-2c1.3,0,2.6,0.1,3.8,0.3l0.7,0.1L1911.2-758.1z M1906.4-751.9
		c-0.6,0-1.2,0.1-1.9,0.2s-1.2,0.3-1.6,0.5l-0.6,0.2c0,1.9,0.3,3.4,1,4.5c0.6,1.1,1.6,1.7,2.9,1.7s2.2-0.3,2.9-1
		c0.6-0.6,1-1.5,1-2.7c0-1.2-0.3-2-1-2.6C1908.5-751.6,1907.6-751.9,1906.4-751.9z"/>
	<path fill="#80CCDD" d="M1917.2-743.3h-1.9v-17.3h1.9v8l2.9-0.1l4.4-7.9h2.2l-5,8.7l5.2,8.6h-2.3l-4.6-7.6l-2.9,0.1V-743.3z"/>
</g>
<g>
	<path fill="#80CCDD" d="M1897.7-638.3v16.5h-1.9v-14.4l-4.2,2.8l-0.9-1.5l5.2-3.5H1897.7z"/>
	<path fill="#80CCDD" d="M1914.2-621.8h-10.6v-1.6l4.8-5.1c0.8-0.9,1.4-1.5,1.8-2c0.4-0.5,0.7-1,1-1.6s0.5-1.2,0.5-1.9
		c0-1.1-0.3-1.8-0.9-2.2c-0.6-0.4-1.5-0.6-2.7-0.6c-1.1,0-2.3,0.1-3.6,0.4l-0.7,0.1l-0.2-1.6c1.6-0.4,3.2-0.7,4.9-0.7s3,0.4,3.8,1.1
		c0.9,0.7,1.3,1.8,1.3,3.4c0,1.2-0.3,2.2-0.8,3.1s-1.4,1.9-2.7,3.1l-4.4,4.5h8.3V-621.8z"/>
	<path fill="#80CCDD" d="M1920-621.8h-1.9v-17.3h1.9v8l2.9-0.1l4.4-7.9h2.2l-5,8.7l5.2,8.6h-2.3l-4.6-7.6l-2.9,0.1V-621.8z"/>
</g>
<g>
	<path fill="#80CCDD" d="M1904.6-522.5c1-0.7,2.5-1.1,4.3-1.1c1.8,0,3.3,0.4,4.4,1.1s1.6,1.8,1.6,3.2c0,1-0.2,1.8-0.6,2.4
		s-1.1,1-2.1,1.5c1,0.5,1.8,1,2.2,1.6c0.5,0.6,0.8,1.5,0.8,2.6c0,3.1-2.1,4.7-6.2,4.7s-6.2-1.5-6.2-4.5c0-1.2,0.2-2.1,0.7-2.7
		s1.2-1.2,2.2-1.7c-0.9-0.5-1.6-1-2-1.5c-0.4-0.6-0.6-1.4-0.6-2.3C1903-520.7,1903.5-521.8,1904.6-522.5z M1904.8-511.4
		c0,2,1.4,3,4.1,3s4.1-1.1,4.1-3.2c0-0.9-0.2-1.5-0.7-2c-0.5-0.4-1.2-0.8-2.2-1.1h-2.6c-0.9,0.2-1.6,0.6-2,1.1
		C1905-512.9,1904.8-512.2,1904.8-511.4z M1912.8-519.1c0-1.9-1.3-2.8-3.9-2.8c-2.6,0-3.9,0.9-3.9,2.8c0,0.7,0.2,1.3,0.6,1.8
		c0.4,0.5,1,0.8,1.9,1.1h2.6c0.9-0.3,1.6-0.6,2-1.1C1912.6-517.8,1912.8-518.3,1912.8-519.1z"/>
	<path fill="#80CCDD" d="M1920-506.8h-1.9v-17.3h1.9v8l2.9-0.1l4.4-7.9h2.2l-5,8.7l5.2,8.6h-2.3l-4.6-7.6l-2.9,0.1V-506.8z"/>
</g>
<g>
	<path fill="#80CCDD" d="M1910.9-382.8v-3.2h-8v-1.5l4.7-11.8h2.1l-4.8,11.6h6v-5.2h1.9v5.2h2.1v1.7h-2.1v3.2H1910.9z"/>
	<path fill="#80CCDD" d="M1920-382.8h-1.9v-17.3h1.9v8l2.9-0.1l4.4-7.9h2.2l-5,8.7l5.2,8.6h-2.3l-4.6-7.6l-2.9,0.1V-382.8z"/>
</g>
<g>
	<path fill="#80CCDD" d="M1891.7-250c0.8-1,1.9-1.4,3.4-1.4s2.6,0.5,3.4,1.4c0.7,1,1.1,2.5,1.1,4.8s-0.4,3.8-1.1,4.7
		c-0.8,0.9-1.9,1.4-3.4,1.4s-2.6-0.5-3.4-1.4s-1.1-2.5-1.1-4.7C1890.6-247.4,1891-249,1891.7-250z M1896.9-248.7c-0.4-0.7-1-1-1.9-1
		s-1.5,0.3-1.9,1c-0.4,0.7-0.6,1.8-0.6,3.4s0.2,2.8,0.6,3.4c0.4,0.6,1,0.9,1.9,0.9s1.5-0.3,1.8-0.9c0.4-0.6,0.6-1.8,0.6-3.4
		S1897.3-248,1896.9-248.7z"/>
	<path fill="#80CCDD" d="M1901.4-249.4v-1.8h7.5v2.4l-4.4,9.7l-1.9-0.5l4.2-9.2v-0.5H1901.4z"/>
	<path fill="#80CCDD" d="M1911.3-243.3v-1.8h5.4v1.8H1911.3z"/>
	<path fill="#80CCDD" d="M1926.6-239.3h-7.7v-1.7l2.9-3c0.9-0.9,1.5-1.6,1.9-2.1c0.4-0.5,0.5-1.1,0.5-1.7c0-0.6-0.2-1.1-0.5-1.3
		c-0.3-0.3-0.9-0.4-1.7-0.4c-0.7,0-1.6,0.1-2.5,0.3l-0.4,0.1l-0.1-1.6c1.2-0.3,2.4-0.5,3.6-0.5c2.5,0,3.7,1.1,3.7,3.3
		c0,0.9-0.2,1.6-0.6,2.2c-0.4,0.6-1.1,1.4-2,2.3l-2.5,2.5h5.4V-239.3z"/>
	<path fill="#80CCDD" d="M1932.3-240.9c1.8,0,2.7-1.2,2.8-3.5l-0.4,0.1c-0.9,0.3-1.6,0.5-2.2,0.5c-1.3,0-2.3-0.3-3-0.9
		c-0.7-0.6-1-1.5-1-2.8c0-1.2,0.4-2.2,1.1-2.9c0.8-0.7,1.8-1.1,3.1-1.1c1.5,0,2.6,0.5,3.3,1.6c0.7,1.1,1.1,2.6,1.1,4.7
		c0,2.1-0.4,3.6-1.2,4.5c-0.8,0.9-2,1.4-3.6,1.4c-0.9,0-1.9-0.1-2.9-0.3l-0.5-0.1l0.2-1.6C1930.2-241,1931.3-240.9,1932.3-240.9z
		 M1932.6-245.5c0.7,0,1.4-0.1,2.1-0.4l0.4-0.1c0-2.4-0.8-3.7-2.4-3.7c-0.7,0-1.2,0.2-1.6,0.6s-0.6,0.9-0.6,1.6
		C1930.5-246.1,1931.2-245.5,1932.6-245.5z"/>
	<path fill="#80CCDD" d="M1939-243.3v-1.8h5.4v1.8H1939z"/>
	<path fill="#80CCDD" d="M1954.4-239.3h-7.7v-1.7l2.9-3c0.9-0.9,1.5-1.6,1.9-2.1c0.4-0.5,0.5-1.1,0.5-1.7c0-0.6-0.2-1.1-0.5-1.3
		c-0.3-0.3-0.9-0.4-1.7-0.4c-0.7,0-1.6,0.1-2.5,0.3l-0.4,0.1l-0.1-1.6c1.2-0.3,2.4-0.5,3.6-0.5c2.5,0,3.7,1.1,3.7,3.3
		c0,0.9-0.2,1.6-0.6,2.2c-0.4,0.6-1.1,1.4-2,2.3l-2.5,2.5h5.4V-239.3z"/>
	<path fill="#80CCDD" d="M1957.3-250c0.8-1,1.9-1.4,3.4-1.4s2.6,0.5,3.4,1.4c0.7,1,1.1,2.5,1.1,4.8s-0.4,3.8-1.1,4.7
		c-0.8,0.9-1.9,1.4-3.4,1.4s-2.6-0.5-3.4-1.4s-1.1-2.5-1.1-4.7C1956.1-247.4,1956.5-249,1957.3-250z M1962.5-248.7
		c-0.4-0.7-1-1-1.9-1s-1.5,0.3-1.9,1c-0.4,0.7-0.6,1.8-0.6,3.4s0.2,2.8,0.6,3.4c0.4,0.6,1,0.9,1.9,0.9s1.5-0.3,1.8-0.9
		c0.4-0.6,0.6-1.8,0.6-3.4S1962.9-248,1962.5-248.7z"/>
	<path fill="#80CCDD" d="M1973-251.2v11.9h-2v-9.6l-2.8,1.8l-0.9-1.5l3.9-2.6H1973z"/>
	<path fill="#80CCDD" d="M1981.8-239.3v-2.1h-5.3v-1.5l3.1-8.2h2.2l-3.3,8h3.3v-3.5h2v3.5h1.3v1.7h-1.3v2.1H1981.8z"/>
</g>
<g>
	<path fill="#80CCDD" d="M2084.5-250c0.8-1,1.9-1.4,3.4-1.4s2.6,0.5,3.4,1.4c0.7,1,1.1,2.5,1.1,4.8s-0.4,3.8-1.1,4.7
		c-0.8,0.9-1.9,1.4-3.4,1.4s-2.6-0.5-3.4-1.4s-1.1-2.5-1.1-4.7C2083.4-247.4,2083.7-249,2084.5-250z M2089.7-248.7
		c-0.4-0.7-1-1-1.9-1s-1.5,0.3-1.9,1c-0.4,0.7-0.6,1.8-0.6,3.4s0.2,2.8,0.6,3.4c0.4,0.6,1,0.9,1.9,0.9s1.5-0.3,1.8-0.9
		c0.4-0.6,0.6-1.8,0.6-3.4S2090.1-248,2089.7-248.7z"/>
	<path fill="#80CCDD" d="M2094.2-249.4v-1.8h7.5v2.4l-4.4,9.7l-1.9-0.5l4.2-9.2v-0.5H2094.2z"/>
	<path fill="#80CCDD" d="M2104.1-243.3v-1.8h5.4v1.8H2104.1z"/>
	<path fill="#80CCDD" d="M2111.7-250.8c1.1-0.4,2.3-0.6,3.7-0.6s2.3,0.3,2.9,0.8c0.6,0.5,0.9,1.3,0.9,2.4c0,0.5-0.1,0.9-0.3,1.3
		c-0.2,0.4-0.4,0.7-0.6,0.8c-0.2,0.2-0.4,0.4-0.7,0.5c0.6,0.3,1.1,0.6,1.4,1c0.3,0.4,0.4,0.9,0.4,1.7c0,1.3-0.3,2.2-0.9,2.8
		s-1.6,0.9-3,0.9c-0.5,0-1.1,0-1.8-0.1s-1.2-0.2-1.5-0.3l-0.6-0.1l0.1-1.5c1.3,0.2,2.5,0.4,3.5,0.4c1.4,0,2.2-0.6,2.2-1.9
		c0-0.6-0.2-1-0.6-1.3c-0.4-0.3-0.9-0.5-1.5-0.5h-2.4v-1.7h2.4c0.4,0,0.9-0.2,1.2-0.5s0.6-0.8,0.6-1.3s-0.2-0.9-0.5-1.2
		c-0.3-0.3-0.8-0.4-1.4-0.4c-0.9,0-1.9,0.1-2.9,0.3l-0.5,0.1L2111.7-250.8z"/>
	<path fill="#80CCDD" d="M2125.1-240.9c1.8,0,2.7-1.2,2.8-3.5l-0.4,0.1c-0.9,0.3-1.6,0.5-2.2,0.5c-1.3,0-2.3-0.3-3-0.9
		c-0.7-0.6-1-1.5-1-2.8c0-1.2,0.4-2.2,1.1-2.9c0.8-0.7,1.8-1.1,3.1-1.1c1.5,0,2.6,0.5,3.3,1.6c0.7,1.1,1.1,2.6,1.1,4.7
		c0,2.1-0.4,3.6-1.2,4.5c-0.8,0.9-2,1.4-3.6,1.4c-0.9,0-1.9-0.1-2.9-0.3l-0.5-0.1l0.2-1.6C2123-241,2124.1-240.9,2125.1-240.9z
		 M2125.4-245.5c0.7,0,1.4-0.1,2.1-0.4l0.4-0.1c0-2.4-0.8-3.7-2.4-3.7c-0.7,0-1.2,0.2-1.6,0.6s-0.6,0.9-0.6,1.6
		C2123.3-246.1,2124-245.5,2125.4-245.5z"/>
	<path fill="#80CCDD" d="M2131.8-243.3v-1.8h5.4v1.8H2131.8z"/>
	<path fill="#80CCDD" d="M2147.1-239.3h-7.7v-1.7l2.9-3c0.9-0.9,1.5-1.6,1.9-2.1c0.4-0.5,0.5-1.1,0.5-1.7c0-0.6-0.2-1.1-0.5-1.3
		c-0.3-0.3-0.9-0.4-1.7-0.4c-0.7,0-1.6,0.1-2.5,0.3l-0.4,0.1l-0.1-1.6c1.2-0.3,2.4-0.5,3.6-0.5c2.5,0,3.7,1.1,3.7,3.3
		c0,0.9-0.2,1.6-0.6,2.2c-0.4,0.6-1.1,1.4-2,2.3l-2.5,2.5h5.4V-239.3z"/>
	<path fill="#80CCDD" d="M2150-250c0.8-1,1.9-1.4,3.4-1.4s2.6,0.5,3.4,1.4c0.7,1,1.1,2.5,1.1,4.8s-0.4,3.8-1.1,4.7
		c-0.8,0.9-1.9,1.4-3.4,1.4s-2.6-0.5-3.4-1.4s-1.1-2.5-1.1-4.7C2148.9-247.4,2149.3-249,2150-250z M2155.3-248.7c-0.4-0.7-1-1-1.9-1
		s-1.5,0.3-1.9,1c-0.4,0.7-0.6,1.8-0.6,3.4s0.2,2.8,0.6,3.4c0.4,0.6,1,0.9,1.9,0.9s1.5-0.3,1.8-0.9c0.4-0.6,0.6-1.8,0.6-3.4
		S2155.6-248,2155.3-248.7z"/>
	<path fill="#80CCDD" d="M2165.7-251.2v11.9h-2v-9.6l-2.8,1.8l-0.9-1.5l3.9-2.6H2165.7z"/>
	<path fill="#80CCDD" d="M2174.6-239.3v-2.1h-5.3v-1.5l3.1-8.2h2.2l-3.3,8h3.3v-3.5h2v3.5h1.3v1.7h-1.3v2.1H2174.6z"/>
</g>
<g>
	<path fill="#80CCDD" d="M2277.2-250c0.8-1,1.9-1.4,3.4-1.4s2.6,0.5,3.4,1.4c0.7,1,1.1,2.5,1.1,4.8s-0.4,3.8-1.1,4.7
		c-0.8,0.9-1.9,1.4-3.4,1.4s-2.6-0.5-3.4-1.4s-1.1-2.5-1.1-4.7C2276.1-247.4,2276.5-249,2277.2-250z M2282.5-248.7
		c-0.4-0.7-1-1-1.9-1s-1.5,0.3-1.9,1c-0.4,0.7-0.6,1.8-0.6,3.4s0.2,2.8,0.6,3.4c0.4,0.6,1,0.9,1.9,0.9s1.5-0.3,1.8-0.9
		c0.4-0.6,0.6-1.8,0.6-3.4S2282.8-248,2282.5-248.7z"/>
	<path fill="#80CCDD" d="M2287-249.4v-1.8h7.5v2.4l-4.4,9.7l-1.9-0.5l4.2-9.2v-0.5H2287z"/>
	<path fill="#80CCDD" d="M2296.8-243.3v-1.8h5.4v1.8H2296.8z"/>
	<path fill="#80CCDD" d="M2304.5-250.8c1.1-0.4,2.3-0.6,3.7-0.6s2.3,0.3,2.9,0.8c0.6,0.5,0.9,1.3,0.9,2.4c0,0.5-0.1,0.9-0.3,1.3
		c-0.2,0.4-0.4,0.7-0.6,0.8c-0.2,0.2-0.4,0.4-0.7,0.5c0.6,0.3,1.1,0.6,1.4,1c0.3,0.4,0.4,0.9,0.4,1.7c0,1.3-0.3,2.2-0.9,2.8
		s-1.6,0.9-3,0.9c-0.5,0-1.1,0-1.8-0.1s-1.2-0.2-1.5-0.3l-0.6-0.1l0.1-1.5c1.3,0.2,2.5,0.4,3.5,0.4c1.4,0,2.2-0.6,2.2-1.9
		c0-0.6-0.2-1-0.6-1.3c-0.4-0.3-0.9-0.5-1.5-0.5h-2.4v-1.7h2.4c0.4,0,0.9-0.2,1.2-0.5s0.6-0.8,0.6-1.3s-0.2-0.9-0.5-1.2
		c-0.3-0.3-0.8-0.4-1.4-0.4c-0.9,0-1.9,0.1-2.9,0.3l-0.5,0.1L2304.5-250.8z"/>
	<path fill="#80CCDD" d="M2320.7-251.2v11.9h-2v-9.6l-2.8,1.8l-0.9-1.5l3.9-2.6H2320.7z"/>
	<path fill="#80CCDD" d="M2324.6-243.3v-1.8h5.4v1.8H2324.6z"/>
	<path fill="#80CCDD" d="M2339.9-239.3h-7.7v-1.7l2.9-3c0.9-0.9,1.5-1.6,1.9-2.1c0.4-0.5,0.5-1.1,0.5-1.7c0-0.6-0.2-1.1-0.5-1.3
		c-0.3-0.3-0.9-0.4-1.7-0.4c-0.7,0-1.6,0.1-2.5,0.3l-0.4,0.1l-0.1-1.6c1.2-0.3,2.4-0.5,3.6-0.5c2.5,0,3.7,1.1,3.7,3.3
		c0,0.9-0.2,1.6-0.6,2.2c-0.4,0.6-1.1,1.4-2,2.3l-2.5,2.5h5.4V-239.3z"/>
	<path fill="#80CCDD" d="M2342.8-250c0.8-1,1.9-1.4,3.4-1.4s2.6,0.5,3.4,1.4c0.7,1,1.1,2.5,1.1,4.8s-0.4,3.8-1.1,4.7
		c-0.8,0.9-1.9,1.4-3.4,1.4s-2.6-0.5-3.4-1.4s-1.1-2.5-1.1-4.7C2341.7-247.4,2342.1-249,2342.8-250z M2348-248.7c-0.4-0.7-1-1-1.9-1
		s-1.5,0.3-1.9,1c-0.4,0.7-0.6,1.8-0.6,3.4s0.2,2.8,0.6,3.4c0.4,0.6,1,0.9,1.9,0.9s1.5-0.3,1.8-0.9c0.4-0.6,0.6-1.8,0.6-3.4
		S2348.4-248,2348-248.7z"/>
	<path fill="#80CCDD" d="M2358.5-251.2v11.9h-2v-9.6l-2.8,1.8l-0.9-1.5l3.9-2.6H2358.5z"/>
	<path fill="#80CCDD" d="M2367.4-239.3v-2.1h-5.3v-1.5l3.1-8.2h2.2l-3.3,8h3.3v-3.5h2v3.5h1.3v1.7h-1.3v2.1H2367.4z"/>
</g>
<g>
	<path fill="#80CCDD" d="M2470-250c0.8-1,1.9-1.4,3.4-1.4s2.6,0.5,3.4,1.4c0.7,1,1.1,2.5,1.1,4.8s-0.4,3.8-1.1,4.7
		c-0.8,0.9-1.9,1.4-3.4,1.4s-2.6-0.5-3.4-1.4s-1.1-2.5-1.1-4.7C2468.9-247.4,2469.3-249,2470-250z M2475.2-248.7c-0.4-0.7-1-1-1.9-1
		s-1.5,0.3-1.9,1c-0.4,0.7-0.6,1.8-0.6,3.4s0.2,2.8,0.6,3.4c0.4,0.6,1,0.9,1.9,0.9s1.5-0.3,1.8-0.9c0.4-0.6,0.6-1.8,0.6-3.4
		S2475.6-248,2475.2-248.7z"/>
	<path fill="#80CCDD" d="M2480.3-250.6c0.8-0.5,1.8-0.8,3.1-0.8s2.4,0.3,3.2,0.8s1.2,1.3,1.2,2.3c0,0.7-0.1,1.3-0.3,1.6
		c-0.2,0.4-0.6,0.7-1.3,1.1c0.6,0.4,1.1,0.8,1.3,1.2c0.3,0.4,0.4,1,0.4,1.7c0,1.2-0.4,2.1-1.2,2.6s-1.9,0.8-3.3,0.8
		c-3,0-4.5-1.1-4.5-3.2c0-0.8,0.1-1.4,0.4-1.9c0.3-0.4,0.7-0.9,1.3-1.3c-0.6-0.4-1-0.8-1.2-1.2c-0.2-0.4-0.3-0.9-0.3-1.6
		C2479.2-249.3,2479.6-250,2480.3-250.6z M2481.1-242.8c0,1.2,0.8,1.9,2.3,1.9c1.6,0,2.3-0.6,2.3-1.9c0-0.8-0.5-1.4-1.5-1.7h-1.7
		C2481.6-244.2,2481.1-243.6,2481.1-242.8z M2485.6-248c0-1.1-0.7-1.7-2.2-1.7s-2.2,0.6-2.2,1.7c0,0.7,0.4,1.3,1.3,1.7h1.7
		C2485.2-246.7,2485.6-247.2,2485.6-248z"/>
	<path fill="#80CCDD" d="M2489.6-243.3v-1.8h5.4v1.8H2489.6z"/>
	<path fill="#80CCDD" d="M2497.8-250c0.8-1,1.9-1.4,3.4-1.4s2.6,0.5,3.4,1.4c0.7,1,1.1,2.5,1.1,4.8s-0.4,3.8-1.1,4.7
		c-0.8,0.9-1.9,1.4-3.4,1.4s-2.6-0.5-3.4-1.4s-1.1-2.5-1.1-4.7C2496.6-247.4,2497-249,2497.8-250z M2503-248.7c-0.4-0.7-1-1-1.9-1
		s-1.5,0.3-1.9,1c-0.4,0.7-0.6,1.8-0.6,3.4s0.2,2.8,0.6,3.4c0.4,0.6,1,0.9,1.9,0.9s1.5-0.3,1.8-0.9c0.4-0.6,0.6-1.8,0.6-3.4
		S2503.4-248,2503-248.7z"/>
	<path fill="#80CCDD" d="M2513.5-251.2v11.9h-2v-9.6l-2.8,1.8l-0.9-1.5l3.9-2.6H2513.5z"/>
	<path fill="#80CCDD" d="M2517.3-243.3v-1.8h5.4v1.8H2517.3z"/>
	<path fill="#80CCDD" d="M2532.7-239.3h-7.7v-1.7l2.9-3c0.9-0.9,1.5-1.6,1.9-2.1c0.4-0.5,0.5-1.1,0.5-1.7c0-0.6-0.2-1.1-0.5-1.3
		c-0.3-0.3-0.9-0.4-1.7-0.4c-0.7,0-1.6,0.1-2.5,0.3l-0.4,0.1l-0.1-1.6c1.2-0.3,2.4-0.5,3.6-0.5c2.5,0,3.7,1.1,3.7,3.3
		c0,0.9-0.2,1.6-0.6,2.2c-0.4,0.6-1.1,1.4-2,2.3l-2.5,2.5h5.4V-239.3z"/>
	<path fill="#80CCDD" d="M2535.6-250c0.8-1,1.9-1.4,3.4-1.4s2.6,0.5,3.4,1.4c0.7,1,1.1,2.5,1.1,4.8s-0.4,3.8-1.1,4.7
		c-0.8,0.9-1.9,1.4-3.4,1.4s-2.6-0.5-3.4-1.4s-1.1-2.5-1.1-4.7C2534.4-247.4,2534.8-249,2535.6-250z M2540.8-248.7
		c-0.4-0.7-1-1-1.9-1s-1.5,0.3-1.9,1c-0.4,0.7-0.6,1.8-0.6,3.4s0.2,2.8,0.6,3.4c0.4,0.6,1,0.9,1.9,0.9s1.5-0.3,1.8-0.9
		c0.4-0.6,0.6-1.8,0.6-3.4S2541.2-248,2540.8-248.7z"/>
	<path fill="#80CCDD" d="M2551.3-251.2v11.9h-2v-9.6l-2.8,1.8l-0.9-1.5l3.9-2.6H2551.3z"/>
	<path fill="#80CCDD" d="M2560.1-239.3v-2.1h-5.3v-1.5l3.1-8.2h2.2l-3.3,8h3.3v-3.5h2v3.5h1.3v1.7h-1.3v2.1H2560.1z"/>
</g>
<g>
	<path fill="#80CCDD" d="M2662.8-250c0.8-1,1.9-1.4,3.4-1.4s2.6,0.5,3.4,1.4c0.7,1,1.1,2.5,1.1,4.8s-0.4,3.8-1.1,4.7
		c-0.8,0.9-1.9,1.4-3.4,1.4s-2.6-0.5-3.4-1.4s-1.1-2.5-1.1-4.7C2661.7-247.4,2662-249,2662.8-250z M2668-248.7c-0.4-0.7-1-1-1.9-1
		s-1.5,0.3-1.9,1c-0.4,0.7-0.6,1.8-0.6,3.4s0.2,2.8,0.6,3.4c0.4,0.6,1,0.9,1.9,0.9s1.5-0.3,1.8-0.9c0.4-0.6,0.6-1.8,0.6-3.4
		S2668.4-248,2668-248.7z"/>
	<path fill="#80CCDD" d="M2673.1-250.6c0.8-0.5,1.8-0.8,3.1-0.8s2.4,0.3,3.2,0.8s1.2,1.3,1.2,2.3c0,0.7-0.1,1.3-0.3,1.6
		c-0.2,0.4-0.6,0.7-1.3,1.1c0.6,0.4,1.1,0.8,1.3,1.2c0.3,0.4,0.4,1,0.4,1.7c0,1.2-0.4,2.1-1.2,2.6s-1.9,0.8-3.3,0.8
		c-3,0-4.5-1.1-4.5-3.2c0-0.8,0.1-1.4,0.4-1.9c0.3-0.4,0.7-0.9,1.3-1.3c-0.6-0.4-1-0.8-1.2-1.2c-0.2-0.4-0.3-0.9-0.3-1.6
		C2671.9-249.3,2672.3-250,2673.1-250.6z M2673.9-242.8c0,1.2,0.8,1.9,2.3,1.9c1.6,0,2.3-0.6,2.3-1.9c0-0.8-0.5-1.4-1.5-1.7h-1.7
		C2674.4-244.2,2673.9-243.6,2673.9-242.8z M2678.4-248c0-1.1-0.7-1.7-2.2-1.7s-2.2,0.6-2.2,1.7c0,0.7,0.4,1.3,1.3,1.7h1.7
		C2678-246.7,2678.4-247.2,2678.4-248z"/>
	<path fill="#80CCDD" d="M2682.4-243.3v-1.8h5.4v1.8H2682.4z"/>
	<path fill="#80CCDD" d="M2690.5-250c0.8-1,1.9-1.4,3.4-1.4s2.6,0.5,3.4,1.4c0.7,1,1.1,2.5,1.1,4.8s-0.4,3.8-1.1,4.7
		c-0.8,0.9-1.9,1.4-3.4,1.4s-2.6-0.5-3.4-1.4s-1.1-2.5-1.1-4.7C2689.4-247.4,2689.8-249,2690.5-250z M2695.8-248.7
		c-0.4-0.7-1-1-1.9-1s-1.5,0.3-1.9,1c-0.4,0.7-0.6,1.8-0.6,3.4s0.2,2.8,0.6,3.4c0.4,0.6,1,0.9,1.9,0.9s1.5-0.3,1.8-0.9
		c0.4-0.6,0.6-1.8,0.6-3.4S2696.1-248,2695.8-248.7z"/>
	<path fill="#80CCDD" d="M2707.8-239.3h-7.7v-1.7l2.9-3c0.9-0.9,1.5-1.6,1.9-2.1c0.4-0.5,0.5-1.1,0.5-1.7c0-0.6-0.2-1.1-0.5-1.3
		c-0.3-0.3-0.9-0.4-1.7-0.4c-0.7,0-1.6,0.1-2.5,0.3l-0.4,0.1l-0.1-1.6c1.2-0.3,2.4-0.5,3.6-0.5c2.5,0,3.7,1.1,3.7,3.3
		c0,0.9-0.2,1.6-0.6,2.2c-0.4,0.6-1.1,1.4-2,2.3l-2.5,2.5h5.4V-239.3z"/>
	<path fill="#80CCDD" d="M2710.1-243.3v-1.8h5.4v1.8H2710.1z"/>
	<path fill="#80CCDD" d="M2725.5-239.3h-7.7v-1.7l2.9-3c0.9-0.9,1.5-1.6,1.9-2.1c0.4-0.5,0.5-1.1,0.5-1.7c0-0.6-0.2-1.1-0.5-1.3
		c-0.3-0.3-0.9-0.4-1.7-0.4c-0.7,0-1.6,0.1-2.5,0.3l-0.4,0.1l-0.1-1.6c1.2-0.3,2.4-0.5,3.6-0.5c2.5,0,3.7,1.1,3.7,3.3
		c0,0.9-0.2,1.6-0.6,2.2c-0.4,0.6-1.1,1.4-2,2.3l-2.5,2.5h5.4V-239.3z"/>
	<path fill="#80CCDD" d="M2728.3-250c0.8-1,1.9-1.4,3.4-1.4s2.6,0.5,3.4,1.4c0.7,1,1.1,2.5,1.1,4.8s-0.4,3.8-1.1,4.7
		c-0.8,0.9-1.9,1.4-3.4,1.4s-2.6-0.5-3.4-1.4s-1.1-2.5-1.1-4.7C2727.2-247.4,2727.6-249,2728.3-250z M2733.6-248.7
		c-0.4-0.7-1-1-1.9-1s-1.5,0.3-1.9,1c-0.4,0.7-0.6,1.8-0.6,3.4s0.2,2.8,0.6,3.4c0.4,0.6,1,0.9,1.9,0.9s1.5-0.3,1.8-0.9
		c0.4-0.6,0.6-1.8,0.6-3.4S2733.9-248,2733.6-248.7z"/>
	<path fill="#80CCDD" d="M2744.1-251.2v11.9h-2v-9.6l-2.8,1.8l-0.9-1.5l3.9-2.6H2744.1z"/>
	<path fill="#80CCDD" d="M2752.9-239.3v-2.1h-5.3v-1.5l3.1-8.2h2.2l-3.3,8h3.3v-3.5h2v3.5h1.3v1.7h-1.3v2.1H2752.9z"/>
</g>
<g>
	<path fill="#80CCDD" d="M2855.6-250c0.8-1,1.9-1.4,3.4-1.4s2.6,0.5,3.4,1.4c0.7,1,1.1,2.5,1.1,4.8s-0.4,3.8-1.1,4.7
		c-0.8,0.9-1.9,1.4-3.4,1.4s-2.6-0.5-3.4-1.4s-1.1-2.5-1.1-4.7C2854.4-247.4,2854.8-249,2855.6-250z M2860.8-248.7
		c-0.4-0.7-1-1-1.9-1s-1.5,0.3-1.9,1c-0.4,0.7-0.6,1.8-0.6,3.4s0.2,2.8,0.6,3.4c0.4,0.6,1,0.9,1.9,0.9s1.5-0.3,1.8-0.9
		c0.4-0.6,0.6-1.8,0.6-3.4S2861.2-248,2860.8-248.7z"/>
	<path fill="#80CCDD" d="M2865.9-250.6c0.8-0.5,1.8-0.8,3.1-0.8s2.4,0.3,3.2,0.8s1.2,1.3,1.2,2.3c0,0.7-0.1,1.3-0.3,1.6
		c-0.2,0.4-0.6,0.7-1.3,1.1c0.6,0.4,1.1,0.8,1.3,1.2c0.3,0.4,0.4,1,0.4,1.7c0,1.2-0.4,2.1-1.2,2.6s-1.9,0.8-3.3,0.8
		c-3,0-4.5-1.1-4.5-3.2c0-0.8,0.1-1.4,0.4-1.9c0.3-0.4,0.7-0.9,1.3-1.3c-0.6-0.4-1-0.8-1.2-1.2c-0.2-0.4-0.3-0.9-0.3-1.6
		C2864.7-249.3,2865.1-250,2865.9-250.6z M2866.7-242.8c0,1.2,0.8,1.9,2.3,1.9c1.6,0,2.3-0.6,2.3-1.9c0-0.8-0.5-1.4-1.5-1.7h-1.7
		C2867.1-244.2,2866.7-243.6,2866.7-242.8z M2871.2-248c0-1.1-0.7-1.7-2.2-1.7s-2.2,0.6-2.2,1.7c0,0.7,0.4,1.3,1.3,1.7h1.7
		C2870.7-246.7,2871.2-247.2,2871.2-248z"/>
	<path fill="#80CCDD" d="M2875.2-243.3v-1.8h5.4v1.8H2875.2z"/>
	<path fill="#80CCDD" d="M2883.3-250c0.8-1,1.9-1.4,3.4-1.4s2.6,0.5,3.4,1.4c0.7,1,1.1,2.5,1.1,4.8s-0.4,3.8-1.1,4.7
		c-0.8,0.9-1.9,1.4-3.4,1.4s-2.6-0.5-3.4-1.4s-1.1-2.5-1.1-4.7C2882.2-247.4,2882.6-249,2883.3-250z M2888.5-248.7
		c-0.4-0.7-1-1-1.9-1s-1.5,0.3-1.9,1c-0.4,0.7-0.6,1.8-0.6,3.4s0.2,2.8,0.6,3.4c0.4,0.6,1,0.9,1.9,0.9s1.5-0.3,1.8-0.9
		c0.4-0.6,0.6-1.8,0.6-3.4S2888.9-248,2888.5-248.7z"/>
	<path fill="#80CCDD" d="M2892.9-250.8c1.1-0.4,2.3-0.6,3.7-0.6s2.3,0.3,2.9,0.8c0.6,0.5,0.9,1.3,0.9,2.4c0,0.5-0.1,0.9-0.3,1.3
		c-0.2,0.4-0.4,0.7-0.6,0.8c-0.2,0.2-0.4,0.4-0.7,0.5c0.6,0.3,1.1,0.6,1.4,1c0.3,0.4,0.4,0.9,0.4,1.7c0,1.3-0.3,2.2-0.9,2.8
		s-1.6,0.9-3,0.9c-0.5,0-1.1,0-1.8-0.1s-1.2-0.2-1.5-0.3l-0.6-0.1l0.1-1.5c1.3,0.2,2.5,0.4,3.5,0.4c1.4,0,2.2-0.6,2.2-1.9
		c0-0.6-0.2-1-0.6-1.3c-0.4-0.3-0.9-0.5-1.5-0.5h-2.4v-1.7h2.4c0.4,0,0.9-0.2,1.2-0.5s0.6-0.8,0.6-1.3s-0.2-0.9-0.5-1.2
		c-0.3-0.3-0.8-0.4-1.4-0.4c-0.9,0-1.9,0.1-2.9,0.3l-0.5,0.1L2892.9-250.8z"/>
	<path fill="#80CCDD" d="M2902.9-243.3v-1.8h5.4v1.8H2902.9z"/>
	<path fill="#80CCDD" d="M2918.2-239.3h-7.7v-1.7l2.9-3c0.9-0.9,1.5-1.6,1.9-2.1c0.4-0.5,0.5-1.1,0.5-1.7c0-0.6-0.2-1.1-0.5-1.3
		c-0.3-0.3-0.9-0.4-1.7-0.4c-0.7,0-1.6,0.1-2.5,0.3l-0.4,0.1l-0.1-1.6c1.2-0.3,2.4-0.5,3.6-0.5c2.5,0,3.7,1.1,3.7,3.3
		c0,0.9-0.2,1.6-0.6,2.2c-0.4,0.6-1.1,1.4-2,2.3l-2.5,2.5h5.4V-239.3z"/>
	<path fill="#80CCDD" d="M2921.1-250c0.8-1,1.9-1.4,3.4-1.4s2.6,0.5,3.4,1.4c0.7,1,1.1,2.5,1.1,4.8s-0.4,3.8-1.1,4.7
		c-0.8,0.9-1.9,1.4-3.4,1.4s-2.6-0.5-3.4-1.4s-1.1-2.5-1.1-4.7C2920-247.4,2920.4-249,2921.1-250z M2926.3-248.7c-0.4-0.7-1-1-1.9-1
		s-1.5,0.3-1.9,1c-0.4,0.7-0.6,1.8-0.6,3.4s0.2,2.8,0.6,3.4c0.4,0.6,1,0.9,1.9,0.9s1.5-0.3,1.8-0.9c0.4-0.6,0.6-1.8,0.6-3.4
		S2926.7-248,2926.3-248.7z"/>
	<path fill="#80CCDD" d="M2936.8-251.2v11.9h-2v-9.6l-2.8,1.8l-0.9-1.5l3.9-2.6H2936.8z"/>
	<path fill="#80CCDD" d="M2945.7-239.3v-2.1h-5.3v-1.5l3.1-8.2h2.2l-3.3,8h3.3v-3.5h2v3.5h1.3v1.7h-1.3v2.1H2945.7z"/>
</g>
<g>
	<path fill="#80CCDD" d="M3048.3-250c0.8-1,1.9-1.4,3.4-1.4s2.6,0.5,3.4,1.4c0.7,1,1.1,2.5,1.1,4.8s-0.4,3.8-1.1,4.7
		c-0.8,0.9-1.9,1.4-3.4,1.4s-2.6-0.5-3.4-1.4s-1.1-2.5-1.1-4.7C3047.2-247.4,3047.6-249,3048.3-250z M3053.6-248.7
		c-0.4-0.7-1-1-1.9-1s-1.5,0.3-1.9,1c-0.4,0.7-0.6,1.8-0.6,3.4s0.2,2.8,0.6,3.4c0.4,0.6,1,0.9,1.9,0.9s1.5-0.3,1.8-0.9
		c0.4-0.6,0.6-1.8,0.6-3.4S3053.9-248,3053.6-248.7z"/>
	<path fill="#80CCDD" d="M3058.6-250.6c0.8-0.5,1.8-0.8,3.1-0.8s2.4,0.3,3.2,0.8s1.2,1.3,1.2,2.3c0,0.7-0.1,1.3-0.3,1.6
		c-0.2,0.4-0.6,0.7-1.3,1.1c0.6,0.4,1.1,0.8,1.3,1.2c0.3,0.4,0.4,1,0.4,1.7c0,1.2-0.4,2.1-1.2,2.6s-1.9,0.8-3.3,0.8
		c-3,0-4.5-1.1-4.5-3.2c0-0.8,0.1-1.4,0.4-1.9c0.3-0.4,0.7-0.9,1.3-1.3c-0.6-0.4-1-0.8-1.2-1.2c-0.2-0.4-0.3-0.9-0.3-1.6
		C3057.5-249.3,3057.9-250,3058.6-250.6z M3059.4-242.8c0,1.2,0.8,1.9,2.3,1.9c1.6,0,2.3-0.6,2.3-1.9c0-0.8-0.5-1.4-1.5-1.7h-1.7
		C3059.9-244.2,3059.4-243.6,3059.4-242.8z M3063.9-248c0-1.1-0.7-1.7-2.2-1.7s-2.2,0.6-2.2,1.7c0,0.7,0.4,1.3,1.3,1.7h1.7
		C3063.5-246.7,3063.9-247.2,3063.9-248z"/>
	<path fill="#80CCDD" d="M3067.9-243.3v-1.8h5.4v1.8H3067.9z"/>
	<path fill="#80CCDD" d="M3076.1-250c0.8-1,1.9-1.4,3.4-1.4s2.6,0.5,3.4,1.4c0.7,1,1.1,2.5,1.1,4.8s-0.4,3.8-1.1,4.7
		c-0.8,0.9-1.9,1.4-3.4,1.4s-2.6-0.5-3.4-1.4s-1.1-2.5-1.1-4.7C3074.9-247.4,3075.3-249,3076.1-250z M3081.3-248.7
		c-0.4-0.7-1-1-1.9-1s-1.5,0.3-1.9,1c-0.4,0.7-0.6,1.8-0.6,3.4s0.2,2.8,0.6,3.4c0.4,0.6,1,0.9,1.9,0.9s1.5-0.3,1.8-0.9
		c0.4-0.6,0.6-1.8,0.6-3.4S3081.7-248,3081.3-248.7z"/>
	<path fill="#80CCDD" d="M3090.6-239.3v-2.1h-5.3v-1.5l3.1-8.2h2.2l-3.3,8h3.3v-3.5h2v3.5h1.3v1.7h-1.3v2.1H3090.6z"/>
	<path fill="#80CCDD" d="M3095.7-243.3v-1.8h5.4v1.8H3095.7z"/>
	<path fill="#80CCDD" d="M3111-239.3h-7.7v-1.7l2.9-3c0.9-0.9,1.5-1.6,1.9-2.1c0.4-0.5,0.5-1.1,0.5-1.7c0-0.6-0.2-1.1-0.5-1.3
		c-0.3-0.3-0.9-0.4-1.7-0.4c-0.7,0-1.6,0.1-2.5,0.3l-0.4,0.1l-0.1-1.6c1.2-0.3,2.4-0.5,3.6-0.5c2.5,0,3.7,1.1,3.7,3.3
		c0,0.9-0.2,1.6-0.6,2.2c-0.4,0.6-1.1,1.4-2,2.3l-2.5,2.5h5.4V-239.3z"/>
	<path fill="#80CCDD" d="M3113.9-250c0.8-1,1.9-1.4,3.4-1.4s2.6,0.5,3.4,1.4c0.7,1,1.1,2.5,1.1,4.8s-0.4,3.8-1.1,4.7
		c-0.8,0.9-1.9,1.4-3.4,1.4s-2.6-0.5-3.4-1.4s-1.1-2.5-1.1-4.7C3112.8-247.4,3113.1-249,3113.9-250z M3119.1-248.7
		c-0.4-0.7-1-1-1.9-1s-1.5,0.3-1.9,1c-0.4,0.7-0.6,1.8-0.6,3.4s0.2,2.8,0.6,3.4c0.4,0.6,1,0.9,1.9,0.9s1.5-0.3,1.8-0.9
		c0.4-0.6,0.6-1.8,0.6-3.4S3119.5-248,3119.1-248.7z"/>
	<path fill="#80CCDD" d="M3129.6-251.2v11.9h-2v-9.6l-2.8,1.8l-0.9-1.5l3.9-2.6H3129.6z"/>
	<path fill="#80CCDD" d="M3138.5-239.3v-2.1h-5.3v-1.5l3.1-8.2h2.2l-3.3,8h3.3v-3.5h2v3.5h1.3v1.7h-1.3v2.1H3138.5z"/>
</g>
<path fill="none" stroke="#80CCDD" stroke-width="2" stroke-linecap="round" stroke-miterlimit="10" stroke-dasharray="0,10" d="
	M1955.2-621.8"/>
<polyline opacity="0.3" fill="none" stroke="#1DB2AA" stroke-width="5" stroke-miterlimit="10" points="1941.2,-659.7 
	2159.2,-625.3 2387.2,-599.7 2519.2,-269.3 "/>
<polyline opacity="0.3" fill="none" stroke="#D7EEF6" stroke-width="5" stroke-miterlimit="10" points="1941.2,-793.2 
	2321.2,-730.2 2667.7,-538.2 2777.2,-326.7 3159.7,-326.7 "/>
<circle opacity="0.3" fill="#1DB2AA" cx="2494.3" cy="-325.8" r="32.2"/>
<g>
	<path fill="#FFFFFF" d="M2499.5-340.6v24.7h-5.2v-18.8l-5.3,3.4l-2.4-3.9l8.1-5.4H2499.5z"/>
</g>
<polyline opacity="0.3" fill="none" stroke="#D7EEF6" stroke-width="5" stroke-miterlimit="10" points="1941.2,-806.7 
	2339.2,-749.3 2730.7,-560 2874.7,-448.2 3159.7,-469.2 "/>
<polyline opacity="0.3" fill="none" stroke="#D7EEF6" stroke-width="5" stroke-miterlimit="10" points="1941.2,-815.7 
	2361.7,-758.7 2781.7,-608.7 3159.7,-560 "/>
<polyline opacity="0.3" fill="none" stroke="#D7EEF6" stroke-width="5" stroke-miterlimit="10" points="1941.2,-832.2 
	2861.2,-718.2 3024.7,-608.7 3159.7,-598.1 "/>
<circle opacity="0.3" fill="#D7EEF6" cx="2932.4" cy="-326.7" r="32.2"/>
<g>
	<path fill="#FFFFFF" d="M2941-339.7v4.5h-11l-0.6,5.3c1.5-0.6,3-0.9,4.4-0.9c5.3,0,8,2.5,8,7.4c0,2.8-0.7,4.9-2.2,6.5
		c-1.5,1.5-3.6,2.3-6.2,2.3c-1.1,0-2.4-0.1-3.9-0.3c-1.5-0.2-2.6-0.5-3.5-0.7l-1.3-0.3l0.6-3.8c3,0.5,5.5,0.7,7.6,0.7
		c1.2,0,2.2-0.3,2.8-1c0.6-0.6,1-1.6,1-2.8c0-1.2-0.3-2.1-0.8-2.6c-0.5-0.5-1.3-0.8-2.3-0.8c-1.7,0-3.1,0.2-4.4,0.5l-0.6,0.1
		l-3.1-0.7l0.7-13.3H2941z"/>
</g>
<circle opacity="0.3" fill="#D7EEF6" cx="2932.4" cy="-448.2" r="32.2"/>
<g>
	<path fill="#FFFFFF" d="M2934.6-436.6v-4.1h-10.5v-3.9l6.1-16.7h5.7l-6.6,16.1h5.3v-6.9h5.2v6.9h2.4v4.5h-2.4v4.1H2934.6z"/>
</g>
<circle opacity="0.3" fill="#D7EEF6" cx="2932.4" cy="-589.6" r="32.2"/>
<g>
	<path fill="#FFFFFF" d="M2925-601.7c2.3-0.9,4.9-1.3,7.7-1.3s4.9,0.5,6.2,1.6s1.9,2.8,1.9,5.2s-1,4.2-2.9,5.5c1.2,0.6,2,1.3,2.6,2
		c0.5,0.7,0.8,1.8,0.8,3.3c0,2.7-0.7,4.6-2,5.9c-1.3,1.3-3.5,1.9-6.4,1.9c-2.2,0-4.4-0.3-6.8-1l-1.2-0.3l0.3-3.9
		c2.8,0.5,5.1,0.7,7,0.7c2.6,0,3.8-1.1,3.8-3.3c0-0.9-0.3-1.7-1-2.2c-0.7-0.5-1.5-0.8-2.6-0.8h-5v-4.3h5c0.8,0,1.6-0.3,2.2-1
		c0.6-0.7,1-1.5,1-2.3c0-1.8-1.2-2.7-3.7-2.7c-1.7,0-3.6,0.2-5.5,0.5l-1,0.1L2925-601.7z"/>
</g>
<circle opacity="0.3" fill="#D7EEF6" cx="2932.4" cy="-672.3" r="32.2"/>
<g>
	<path fill="#FFFFFF" d="M2941.1-660.6h-16v-4.4l5.3-5.3c1.9-1.9,3.2-3.4,3.9-4.4c0.7-1,1.1-2.1,1.1-3.3s-0.3-2-0.9-2.4
		c-0.6-0.5-1.5-0.7-2.6-0.7c-1.7,0-3.5,0.1-5.5,0.4l-0.9,0.1l-0.3-4c2.4-0.7,5-1.1,7.6-1.1c5.2,0,7.9,2.4,7.9,7.1
		c0,1.8-0.4,3.4-1.2,4.8c-0.8,1.3-2.2,3-4.3,4.9l-4.3,3.9h10.2V-660.6z"/>
</g>
<g>
	<path fill="none" stroke="#80CCDD" stroke-miterlimit="10" d="M47.9,5.3c1.1,0,2.2,0,3.2,0c0,25.8,0,51.5,0,77.6
		c-15.5-2.8-30.4-5.4-45.3-8.1c-0.1-0.7-0.3-1-0.3-1.3c0-19.4,0-38.7-0.1-58.1c0-2.2,1.1-2.5,2.7-2.8c6.7-1.2,13.3-2.3,20-3.5
		C34.7,7.9,41.3,6.6,47.9,5.3z M28.1,39.2c-0.9-2.3-1.6-3.8-2.2-5.4c-1.5-3.9-1.7-4-6.2-2.9c1.4,3.4,3,6.7,4.2,10.1
		c0.5,1.3,0.4,3.1-0.1,4.4c-1.3,3.6-3.1,7-4.7,10.5c3.4,1,5.5,0.2,6.2-3.2c0.4-1.8,1.4-3.4,2.3-5.8c1.1,2.7,1.8,4.7,2.6,6.7
		c1.4,3.8,2.1,4.1,6.6,2.9c-1.7-3.6-3.5-7.1-4.9-10.8c-0.6-1.5-0.6-3.5,0-5c1.3-3.6,3.2-7.1,4.8-10.7c-3.4-0.8-5.3,0-6.1,3.2
		C30.3,35,29.2,36.8,28.1,39.2z"/>
	<path fill="none" stroke="#80CCDD" stroke-miterlimit="10" d="M84.7,72.4c-0.8,0.2-1.6,0.6-2.4,0.6c-9.8,0-19.6,0-29.6,0
		c0-1.7,0-3.2,0-5.1c3.5,0,7.1,0,11,0c0-2.7,0-5.1,0-8c-3.1,0-6.1,0.1-9.2-0.1c-0.7,0-1.3-0.8-2-1.3c0.7-0.5,1.3-1.3,2-1.3
		c3-0.1,6-0.1,9.2-0.1c0-2.7,0-5.1,0-7.9c-3.6,0-7.2,0-10.8,0c-0.7-2.1-0.2-2.8,1.7-2.8c3,0.1,6,0,9.2,0c0-2.7,0-5.1,0-7.9
		c-3.2,0-6.3,0.1-9.4-0.1c-0.7,0-1.4-1-2.1-1.6c0.2-0.3,0.4-0.6,0.6-1c3.6,0,7.2,0,11,0c0-2.6,0-4.9,0-7.8c-3.1,0-6.2,0.1-9.2-0.1
		c-0.7,0-1.4-0.8-2.1-1.2c0.7-0.5,1.3-1.3,2-1.3c3-0.1,6-0.1,9.2-0.1c0-2.7,0-5.1,0-7.9c-3.6,0-7.2,0-11,0c0-1.7,0-3,0-4.8
		c3.6,0,7.2,0,10.8,0c5.8,0,11.6-0.1,17.4,0.1c1.3,0,2.5,0.8,3.8,1.2C84.7,33.7,84.7,53,84.7,72.4z M78.9,17.9c-4.2,0-8.2,0-12.2,0
		c0,2.7,0,5.1,0,7.6c4.2,0,8.1,0,12.2,0C78.9,22.9,78.9,20.5,78.9,17.9z M66.6,57c4.3,0,8.3,0,12.3,0c0-2.6,0-5,0-7.5
		c-4.2,0-8.2,0-12.3,0C66.6,52.1,66.6,54.5,66.6,57z M66.6,36.1c4.2,0,8.2,0,12.2,0c0-2.6,0-5,0-7.4c-4.2,0-8.2,0-12.2,0
		C66.6,31.3,66.6,33.6,66.6,36.1z M66.6,46.4c4.2,0,8.2,0,12.2,0c0-2.6,0-5,0-7.4c-4.2,0-8.1,0-12.2,0
		C66.6,41.5,66.6,43.8,66.6,46.4z M78.9,60.2c-4.3,0-8.2,0-12.3,0c0,2.6,0,5,0,7.5c4.2,0,8.2,0,12.3,0
		C78.9,65.1,78.9,62.8,78.9,60.2z"/>
</g>
</svg>
