<?xml version="1.0" encoding="utf-8"?>
<!-- Generator: Adobe Illustrator 18.0.0, SVG Export Plug-In . SVG Version: 6.00 Build 0)  -->
<!DOCTYPE svg PUBLIC "-//W3C//DTD SVG 1.1//EN" "http://www.w3.org/Graphics/SVG/1.1/DTD/svg11.dtd">
<svg version="1.1" xmlns="http://www.w3.org/2000/svg" xmlns:xlink="http://www.w3.org/1999/xlink" x="0px" y="0px"
	 viewBox="0 0 63.9 40.7" enable-background="new 0 0 63.9 40.7" xml:space="preserve">
<pattern  x="331.5" y="-54.3" width="74.3" height="71.1" patternUnits="userSpaceOnUse" id="New_Pattern_Swatch_4" viewBox="0 -71.1 74.3 71.1" overflow="visible">
	<g>
		<polygon fill="none" points="0,0 74.3,0 74.3,-71.1 0,-71.1 		"/>
		<polygon fill="#001B30" points="74.3,0 0,0 0,-71.1 74.3,-71.1 		"/>
	</g>
</pattern>
<g id="Bacground">
</g>
<g id="ICONS" display="none">
</g>
<g id="Line_work">
</g>
<g id="Logo">
</g>
<g id="ICONS_in_SITU">
	<g>
		<g>
			<polygon opacity="0.4" fill="#032B44" stroke="url(#New_Pattern_Swatch_4)" stroke-miterlimit="10" points="63.4,48.1 0.5,48.1 
				0.5,0.5 52.3,0.5 52.3,0.5 63.4,11.3 			"/>
			<g>
				<path fill="#C12732" d="M20.3,25.1L17,21.5V18h-6.6l3.3-3.5h6.6L27,7.3h10l6.6,7.1h6.6l3.3,3.5h-6.6v3.5l-3.3,3.5h-10l3.3-3.5h5
					l1.7-1.8V18h-1.7l-6.6-7.1h-6.6L22,18h-1.7v1.8l1.7,1.8h5l3.3,3.5H20.3z M12,32.1l-1.7-1.8v-8.9h3.3v7.1l3.3,3.5H12z M30.3,19.7
					V18H27l3.3-3.5h3.3l3.3,3.5h-3.3v1.8l-1.7,1.8L30.3,19.7z M46.9,32.1l3.3-3.5v-7.1h3.3v8.9l-1.7,1.8H46.9z"/>
			</g>
		</g>
	</g>
</g>
</svg>
