<?xml version="1.0" encoding="utf-8"?>
<!-- Generator: Adobe Illustrator 18.0.0, SVG Export Plug-In . SVG Version: 6.00 Build 0)  -->
<!DOCTYPE svg PUBLIC "-//W3C//DTD SVG 1.1//EN" "http://www.w3.org/Graphics/SVG/1.1/DTD/svg11.dtd">
<svg version="1.1" xmlns="http://www.w3.org/2000/svg" xmlns:xlink="http://www.w3.org/1999/xlink" x="0px" y="0px"
	 viewBox="0 0 63.9 48.6" enable-background="new 0 0 63.9 48.6" xml:space="preserve">
<pattern  x="331.5" y="-54.3" width="74.3" height="71.1" patternUnits="userSpaceOnUse" id="New_Pattern_Swatch_4" viewBox="0 -71.1 74.3 71.1" overflow="visible">
	<g>
		<polygon fill="none" points="0,0 74.3,0 74.3,-71.1 0,-71.1 		"/>
		<polygon fill="#001B30" points="74.3,0 0,0 0,-71.1 74.3,-71.1 		"/>
	</g>
</pattern>
<g id="Bacground">
</g>
<g id="ICONS" display="none">
</g>
<g id="Line_work">
</g>
<g id="Logo">
</g>
<g id="ICONS_in_SITU">
	<g>
		<g>
			<polygon opacity="0.4" fill="#032B44" stroke="url(#New_Pattern_Swatch_4)" stroke-miterlimit="10" points="63.4,48.1 0.5,48.1 
				0.5,0.5 52.3,0.5 52.3,0.5 63.4,11.3 			"/>
			<g>
				<path fill="#C12732" d="M20.3,25.1L17,21.5V18h-6.6l3.3-3.5h6.6L27,7.3h10l6.6,7.1h6.6l3.3,3.5h-6.6v3.5l-3.3,3.5h-10l3.3-3.5h5
					l1.7-1.8V18h-1.7l-6.6-7.1h-6.6L22,18h-1.7v1.8l1.7,1.8h5l3.3,3.5H20.3z M12,32.1l-1.7-1.8v-8.9h3.3v7.1l3.3,3.5H12z M30.3,19.7
					V18H27l3.3-3.5h3.3l3.3,3.5h-3.3v1.8l-1.7,1.8L30.3,19.7z M46.9,32.1l3.3-3.5v-7.1h3.3v8.9l-1.7,1.8H46.9z"/>
			</g>
		</g>
	</g>
	<g>
		<g>
			<path fill="#FFFFFF" d="M11.9,43.4h-0.8l-0.3-0.8H9.3L9,43.4H8.2l1.4-3.7h0.8L11.9,43.4z M10.5,41.9L10,40.6l-0.5,1.4H10.5z"/>
			<path fill="#FFFFFF" d="M14.3,42.1l0.7,0.2c-0.1,0.4-0.3,0.7-0.5,0.9c-0.3,0.2-0.6,0.3-1,0.3c-0.5,0-0.9-0.2-1.2-0.5
				c-0.3-0.3-0.5-0.8-0.5-1.4c0-0.6,0.2-1.1,0.5-1.4c0.3-0.3,0.7-0.5,1.2-0.5c0.4,0,0.8,0.1,1.1,0.4c0.2,0.2,0.3,0.4,0.4,0.7
				l-0.7,0.2c0-0.2-0.1-0.3-0.3-0.5c-0.1-0.1-0.3-0.2-0.5-0.2c-0.3,0-0.5,0.1-0.7,0.3c-0.2,0.2-0.3,0.5-0.3,0.9c0,0.5,0.1,0.8,0.3,1
				c0.2,0.2,0.4,0.3,0.7,0.3c0.2,0,0.4-0.1,0.5-0.2C14.2,42.5,14.3,42.3,14.3,42.1z"/>
			<path fill="#FFFFFF" d="M17.7,42.1l0.7,0.2c-0.1,0.4-0.3,0.7-0.5,0.9c-0.3,0.2-0.6,0.3-1,0.3c-0.5,0-0.9-0.2-1.2-0.5
				c-0.3-0.3-0.5-0.8-0.5-1.4c0-0.6,0.2-1.1,0.5-1.4c0.3-0.3,0.7-0.5,1.2-0.5c0.4,0,0.8,0.1,1.1,0.4c0.2,0.2,0.3,0.4,0.4,0.7
				l-0.7,0.2c0-0.2-0.1-0.3-0.3-0.5c-0.1-0.1-0.3-0.2-0.5-0.2c-0.3,0-0.5,0.1-0.7,0.3c-0.2,0.2-0.3,0.5-0.3,0.9c0,0.5,0.1,0.8,0.3,1
				c0.2,0.2,0.4,0.3,0.7,0.3c0.2,0,0.4-0.1,0.5-0.2C17.6,42.5,17.7,42.3,17.7,42.1z"/>
			<path fill="#FFFFFF" d="M18.6,41.6c0-0.4,0.1-0.7,0.2-0.9c0.1-0.2,0.2-0.4,0.3-0.5c0.1-0.1,0.3-0.3,0.5-0.3
				c0.2-0.1,0.5-0.1,0.8-0.1c0.5,0,1,0.2,1.3,0.5c0.3,0.3,0.5,0.8,0.5,1.4c0,0.6-0.2,1.1-0.5,1.4c-0.3,0.3-0.8,0.5-1.3,0.5
				c-0.5,0-1-0.2-1.3-0.5C18.8,42.6,18.6,42.2,18.6,41.6z M19.4,41.6c0,0.4,0.1,0.7,0.3,0.9c0.2,0.2,0.4,0.3,0.7,0.3
				c0.3,0,0.5-0.1,0.7-0.3c0.2-0.2,0.3-0.5,0.3-1c0-0.4-0.1-0.7-0.3-0.9c-0.2-0.2-0.4-0.3-0.7-0.3c-0.3,0-0.6,0.1-0.7,0.3
				C19.5,40.8,19.4,41.1,19.4,41.6z"/>
			<path fill="#FFFFFF" d="M22.4,39.7h0.7v2c0,0.3,0,0.5,0,0.6c0,0.1,0.1,0.3,0.2,0.4c0.1,0.1,0.3,0.1,0.5,0.1c0.2,0,0.4,0,0.5-0.1
				c0.1-0.1,0.2-0.2,0.2-0.3c0-0.1,0-0.3,0-0.6v-2h0.7v1.9c0,0.4,0,0.8-0.1,0.9c0,0.2-0.1,0.3-0.2,0.5c-0.1,0.1-0.3,0.2-0.4,0.3
				c-0.2,0.1-0.4,0.1-0.7,0.1c-0.3,0-0.6,0-0.8-0.1c-0.2-0.1-0.3-0.2-0.4-0.3c-0.1-0.1-0.2-0.3-0.2-0.4c0-0.2-0.1-0.5-0.1-0.9V39.7z
				"/>
			<path fill="#FFFFFF" d="M25.8,43.4v-3.7h0.7l1.5,2.5v-2.5h0.7v3.7H28L26.5,41v2.4H25.8z"/>
			<path fill="#FFFFFF" d="M30.1,43.4v-3H29v-0.6h2.9v0.6h-1.1v3H30.1z"/>
			<path fill="#FFFFFF" d="M33,42.2l0.7-0.1c0,0.2,0.1,0.4,0.3,0.5c0.1,0.1,0.3,0.2,0.5,0.2c0.2,0,0.4-0.1,0.5-0.2
				c0.1-0.1,0.2-0.2,0.2-0.4c0-0.1,0-0.2-0.1-0.2C35.1,42.1,35,42,34.9,42c-0.1,0-0.3-0.1-0.6-0.2c-0.4-0.1-0.7-0.2-0.8-0.4
				c-0.2-0.2-0.3-0.4-0.3-0.7c0-0.2,0.1-0.4,0.2-0.5c0.1-0.2,0.3-0.3,0.5-0.4c0.2-0.1,0.4-0.1,0.7-0.1c0.5,0,0.8,0.1,1,0.3
				c0.2,0.2,0.4,0.5,0.4,0.8l-0.7,0c0-0.2-0.1-0.3-0.2-0.4c-0.1-0.1-0.3-0.1-0.5-0.1c-0.2,0-0.4,0-0.5,0.1c-0.1,0.1-0.1,0.1-0.1,0.2
				c0,0.1,0,0.2,0.1,0.2c0.1,0.1,0.3,0.2,0.7,0.2c0.4,0.1,0.6,0.2,0.8,0.3c0.2,0.1,0.3,0.2,0.4,0.4c0.1,0.2,0.1,0.4,0.1,0.6
				c0,0.2-0.1,0.4-0.2,0.6c-0.1,0.2-0.3,0.3-0.5,0.4c-0.2,0.1-0.5,0.1-0.8,0.1c-0.5,0-0.8-0.1-1.1-0.3C33.2,42.9,33,42.6,33,42.2z"
				/>
			<path fill="#FFFFFF" d="M36.3,43.4v-3.7H39v0.6h-2v0.8h1.8v0.6H37v1h2v0.6H36.3z"/>
			<path fill="#FFFFFF" d="M39.4,43.4v-3.7H41c0.4,0,0.7,0,0.9,0.1s0.3,0.2,0.4,0.4c0.1,0.2,0.2,0.4,0.2,0.6c0,0.3-0.1,0.5-0.2,0.7
				c-0.2,0.2-0.4,0.3-0.7,0.3c0.2,0.1,0.3,0.2,0.4,0.3c0.1,0.1,0.2,0.3,0.4,0.6l0.4,0.7h-0.9l-0.5-0.8c-0.2-0.3-0.3-0.5-0.4-0.5
				c-0.1-0.1-0.1-0.1-0.2-0.2c-0.1,0-0.2,0-0.4,0h-0.2v1.5H39.4z M40.1,41.3h0.5c0.4,0,0.6,0,0.7,0c0.1,0,0.2-0.1,0.2-0.2
				c0.1-0.1,0.1-0.2,0.1-0.3c0-0.1,0-0.2-0.1-0.3c-0.1-0.1-0.2-0.1-0.3-0.1c-0.1,0-0.2,0-0.5,0h-0.6V41.3z"/>
			<path fill="#FFFFFF" d="M43.6,43.4l-1.3-3.7h0.8l0.9,2.7l0.9-2.7h0.8l-1.3,3.7H43.6z"/>
			<path fill="#FFFFFF" d="M45.8,43.4v-3.7h0.7v3.7H45.8z"/>
			<path fill="#FFFFFF" d="M49.3,42.1l0.7,0.2c-0.1,0.4-0.3,0.7-0.6,0.9c-0.3,0.2-0.6,0.3-1,0.3c-0.5,0-0.9-0.2-1.2-0.5
				c-0.3-0.3-0.5-0.8-0.5-1.4c0-0.6,0.2-1.1,0.5-1.4c0.3-0.3,0.7-0.5,1.2-0.5c0.4,0,0.8,0.1,1.1,0.4c0.2,0.2,0.3,0.4,0.4,0.7
				l-0.7,0.2c0-0.2-0.1-0.3-0.3-0.5c-0.1-0.1-0.3-0.2-0.5-0.2c-0.3,0-0.5,0.1-0.7,0.3c-0.2,0.2-0.3,0.5-0.3,0.9c0,0.5,0.1,0.8,0.2,1
				c0.2,0.2,0.4,0.3,0.7,0.3c0.2,0,0.4-0.1,0.5-0.2C49.1,42.5,49.2,42.3,49.3,42.1z"/>
			<path fill="#FFFFFF" d="M50.3,43.4v-3.7H53v0.6h-2v0.8h1.8v0.6h-1.8v1h2v0.6H50.3z"/>
			<path fill="#FFFFFF" d="M53.2,42.2l0.7-0.1c0,0.2,0.1,0.4,0.3,0.5c0.1,0.1,0.3,0.2,0.5,0.2c0.2,0,0.4-0.1,0.5-0.2
				c0.1-0.1,0.2-0.2,0.2-0.4c0-0.1,0-0.2-0.1-0.2c-0.1-0.1-0.1-0.1-0.3-0.2c-0.1,0-0.3-0.1-0.6-0.2c-0.4-0.1-0.7-0.2-0.8-0.4
				c-0.2-0.2-0.3-0.4-0.3-0.7c0-0.2,0.1-0.4,0.2-0.5c0.1-0.2,0.3-0.3,0.5-0.4c0.2-0.1,0.4-0.1,0.7-0.1c0.5,0,0.8,0.1,1,0.3
				c0.2,0.2,0.4,0.5,0.4,0.8l-0.7,0c0-0.2-0.1-0.3-0.2-0.4c-0.1-0.1-0.3-0.1-0.5-0.1c-0.2,0-0.4,0-0.5,0.1c-0.1,0.1-0.1,0.1-0.1,0.2
				c0,0.1,0,0.2,0.1,0.2c0.1,0.1,0.3,0.2,0.7,0.2c0.4,0.1,0.6,0.2,0.8,0.3c0.2,0.1,0.3,0.2,0.4,0.4c0.1,0.2,0.1,0.4,0.1,0.6
				c0,0.2-0.1,0.4-0.2,0.6c-0.1,0.2-0.3,0.3-0.5,0.4c-0.2,0.1-0.5,0.1-0.8,0.1c-0.5,0-0.8-0.1-1.1-0.3
				C53.4,42.9,53.3,42.6,53.2,42.2z"/>
		</g>
	</g>
</g>
</svg>
