<?xml version="1.0" encoding="utf-8"?>
<!-- Generator: Adobe Illustrator 18.0.0, SVG Export Plug-In . SVG Version: 6.00 Build 0)  -->
<!DOCTYPE svg PUBLIC "-//W3C//DTD SVG 1.1//EN" "http://www.w3.org/Graphics/SVG/1.1/DTD/svg11.dtd">
<svg version="1.1" xmlns="http://www.w3.org/2000/svg" xmlns:xlink="http://www.w3.org/1999/xlink" x="0px" y="0px"
	 viewBox="0 0 63.9 41.5" enable-background="new 0 0 63.9 41.5" xml:space="preserve">
<pattern  x="331.5" y="-628.3" width="74.3" height="71.1" patternUnits="userSpaceOnUse" id="New_Pattern_Swatch_4" viewBox="0 -71.1 74.3 71.1" overflow="visible">
	<g>
		<polygon fill="none" points="0,0 74.3,0 74.3,-71.1 0,-71.1 		"/>
		<polygon fill="#001B30" points="74.3,0 0,0 0,-71.1 74.3,-71.1 		"/>
	</g>
</pattern>
<g id="Bacground">
</g>
<g id="ICONS" display="none">
</g>
<g id="Line_work">
</g>
<g id="Logo">
</g>
<g id="ICONS_in_SITU">
	<g>
		<g>
			<polygon opacity="0.4" fill="#032B44" stroke="url(#New_Pattern_Swatch_4)" stroke-miterlimit="10" points="63.4,48.1 0.5,48.1 
				0.5,0.5 52.3,0.5 52.3,0.5 63.4,11.3 			"/>
			<g>
				<path fill="#C12732" d="M12.5,25.9l-3.3-3.5v-7.1l3.3-3.5h3.3l3.3-3.5h10l3.3,3.5H20.8l-3.3,3.5h-3.3L12.5,17v3.5l1.7,1.8h1.7
					l3.3,3.5H12.5z M12.5,33l-3.3-3.5h14.9l3.3,3.5H12.5z M27.5,25.9l-1.7-1.8v-1.8h-5l-1.7-1.8l1.7-1.8h5V17l1.7-1.8h6.6l1.7,1.8
					v1.8h5l1.7,1.8l-1.7,1.8h-5v1.8l-1.7,1.8H27.5z M32.4,33l-3.3-3.5h11.6l3.3-3.5h3.3l1.7-1.8v-3.5l-1.7-1.8h-1.7l-3.3-3.5H49
					l3.3,3.5v7.1L49,29.4h-3.3L42.4,33H32.4z M32.4,22.3v-3.5h-3.3v3.5H32.4z M37.4,11.7l-3.3-3.5H49l3.3,3.5H37.4z"/>
			</g>
		</g>
	</g>
</g>
</svg>
