<?xml version="1.0" encoding="utf-8"?>
<!-- Generator: Adobe Illustrator 18.0.0, SVG Export Plug-In . SVG Version: 6.00 Build 0)  -->
<!DOCTYPE svg PUBLIC "-//W3C//DTD SVG 1.1//EN" "http://www.w3.org/Graphics/SVG/1.1/DTD/svg11.dtd">
<svg version="1.1" xmlns="http://www.w3.org/2000/svg" xmlns:xlink="http://www.w3.org/1999/xlink" x="0px" y="0px"
	 viewBox="0 0 63.9 48.6" enable-background="new 0 0 63.9 48.6" xml:space="preserve">
<pattern  x="331.5" y="-628.3" width="74.3" height="71.1" patternUnits="userSpaceOnUse" id="New_Pattern_Swatch_4" viewBox="0 -71.1 74.3 71.1" overflow="visible">
	<g>
		<polygon fill="none" points="0,0 74.3,0 74.3,-71.1 0,-71.1 		"/>
		<polygon fill="#001B30" points="74.3,0 0,0 0,-71.1 74.3,-71.1 		"/>
	</g>
</pattern>
<g id="Bacground">
</g>
<g id="ICONS" display="none">
</g>
<g id="Line_work">
</g>
<g id="Logo">
</g>
<g id="ICONS_in_SITU">
	<g>
		<g>
			<polygon opacity="0.4" fill="#032B44" stroke="url(#New_Pattern_Swatch_4)" stroke-miterlimit="10" points="63.4,48.1 0.5,48.1 
				0.5,0.5 52.3,0.5 52.3,0.5 63.4,11.3 			"/>
			<g>
				<path fill="#C12732" d="M12.5,25.9l-3.3-3.5v-7.1l3.3-3.5h3.3l3.3-3.5h10l3.3,3.5H20.8l-3.3,3.5h-3.3L12.5,17v3.5l1.7,1.8h1.7
					l3.3,3.5H12.5z M12.5,33l-3.3-3.5h14.9l3.3,3.5H12.5z M27.5,25.9l-1.7-1.8v-1.8h-5l-1.7-1.8l1.7-1.8h5V17l1.7-1.8h6.6l1.7,1.8
					v1.8h5l1.7,1.8l-1.7,1.8h-5v1.8l-1.7,1.8H27.5z M32.4,33l-3.3-3.5h11.6l3.3-3.5h3.3l1.7-1.8v-3.5l-1.7-1.8h-1.7l-3.3-3.5H49
					l3.3,3.5v7.1L49,29.4h-3.3L42.4,33H32.4z M32.4,22.3v-3.5h-3.3v3.5H32.4z M37.4,11.7l-3.3-3.5H49l3.3,3.5H37.4z"/>
			</g>
		</g>
	</g>
	<g>
		<g>
			<path fill="#FFFFFF" d="M4.5,42.2l0.7-0.1c0,0.2,0.1,0.4,0.3,0.5c0.1,0.1,0.3,0.2,0.5,0.2c0.2,0,0.4,0,0.5-0.2
				c0.1-0.1,0.2-0.2,0.2-0.4c0-0.1,0-0.2-0.1-0.2C6.6,42,6.5,42,6.4,41.9c-0.1,0-0.3-0.1-0.6-0.2c-0.4-0.1-0.7-0.2-0.8-0.4
				c-0.2-0.2-0.3-0.4-0.3-0.7c0-0.2,0.1-0.4,0.2-0.5C4.9,40,5,39.8,5.2,39.8c0.2-0.1,0.4-0.1,0.7-0.1c0.5,0,0.8,0.1,1,0.3
				c0.2,0.2,0.4,0.5,0.4,0.8l-0.7,0c0-0.2-0.1-0.3-0.2-0.4c-0.1-0.1-0.3-0.1-0.5-0.1c-0.2,0-0.4,0-0.5,0.1c-0.1,0.1-0.1,0.1-0.1,0.2
				c0,0.1,0,0.2,0.1,0.2c0.1,0.1,0.3,0.2,0.7,0.2c0.4,0.1,0.6,0.2,0.8,0.3c0.2,0.1,0.3,0.2,0.4,0.4c0.1,0.2,0.1,0.4,0.1,0.6
				c0,0.2-0.1,0.4-0.2,0.6c-0.1,0.2-0.3,0.3-0.5,0.4c-0.2,0.1-0.5,0.1-0.8,0.1c-0.5,0-0.8-0.1-1.1-0.3C4.7,42.9,4.5,42.6,4.5,42.2z"
				/>
			<path fill="#FFFFFF" d="M7.8,39.7h0.7v2c0,0.3,0,0.5,0,0.6c0,0.2,0.1,0.3,0.2,0.4c0.1,0.1,0.3,0.1,0.5,0.1c0.2,0,0.4,0,0.5-0.1
				c0.1-0.1,0.2-0.2,0.2-0.3c0-0.1,0-0.3,0-0.6v-2h0.7v1.9c0,0.4,0,0.8-0.1,0.9c0,0.2-0.1,0.3-0.2,0.5c-0.1,0.1-0.3,0.2-0.4,0.3
				c-0.2,0.1-0.4,0.1-0.7,0.1c-0.3,0-0.6,0-0.8-0.1C8.3,43.2,8.1,43.1,8,43c-0.1-0.1-0.2-0.3-0.2-0.4c0-0.2-0.1-0.5-0.1-0.9V39.7z"
				/>
			<path fill="#FFFFFF" d="M11.1,43.4v-3.7h1.2c0.5,0,0.7,0,0.9,0.1c0.2,0.1,0.4,0.2,0.5,0.4c0.1,0.2,0.2,0.4,0.2,0.7
				c0,0.2,0,0.4-0.1,0.6c-0.1,0.2-0.2,0.3-0.3,0.4c-0.1,0.1-0.3,0.1-0.4,0.2C13,42,12.7,42,12.4,42h-0.5v1.4H11.1z M11.9,40.3v1h0.4
				c0.3,0,0.5,0,0.6-0.1c0.1,0,0.2-0.1,0.2-0.2c0.1-0.1,0.1-0.2,0.1-0.3c0-0.1,0-0.2-0.1-0.3c-0.1-0.1-0.2-0.1-0.3-0.2
				c-0.1,0-0.3,0-0.5,0H11.9z"/>
			<path fill="#FFFFFF" d="M14.3,43.4v-3.7h1.2c0.5,0,0.7,0,0.9,0.1c0.2,0.1,0.4,0.2,0.5,0.4c0.1,0.2,0.2,0.4,0.2,0.7
				c0,0.2,0,0.4-0.1,0.6c-0.1,0.2-0.2,0.3-0.3,0.4c-0.1,0.1-0.3,0.1-0.4,0.2c-0.2,0-0.4,0.1-0.8,0.1H15v1.4H14.3z M15,40.3v1h0.4
				c0.3,0,0.5,0,0.6-0.1c0.1,0,0.2-0.1,0.2-0.2c0.1-0.1,0.1-0.2,0.1-0.3c0-0.1,0-0.2-0.1-0.3c-0.1-0.1-0.2-0.1-0.3-0.2
				c-0.1,0-0.3,0-0.5,0H15z"/>
			<path fill="#FFFFFF" d="M17.4,43.4v-3.6h0.7v3H20v0.6H17.4z"/>
			<path fill="#FFFFFF" d="M20.7,43.4v-1.5l-1.3-2.1h0.9l0.9,1.5l0.8-1.5h0.9l-1.3,2.1v1.5H20.7z"/>
			<path fill="#FFFFFF" d="M26.2,42l0.7,0.2c-0.1,0.4-0.3,0.7-0.5,0.9c-0.3,0.2-0.6,0.3-1,0.3c-0.5,0-0.9-0.2-1.2-0.5
				c-0.3-0.3-0.5-0.8-0.5-1.4c0-0.6,0.2-1.1,0.5-1.4c0.3-0.3,0.7-0.5,1.2-0.5c0.4,0,0.8,0.1,1.1,0.4c0.2,0.2,0.3,0.4,0.4,0.7
				l-0.7,0.2c0-0.2-0.1-0.3-0.3-0.5c-0.1-0.1-0.3-0.2-0.5-0.2c-0.3,0-0.5,0.1-0.7,0.3c-0.2,0.2-0.3,0.5-0.3,0.9c0,0.5,0.1,0.8,0.2,1
				c0.2,0.2,0.4,0.3,0.7,0.3c0.2,0,0.4-0.1,0.5-0.2C26,42.5,26.1,42.3,26.2,42z"/>
			<path fill="#FFFFFF" d="M27.3,43.4v-3.7H28v1.4h1.5v-1.4h0.7v3.7h-0.7v-1.6H28v1.6H27.3z"/>
			<path fill="#FFFFFF" d="M34,43.4h-0.8l-0.3-0.8h-1.5l-0.3,0.8h-0.8l1.4-3.7h0.8L34,43.4z M32.6,41.9l-0.5-1.4l-0.5,1.4H32.6z"/>
			<path fill="#FFFFFF" d="M34,43.4v-3.7h0.7v3.7H34z"/>
			<path fill="#FFFFFF" d="M35.2,43.4v-3.7h0.7l1.5,2.4v-2.4h0.7v3.7h-0.7L35.8,41v2.4H35.2z"/>
			<path fill="#FFFFFF" d="M39.7,43.4v-3.7h2.5v0.6h-1.8v0.9h1.5v0.6h-1.5v1.6H39.7z"/>
			<path fill="#FFFFFF" d="M42.5,43.4v-3.7h0.7v3.7H42.5z"/>
			<path fill="#FFFFFF" d="M43.6,43.4v-3.7h0.7l1.5,2.4v-2.4h0.7v3.7h-0.7L44.3,41v2.4H43.6z"/>
			<path fill="#FFFFFF" d="M50.3,43.4h-0.8l-0.3-0.8h-1.5l-0.3,0.8h-0.8l1.4-3.7h0.8L50.3,43.4z M48.9,41.9l-0.5-1.4l-0.5,1.4H48.9z
				"/>
			<path fill="#FFFFFF" d="M50.4,43.4v-3.7h0.7l1.5,2.4v-2.4h0.7v3.7h-0.7L51.1,41v2.4H50.4z"/>
			<path fill="#FFFFFF" d="M56.1,42l0.7,0.2c-0.1,0.4-0.3,0.7-0.5,0.9c-0.3,0.2-0.6,0.3-1,0.3c-0.5,0-0.9-0.2-1.2-0.5
				c-0.3-0.3-0.5-0.8-0.5-1.4c0-0.6,0.2-1.1,0.5-1.4c0.3-0.3,0.7-0.5,1.2-0.5c0.4,0,0.8,0.1,1.1,0.4c0.2,0.2,0.3,0.4,0.4,0.7
				l-0.7,0.2c0-0.2-0.1-0.3-0.3-0.5c-0.1-0.1-0.3-0.2-0.5-0.2c-0.3,0-0.5,0.1-0.7,0.3c-0.2,0.2-0.3,0.5-0.3,0.9c0,0.5,0.1,0.8,0.2,1
				c0.2,0.2,0.4,0.3,0.7,0.3c0.2,0,0.4-0.1,0.5-0.2C56,42.5,56.1,42.3,56.1,42z"/>
			<path fill="#FFFFFF" d="M57.2,43.4v-3.7h2.7v0.6h-2v0.8h1.8v0.6h-1.8v1H60v0.6H57.2z"/>
		</g>
	</g>
</g>
</svg>
