<?xml version="1.0" encoding="utf-8"?>
<!-- Generator: Adobe Illustrator 18.0.0, SVG Export Plug-In . SVG Version: 6.00 Build 0)  -->
<!DOCTYPE svg PUBLIC "-//W3C//DTD SVG 1.1//EN" "http://www.w3.org/Graphics/SVG/1.1/DTD/svg11.dtd">
<svg version="1.1" xmlns="http://www.w3.org/2000/svg" xmlns:xlink="http://www.w3.org/1999/xlink" x="0px" y="0px"
	 viewBox="0 0 63.9 48.6" enable-background="new 0 0 63.9 48.6" xml:space="preserve">
<pattern  x="331.5" y="-628.3" width="74.3" height="71.1" patternUnits="userSpaceOnUse" id="New_Pattern_Swatch_4" viewBox="0 -71.1 74.3 71.1" overflow="visible">
	<g>
		<polygon fill="none" points="0,0 74.3,0 74.3,-71.1 0,-71.1 		"/>
		<polygon fill="#001B30" points="74.3,0 0,0 0,-71.1 74.3,-71.1 		"/>
	</g>
</pattern>
<g id="Bacground">
</g>
<g id="ICONS" display="none">
</g>
<g id="Line_work">
</g>
<g id="Logo">
</g>
<g id="ICONS_in_SITU">
	<g>
		<polygon opacity="0.4" fill="#032B44" stroke="url(#New_Pattern_Swatch_4)" stroke-miterlimit="10" points="63.4,48.1 0.5,48.1 
			0.5,0.5 52.3,0.5 52.3,0.5 63.4,11.3 		"/>
		<g>
			<g>
				<path fill="#FFFFFF" d="M7.3,41.6L8,41.5c0,0.2,0.1,0.4,0.2,0.5c0.1,0.1,0.3,0.2,0.5,0.2c0.2,0,0.4,0,0.5-0.1
					c0.1-0.1,0.2-0.2,0.2-0.3c0-0.1,0-0.1-0.1-0.2c0-0.1-0.1-0.1-0.2-0.1c-0.1,0-0.3-0.1-0.5-0.1c-0.4-0.1-0.6-0.2-0.7-0.3
					c-0.2-0.2-0.3-0.4-0.3-0.7c0-0.2,0-0.3,0.1-0.5c0.1-0.1,0.2-0.3,0.4-0.3c0.2-0.1,0.4-0.1,0.6-0.1c0.4,0,0.7,0.1,0.9,0.3
					c0.2,0.2,0.3,0.4,0.3,0.7l-0.7,0c0-0.2-0.1-0.3-0.2-0.4c-0.1-0.1-0.2-0.1-0.4-0.1c-0.2,0-0.3,0-0.4,0.1c-0.1,0-0.1,0.1-0.1,0.2
					c0,0.1,0,0.1,0.1,0.2c0.1,0.1,0.3,0.1,0.6,0.2c0.3,0.1,0.6,0.2,0.7,0.2c0.2,0.1,0.3,0.2,0.4,0.3c0.1,0.1,0.1,0.3,0.1,0.5
					c0,0.2-0.1,0.4-0.2,0.5c-0.1,0.2-0.2,0.3-0.4,0.4c-0.2,0.1-0.4,0.1-0.7,0.1c-0.4,0-0.7-0.1-0.9-0.3C7.5,42.2,7.4,42,7.3,41.6z"
					/>
				<path fill="#FFFFFF" d="M10.2,39.4h0.7v1.8c0,0.3,0,0.5,0,0.5c0,0.1,0.1,0.2,0.2,0.3c0.1,0.1,0.2,0.1,0.4,0.1
					c0.2,0,0.3,0,0.4-0.1c0.1-0.1,0.2-0.2,0.2-0.3c0-0.1,0-0.3,0-0.6v-1.8h0.7v1.7c0,0.4,0,0.7-0.1,0.8c0,0.2-0.1,0.3-0.2,0.4
					c-0.1,0.1-0.2,0.2-0.4,0.3c-0.2,0.1-0.4,0.1-0.6,0.1c-0.3,0-0.5,0-0.7-0.1c-0.2-0.1-0.3-0.2-0.4-0.3c-0.1-0.1-0.2-0.2-0.2-0.4
					c0-0.2-0.1-0.5-0.1-0.8V39.4z"/>
				<path fill="#FFFFFF" d="M13.2,42.7v-3.2h1.1c0.4,0,0.7,0,0.8,0c0.2,0,0.3,0.2,0.5,0.3c0.1,0.2,0.2,0.4,0.2,0.6
					c0,0.2,0,0.4-0.1,0.5c-0.1,0.1-0.2,0.2-0.3,0.3c-0.1,0.1-0.2,0.1-0.3,0.2c-0.2,0-0.4,0-0.7,0h-0.4v1.2H13.2z M13.9,40v0.9h0.4
					c0.3,0,0.4,0,0.5-0.1c0.1,0,0.2-0.1,0.2-0.2c0-0.1,0.1-0.2,0.1-0.3c0-0.1,0-0.2-0.1-0.3c-0.1-0.1-0.2-0.1-0.3-0.1
					c-0.1,0-0.2,0-0.5,0H13.9z"/>
				<path fill="#FFFFFF" d="M16,42.7v-3.2h1.1c0.4,0,0.7,0,0.8,0c0.2,0,0.3,0.2,0.5,0.3c0.1,0.2,0.2,0.4,0.2,0.6
					c0,0.2,0,0.4-0.1,0.5c-0.1,0.1-0.2,0.2-0.3,0.3c-0.1,0.1-0.2,0.1-0.3,0.2c-0.2,0-0.4,0-0.7,0h-0.4v1.2H16z M16.7,40v0.9H17
					c0.3,0,0.4,0,0.5-0.1c0.1,0,0.2-0.1,0.2-0.2c0.1-0.1,0.1-0.2,0.1-0.3c0-0.1,0-0.2-0.1-0.3c-0.1-0.1-0.2-0.1-0.3-0.1
					c-0.1,0-0.2,0-0.5,0H16.7z"/>
				<path fill="#FFFFFF" d="M18.8,42.7v-3.2h0.7v2.7h1.6v0.5H18.8z"/>
				<path fill="#FFFFFF" d="M21.7,42.7v-1.4l-1.2-1.9h0.8l0.8,1.3l0.8-1.3h0.8l-1.2,1.9v1.4H21.7z"/>
				<path fill="#FFFFFF" d="M26.6,41.5l0.6,0.2c-0.1,0.4-0.3,0.6-0.5,0.8c-0.2,0.2-0.5,0.3-0.9,0.3c-0.4,0-0.8-0.1-1.1-0.4
					c-0.3-0.3-0.4-0.7-0.4-1.2c0-0.5,0.1-1,0.4-1.3c0.3-0.3,0.6-0.4,1.1-0.4c0.4,0,0.7,0.1,1,0.4c0.1,0.1,0.3,0.3,0.3,0.6l-0.6,0.2
					c0-0.2-0.1-0.3-0.2-0.4c-0.1-0.1-0.3-0.1-0.4-0.1c-0.2,0-0.4,0.1-0.6,0.3c-0.1,0.2-0.2,0.5-0.2,0.8c0,0.4,0.1,0.7,0.2,0.9
					c0.1,0.2,0.3,0.3,0.6,0.3c0.2,0,0.3-0.1,0.5-0.2C26.4,41.9,26.5,41.7,26.6,41.5z"/>
				<path fill="#FFFFFF" d="M27.5,42.7v-3.2h0.7v1.3h1.3v-1.3h0.7v3.2h-0.7v-1.4h-1.3v1.4H27.5z"/>
				<path fill="#FFFFFF" d="M33.5,42.7h-0.7l-0.3-0.7h-1.3l-0.3,0.7h-0.7l1.3-3.2h0.7L33.5,42.7z M32.2,41.4l-0.4-1.2l-0.4,1.2H32.2
					z"/>
				<path fill="#FFFFFF" d="M33.5,42.7v-3.2h0.7v3.2H33.5z"/>
				<path fill="#FFFFFF" d="M34.5,42.7v-3.2h0.6l1.3,2.2v-2.2h0.6v3.2h-0.7l-1.3-2.1v2.1H34.5z"/>
				<path fill="#FFFFFF" d="M38.5,42.7v-3.2h2.2V40h-1.6v0.8h1.4v0.5h-1.4v1.4H38.5z"/>
				<path fill="#FFFFFF" d="M41,42.7v-3.2h0.7v3.2H41z"/>
				<path fill="#FFFFFF" d="M42,42.7v-3.2h0.6l1.3,2.2v-2.2h0.6v3.2h-0.7l-1.3-2.1v2.1H42z"/>
				<path fill="#FFFFFF" d="M47.9,42.7h-0.7l-0.3-0.7h-1.3l-0.3,0.7h-0.7l1.3-3.2h0.7L47.9,42.7z M46.7,41.4l-0.4-1.2l-0.4,1.2H46.7
					z"/>
				<path fill="#FFFFFF" d="M48,42.7v-3.2h0.6l1.3,2.2v-2.2h0.6v3.2h-0.7l-1.3-2.1v2.1H48z"/>
				<path fill="#FFFFFF" d="M53.1,41.5l0.6,0.2c-0.1,0.4-0.3,0.6-0.5,0.8c-0.2,0.2-0.5,0.3-0.9,0.3c-0.4,0-0.8-0.1-1.1-0.4
					c-0.3-0.3-0.4-0.7-0.4-1.2c0-0.5,0.1-1,0.4-1.3c0.3-0.3,0.6-0.4,1.1-0.4c0.4,0,0.7,0.1,1,0.4c0.1,0.1,0.3,0.3,0.3,0.6l-0.6,0.2
					c0-0.2-0.1-0.3-0.2-0.4c-0.1-0.1-0.3-0.1-0.4-0.1c-0.2,0-0.4,0.1-0.6,0.3c-0.2,0.2-0.2,0.5-0.2,0.8c0,0.4,0.1,0.7,0.2,0.9
					c0.1,0.2,0.3,0.3,0.6,0.3c0.2,0,0.3-0.1,0.4-0.2C53,41.9,53,41.7,53.1,41.5z"/>
				<path fill="#FFFFFF" d="M54,42.7v-3.2h2.4V40h-1.8v0.7h1.6v0.5h-1.6v0.9h1.8v0.5H54z"/>
			</g>
		</g>
		<g>
			<path fill="#C12732" d="M12.5,25.9l-3.3-3.5v-7.1l3.3-3.5h3.3l3.3-3.5h10l3.3,3.5H20.8l-3.3,3.5h-3.3L12.5,17v3.5l1.7,1.8h1.7
				l3.3,3.5H12.5z M12.5,33l-3.3-3.5h14.9l3.3,3.5H12.5z M27.5,25.9l-1.7-1.8v-1.8h-5l-1.7-1.8l1.7-1.8h5V17l1.7-1.8h6.6l1.7,1.8
				v1.8h5l1.7,1.8l-1.7,1.8h-5v1.8l-1.7,1.8H27.5z M32.4,33l-3.3-3.5h11.6l3.3-3.5h3.3l1.7-1.8v-3.5l-1.7-1.8h-1.7l-3.3-3.5H49
				l3.3,3.5v7.1L49,29.4h-3.3L42.4,33H32.4z M32.4,22.3v-3.5h-3.3v3.5H32.4z M37.4,11.7l-3.3-3.5H49l3.3,3.5H37.4z"/>
		</g>
	</g>
</g>
</svg>
