<?xml version="1.0" encoding="utf-8"?>
<!-- Generator: Adobe Illustrator 18.0.0, SVG Export Plug-In . SVG Version: 6.00 Build 0)  -->
<!DOCTYPE svg PUBLIC "-//W3C//DTD SVG 1.1//EN" "http://www.w3.org/Graphics/SVG/1.1/DTD/svg11.dtd">
<svg version="1.1" xmlns="http://www.w3.org/2000/svg" xmlns:xlink="http://www.w3.org/1999/xlink" x="0px" y="0px"
	 viewBox="0 0 63.9 48.6" enable-background="new 0 0 63.9 48.6" xml:space="preserve">
<pattern  x="331.5" y="-692.1" width="74.3" height="71.1" patternUnits="userSpaceOnUse" id="New_Pattern_Swatch_4" viewBox="0 -71.1 74.3 71.1" overflow="visible">
	<g>
		<polygon fill="none" points="0,0 74.3,0 74.3,-71.1 0,-71.1 		"/>
		<polygon fill="#001B30" points="74.3,0 0,0 0,-71.1 74.3,-71.1 		"/>
	</g>
</pattern>
<g id="Bacground">
</g>
<g id="ICONS" display="none">
</g>
<g id="Line_work">
</g>
<g id="Logo">
</g>
<g id="ICONS_in_SITU">
	<g>
		<polygon opacity="0.4" fill="#032B44" stroke="url(#New_Pattern_Swatch_4)" stroke-miterlimit="10" points="63.4,48.1 0.5,48.1 
			0.5,0.5 52.3,0.5 52.3,0.5 63.4,11.3 		"/>
		<g>
			<g>
				<path fill="#FFFFFF" d="M19.9,42.7v-3.2h1.4c0.3,0,0.6,0,0.8,0.1c0.2,0.1,0.3,0.2,0.4,0.3c0.1,0.1,0.1,0.3,0.1,0.5
					c0,0.2-0.1,0.4-0.2,0.6c-0.1,0.2-0.4,0.3-0.6,0.3c0.1,0.1,0.3,0.2,0.4,0.3c0.1,0.1,0.2,0.3,0.4,0.5l0.4,0.6H22L21.5,42
					c-0.2-0.3-0.3-0.4-0.3-0.5c-0.1-0.1-0.1-0.1-0.2-0.1c-0.1,0-0.2,0-0.3,0h-0.1v1.4H19.9z M20.5,40.8H21c0.3,0,0.5,0,0.6,0
					c0.1,0,0.1-0.1,0.2-0.1c0-0.1,0.1-0.1,0.1-0.2c0-0.1,0-0.2-0.1-0.3C21.7,40,21.6,40,21.5,40c-0.1,0-0.2,0-0.5,0h-0.5V40.8z"/>
				<path fill="#FFFFFF" d="M22.9,42.7v-3.2h2.4V40h-1.8v0.7h1.6v0.5h-1.6v0.9h1.8v0.5H22.9z"/>
				<path fill="#FFFFFF" d="M25.6,42.7v-3.2h1.1c0.4,0,0.7,0,0.8,0c0.2,0.1,0.3,0.2,0.5,0.3c0.1,0.2,0.2,0.4,0.2,0.6
					c0,0.2,0,0.4-0.1,0.5c-0.1,0.1-0.2,0.2-0.3,0.3c-0.1,0.1-0.2,0.1-0.3,0.2c-0.2,0-0.4,0-0.7,0h-0.4v1.2H25.6z M26.3,40v0.9h0.4
					c0.3,0,0.4,0,0.5-0.1c0.1,0,0.2-0.1,0.2-0.2c0-0.1,0.1-0.2,0.1-0.3c0-0.1,0-0.2-0.1-0.3c-0.1-0.1-0.2-0.1-0.3-0.1
					c-0.1,0-0.2,0-0.5,0H26.3z"/>
				<path fill="#FFFFFF" d="M28.2,41.1c0-0.3,0-0.6,0.1-0.8c0.1-0.2,0.2-0.3,0.3-0.4c0.1-0.1,0.3-0.2,0.4-0.3
					c0.2-0.1,0.4-0.1,0.7-0.1c0.5,0,0.9,0.1,1.1,0.4c0.3,0.3,0.4,0.7,0.4,1.2c0,0.5-0.1,0.9-0.4,1.2c-0.3,0.3-0.7,0.4-1.1,0.4
					c-0.5,0-0.9-0.1-1.2-0.4C28.4,42,28.2,41.6,28.2,41.1z M28.9,41c0,0.4,0.1,0.6,0.3,0.8c0.2,0.2,0.4,0.3,0.6,0.3s0.5-0.1,0.6-0.3
					c0.2-0.2,0.3-0.5,0.3-0.8c0-0.4-0.1-0.7-0.2-0.8c-0.2-0.2-0.4-0.3-0.7-0.3c-0.3,0-0.5,0.1-0.7,0.3C29,40.4,28.9,40.7,28.9,41z"
					/>
				<path fill="#FFFFFF" d="M31.6,42.7v-3.2H33c0.3,0,0.6,0,0.8,0.1c0.2,0.1,0.3,0.2,0.4,0.3c0.1,0.1,0.1,0.3,0.1,0.5
					c0,0.2-0.1,0.4-0.2,0.6c-0.1,0.2-0.4,0.3-0.6,0.3c0.1,0.1,0.3,0.2,0.4,0.3c0.1,0.1,0.2,0.3,0.4,0.5l0.4,0.6h-0.8L33.3,42
					c-0.2-0.3-0.3-0.4-0.3-0.5c-0.1-0.1-0.1-0.1-0.2-0.1c-0.1,0-0.2,0-0.3,0h-0.1v1.4H31.6z M32.3,40.8h0.5c0.3,0,0.5,0,0.6,0
					c0.1,0,0.1-0.1,0.2-0.1c0-0.1,0.1-0.1,0.1-0.2c0-0.1,0-0.2-0.1-0.3C33.5,40,33.4,40,33.3,40c-0.1,0-0.2,0-0.5,0h-0.5V40.8z"/>
				<path fill="#FFFFFF" d="M35.4,42.7V40h-1v-0.6H37V40h-1v2.7H35.4z"/>
				<path fill="#FFFFFF" d="M37.1,42.7v-3.2h0.7v3.2H37.1z"/>
				<path fill="#FFFFFF" d="M38.1,42.7v-3.2h0.6l1.3,2.2v-2.2h0.6v3.2h-0.7l-1.3-2.1v2.1H38.1z"/>
				<path fill="#FFFFFF" d="M42.7,41.5v-0.5h1.4v1.3c-0.1,0.1-0.3,0.2-0.6,0.4c-0.3,0.1-0.5,0.2-0.8,0.2c-0.3,0-0.6-0.1-0.9-0.2
					c-0.3-0.1-0.4-0.3-0.6-0.6C41.1,41.6,41,41.3,41,41c0-0.3,0.1-0.6,0.2-0.9c0.1-0.3,0.3-0.5,0.6-0.6c0.2-0.1,0.5-0.2,0.8-0.2
					c0.4,0,0.7,0.1,0.9,0.3c0.2,0.2,0.4,0.4,0.4,0.7l-0.7,0.1c0-0.2-0.1-0.3-0.3-0.4c-0.1-0.1-0.3-0.1-0.5-0.1
					c-0.3,0-0.5,0.1-0.7,0.3c-0.2,0.2-0.3,0.5-0.3,0.8c0,0.4,0.1,0.7,0.3,0.9c0.2,0.2,0.4,0.3,0.7,0.3c0.1,0,0.3,0,0.4-0.1
					c0.1-0.1,0.3-0.1,0.4-0.2v-0.4H42.7z"/>
			</g>
		</g>
		<g>
			<path fill="#C12732" d="M12.9,32.1V25l-3.3-3.5V10.9l3.3-3.5h8.3l3.3,3.5h6.6l3.3,3.5H22.8l-3.3-3.5h-5l-1.7,1.8v7.1l3.3,3.5v8.9
				H12.9z M19.5,25l6.6-7.1h11.6l-3.3,3.5h-6.6L24.5,25H19.5z M47.7,32.1l-3.3-3.5H26.1l3.3-3.5H46l6.6,7.1H47.7z M39.4,14.4
				l-6.6-7.1h5l6.6,7.1H39.4z M39.4,21.5l3.3-3.5h5l1.7-1.8v-1.8l-6.6-7.1h5l5,5.3v5.3l-3.3,3.5H39.4z"/>
		</g>
	</g>
</g>
</svg>
