<?xml version="1.0" encoding="utf-8"?>
<!-- Generator: Adobe Illustrator 18.0.0, SVG Export Plug-In . SVG Version: 6.00 Build 0)  -->
<!DOCTYPE svg PUBLIC "-//W3C//DTD SVG 1.1//EN" "http://www.w3.org/Graphics/SVG/1.1/DTD/svg11.dtd">
<svg version="1.1" xmlns="http://www.w3.org/2000/svg" xmlns:xlink="http://www.w3.org/1999/xlink" x="0px" y="0px"
	 viewBox="0 0 63.9 48.6" enable-background="new 0 0 63.9 48.6" xml:space="preserve">
<pattern  x="331.5" y="-755.8" width="74.3" height="71.1" patternUnits="userSpaceOnUse" id="New_Pattern_Swatch_4" viewBox="0 -71.1 74.3 71.1" overflow="visible">
	<g>
		<polygon fill="none" points="0,0 74.3,0 74.3,-71.1 0,-71.1 		"/>
		<polygon fill="#001B30" points="74.3,0 0,0 0,-71.1 74.3,-71.1 		"/>
	</g>
</pattern>
<g id="Bacground">
</g>
<g id="ICONS" display="none">
</g>
<g id="Line_work">
</g>
<g id="Logo">
</g>
<g id="ICONS_in_SITU">
	<g>
		<polygon opacity="0.4" fill="#032B44" stroke="url(#New_Pattern_Swatch_4)" stroke-miterlimit="10" points="63.4,48.1 0.5,48.1 
			0.5,0.5 52.3,0.5 52.3,0.5 63.4,11.3 		"/>
		<g>
			<g>
				<path fill="#FFFFFF" d="M16.5,39.4h1.2c0.3,0,0.5,0,0.6,0.1c0.2,0.1,0.4,0.2,0.5,0.3c0.1,0.1,0.2,0.3,0.3,0.5
					c0.1,0.2,0.1,0.5,0.1,0.8c0,0.3,0,0.5-0.1,0.7c-0.1,0.2-0.2,0.4-0.3,0.6c-0.1,0.1-0.3,0.2-0.5,0.3c-0.1,0-0.3,0.1-0.6,0.1h-1.2
					V39.4z M17.2,40v2.2h0.5c0.2,0,0.3,0,0.4,0c0.1,0,0.2-0.1,0.3-0.1c0.1-0.1,0.1-0.2,0.2-0.3c0-0.1,0.1-0.3,0.1-0.6
					c0-0.2,0-0.4-0.1-0.6c0-0.1-0.1-0.2-0.2-0.3C18.2,40.1,18.1,40,18,40c-0.1,0-0.3,0-0.5,0H17.2z"/>
				<path fill="#FFFFFF" d="M19.5,42.7v-3.2h2.4V40h-1.8v0.7h1.6v0.5h-1.6v0.9H22v0.5H19.5z"/>
				<path fill="#FFFFFF" d="M22.1,41.6l0.6-0.1c0,0.2,0.1,0.4,0.2,0.5c0.1,0.1,0.3,0.2,0.5,0.2c0.2,0,0.4,0,0.5-0.1
					c0.1-0.1,0.2-0.2,0.2-0.3c0-0.1,0-0.1-0.1-0.2c0-0.1-0.1-0.1-0.2-0.1c-0.1,0-0.3-0.1-0.5-0.1c-0.4-0.1-0.6-0.2-0.7-0.3
					c-0.2-0.2-0.3-0.4-0.3-0.7c0-0.2,0-0.3,0.1-0.5c0.1-0.1,0.2-0.3,0.4-0.3c0.2-0.1,0.4-0.1,0.6-0.1c0.4,0,0.7,0.1,0.9,0.3
					c0.2,0.2,0.3,0.4,0.3,0.7l-0.7,0c0-0.2-0.1-0.3-0.2-0.4c-0.1-0.1-0.2-0.1-0.4-0.1c-0.2,0-0.3,0-0.4,0.1
					c-0.1,0.1-0.1,0.1-0.1,0.2c0,0.1,0,0.1,0.1,0.2c0.1,0.1,0.3,0.1,0.6,0.2c0.3,0.1,0.6,0.2,0.7,0.2c0.2,0.1,0.3,0.2,0.4,0.3
					c0.1,0.1,0.1,0.3,0.1,0.5c0,0.2-0.1,0.4-0.2,0.5c-0.1,0.2-0.2,0.3-0.4,0.4c-0.2,0.1-0.4,0.1-0.7,0.1c-0.4,0-0.7-0.1-0.9-0.3
					C22.3,42.2,22.2,42,22.1,41.6z"/>
				<path fill="#FFFFFF" d="M25,42.7v-3.2h0.7v3.2H25z"/>
				<path fill="#FFFFFF" d="M27.5,41.5v-0.5H29v1.3c-0.1,0.1-0.3,0.2-0.6,0.3c-0.3,0.1-0.5,0.2-0.8,0.2c-0.3,0-0.6-0.1-0.9-0.2
					c-0.3-0.1-0.4-0.3-0.6-0.6c-0.1-0.3-0.2-0.6-0.2-0.9c0-0.3,0.1-0.6,0.2-0.9c0.1-0.3,0.3-0.5,0.6-0.6c0.2-0.1,0.5-0.2,0.8-0.2
					c0.4,0,0.7,0.1,0.9,0.3c0.2,0.2,0.4,0.4,0.4,0.7l-0.7,0.1c0-0.2-0.1-0.3-0.3-0.4c-0.1-0.1-0.3-0.1-0.5-0.1
					c-0.3,0-0.5,0.1-0.7,0.3c-0.2,0.2-0.3,0.5-0.3,0.8c0,0.4,0.1,0.7,0.3,0.9c0.2,0.2,0.4,0.3,0.7,0.3c0.1,0,0.3,0,0.4-0.1
					c0.1-0.1,0.3-0.1,0.4-0.2v-0.4H27.5z"/>
				<path fill="#FFFFFF" d="M29.3,42.7v-3.2h0.6l1.3,2.2v-2.2h0.6v3.2h-0.7l-1.3-2.1v2.1H29.3z"/>
				<path fill="#FFFFFF" d="M34,42.7v-1.4l-1.2-1.9h0.8l0.8,1.3l0.7-1.3h0.8l-1.2,1.9v1.4H34z"/>
				<path fill="#FFFFFF" d="M35.8,41.1c0-0.3,0-0.6,0.1-0.8c0.1-0.2,0.2-0.3,0.3-0.4c0.1-0.1,0.3-0.2,0.4-0.3
					c0.2-0.1,0.4-0.1,0.7-0.1c0.5,0,0.9,0.1,1.1,0.4c0.3,0.3,0.4,0.7,0.4,1.2c0,0.5-0.1,0.9-0.4,1.2c-0.3,0.3-0.7,0.4-1.1,0.4
					c-0.5,0-0.9-0.1-1.2-0.4C36,42,35.8,41.6,35.8,41.1z M36.5,41c0,0.4,0.1,0.6,0.3,0.8c0.2,0.2,0.4,0.3,0.6,0.3s0.5-0.1,0.6-0.3
					c0.2-0.2,0.3-0.5,0.3-0.8c0-0.4-0.1-0.7-0.2-0.8c-0.2-0.2-0.4-0.3-0.7-0.3s-0.5,0.1-0.7,0.3C36.6,40.4,36.5,40.7,36.5,41z"/>
				<path fill="#FFFFFF" d="M39.2,39.4h0.7v1.8c0,0.3,0,0.5,0,0.5c0,0.1,0.1,0.2,0.2,0.3c0.1,0.1,0.2,0.1,0.4,0.1
					c0.2,0,0.3,0,0.4-0.1c0.1-0.1,0.2-0.2,0.2-0.3c0-0.1,0-0.3,0-0.6v-1.8h0.7v1.7c0,0.4,0,0.7-0.1,0.8c0,0.2-0.1,0.3-0.2,0.4
					c-0.1,0.1-0.2,0.2-0.4,0.3c-0.2,0.1-0.4,0.1-0.6,0.1c-0.3,0-0.5,0-0.7-0.1c-0.2-0.1-0.3-0.2-0.4-0.3c-0.1-0.1-0.2-0.2-0.2-0.4
					c0-0.2-0.1-0.5-0.1-0.8V39.4z"/>
				<path fill="#FFFFFF" d="M42.2,42.7v-3.2h1.4c0.3,0,0.6,0,0.8,0.1s0.3,0.2,0.4,0.3c0.1,0.2,0.1,0.3,0.1,0.5
					c0,0.2-0.1,0.4-0.2,0.6c-0.1,0.2-0.4,0.3-0.6,0.3c0.1,0.1,0.3,0.2,0.4,0.3c0.1,0.1,0.2,0.3,0.4,0.5l0.4,0.6h-0.8L43.9,42
					c-0.2-0.3-0.3-0.4-0.3-0.5c-0.1-0.1-0.1-0.1-0.2-0.1c-0.1,0-0.2,0-0.3,0h-0.1v1.4H42.2z M42.9,40.8h0.5c0.3,0,0.5,0,0.6,0
					c0.1,0,0.1-0.1,0.2-0.1c0-0.1,0.1-0.1,0.1-0.2c0-0.1,0-0.2-0.1-0.3C44.1,40,44,40,43.9,40c-0.1,0-0.2,0-0.5,0h-0.5V40.8z"/>
				<path fill="#FFFFFF" d="M45.1,41.6l0.6-0.1c0,0.2,0.1,0.4,0.2,0.5c0.1,0.1,0.3,0.2,0.5,0.2c0.2,0,0.4,0,0.5-0.1
					c0.1-0.1,0.2-0.2,0.2-0.3c0-0.1,0-0.1-0.1-0.2c0-0.1-0.1-0.1-0.2-0.1c-0.1,0-0.3-0.1-0.5-0.1c-0.4-0.1-0.6-0.2-0.7-0.3
					c-0.2-0.2-0.3-0.4-0.3-0.7c0-0.2,0-0.3,0.1-0.5c0.1-0.1,0.2-0.3,0.4-0.3c0.2-0.1,0.4-0.1,0.6-0.1c0.4,0,0.7,0.1,0.9,0.3
					c0.2,0.2,0.3,0.4,0.3,0.7l-0.7,0c0-0.2-0.1-0.3-0.2-0.4c-0.1-0.1-0.2-0.1-0.4-0.1c-0.2,0-0.3,0-0.4,0.1
					c-0.1,0.1-0.1,0.1-0.1,0.2c0,0.1,0,0.1,0.1,0.2c0.1,0.1,0.3,0.1,0.6,0.2c0.3,0.1,0.6,0.2,0.7,0.2c0.2,0.1,0.3,0.2,0.4,0.3
					c0.1,0.1,0.1,0.3,0.1,0.5c0,0.2-0.1,0.4-0.2,0.5c-0.1,0.2-0.2,0.3-0.4,0.4c-0.2,0.1-0.4,0.1-0.7,0.1c-0.4,0-0.7-0.1-0.9-0.3
					C45.2,42.2,45.1,42,45.1,41.6z"/>
			</g>
		</g>
		<g>
			<path fill="#C12732" d="M16.4,33l3.3-3.5h3.3v-1.8l-8.3-8.9h-1.7l-3.3-3.5V9.9l5,5.3h1.7l10,10.6V33H16.4z M29.7,33v-8.9
				L18.1,11.7h-1.7l-3.3-3.5h6.6l11.6,12.4L43,8.2h6.6l-3.3,3.5h-1.7L33,24.1V33H29.7z M24.7,8.2h5l1.7,1.8L33,8.2h5l-6.6,7.1
				L24.7,8.2z M36.3,33v-7.1l10-10.6H48l5-5.3v5.3l-3.3,3.5H48l-8.3,8.9v1.8H43l3.3,3.5H36.3z"/>
		</g>
	</g>
</g>
</svg>
