<?xml version="1.0" encoding="utf-8"?>
<!-- Generator: Adobe Illustrator 18.0.0, SVG Export Plug-In . SVG Version: 6.00 Build 0)  -->
<!DOCTYPE svg PUBLIC "-//W3C//DTD SVG 1.1//EN" "http://www.w3.org/Graphics/SVG/1.1/DTD/svg11.dtd">
<svg version="1.1" xmlns="http://www.w3.org/2000/svg" xmlns:xlink="http://www.w3.org/1999/xlink" x="0px" y="0px"
	 viewBox="0 0 63.9 40.3" enable-background="new 0 0 63.9 40.3" xml:space="preserve">
<pattern  x="331.5" y="-755.8" width="74.3" height="71.1" patternUnits="userSpaceOnUse" id="New_Pattern_Swatch_4" viewBox="0 -71.1 74.3 71.1" overflow="visible">
	<g>
		<polygon fill="none" points="0,0 74.3,0 74.3,-71.1 0,-71.1 		"/>
		<polygon fill="#001B30" points="74.3,0 0,0 0,-71.1 74.3,-71.1 		"/>
	</g>
</pattern>
<g id="Bacground">
</g>
<g id="ICONS" display="none">
</g>
<g id="Line_work">
</g>
<g id="Logo">
</g>
<g id="ICONS_in_SITU">
	<g>
		<g>
			<polygon opacity="0.4" fill="#032B44" stroke="url(#New_Pattern_Swatch_4)" stroke-miterlimit="10" points="63.4,48.1 0.5,48.1 
				0.5,0.5 52.3,0.5 52.3,0.5 63.4,11.3 			"/>
			<g>
				<path fill="#C12732" d="M16.4,33l3.3-3.5h3.3v-1.8l-8.3-8.9h-1.7l-3.3-3.5V9.9l5,5.3h1.7l10,10.6V33H16.4z M29.7,33v-8.9
					L18.1,11.7h-1.7l-3.3-3.5h6.6l11.6,12.4L43,8.2h6.6l-3.3,3.5h-1.7L33,24.1V33H29.7z M24.7,8.2h5l1.7,1.8L33,8.2h5l-6.6,7.1
					L24.7,8.2z M36.3,33v-7.1l10-10.6H48l5-5.3v5.3l-3.3,3.5H48l-8.3,8.9v1.8H43l3.3,3.5H36.3z"/>
			</g>
		</g>
	</g>
</g>
</svg>
