<?xml version="1.0" encoding="utf-8"?>
<!-- Generator: Adobe Illustrator 18.0.0, SVG Export Plug-In . SVG Version: 6.00 Build 0)  -->
<!DOCTYPE svg PUBLIC "-//W3C//DTD SVG 1.1//EN" "http://www.w3.org/Graphics/SVG/1.1/DTD/svg11.dtd">
<svg version="1.1" xmlns="http://www.w3.org/2000/svg" xmlns:xlink="http://www.w3.org/1999/xlink" x="0px" y="0px"
	 viewBox="0 0 63.9 48.6" enable-background="new 0 0 63.9 48.6" xml:space="preserve">
<pattern  x="331.5" y="-755.8" width="74.3" height="71.1" patternUnits="userSpaceOnUse" id="New_Pattern_Swatch_4" viewBox="0 -71.1 74.3 71.1" overflow="visible">
	<g>
		<polygon fill="none" points="0,0 74.3,0 74.3,-71.1 0,-71.1 		"/>
		<polygon fill="#001B30" points="74.3,0 0,0 0,-71.1 74.3,-71.1 		"/>
	</g>
</pattern>
<g id="Bacground">
</g>
<g id="ICONS" display="none">
</g>
<g id="Line_work">
</g>
<g id="Logo">
</g>
<g id="ICONS_in_SITU">
	<g>
		<g>
			<polygon opacity="0.4" fill="#032B44" stroke="url(#New_Pattern_Swatch_4)" stroke-miterlimit="10" points="63.4,48.1 0.5,48.1 
				0.5,0.5 52.3,0.5 52.3,0.5 63.4,11.3 			"/>
			<g>
				<path fill="#C12732" d="M16.4,33l3.3-3.5h3.3v-1.8l-8.3-8.9h-1.7l-3.3-3.5V9.9l5,5.3h1.7l10,10.6V33H16.4z M29.7,33v-8.9
					L18.1,11.7h-1.7l-3.3-3.5h6.6l11.6,12.4L43,8.2h6.6l-3.3,3.5h-1.7L33,24.1V33H29.7z M24.7,8.2h5l1.7,1.8L33,8.2h5l-6.6,7.1
					L24.7,8.2z M36.3,33v-7.1l10-10.6H48l5-5.3v5.3l-3.3,3.5H48l-8.3,8.9v1.8H43l3.3,3.5H36.3z"/>
			</g>
		</g>
	</g>
	<g>
		<g>
			<path fill="#FFFFFF" d="M14.6,39.7H16c0.3,0,0.5,0,0.7,0.1c0.2,0.1,0.4,0.2,0.6,0.3c0.2,0.2,0.3,0.4,0.3,0.6
				c0.1,0.2,0.1,0.5,0.1,0.9c0,0.3,0,0.6-0.1,0.8c-0.1,0.3-0.2,0.5-0.4,0.6c-0.1,0.1-0.3,0.2-0.5,0.3c-0.2,0.1-0.4,0.1-0.7,0.1h-1.4
				V39.7z M15.4,40.3v2.4h0.6c0.2,0,0.4,0,0.4,0c0.1,0,0.2-0.1,0.3-0.2c0.1-0.1,0.1-0.2,0.2-0.4c0-0.2,0.1-0.4,0.1-0.7
				c0-0.3,0-0.5-0.1-0.7c-0.1-0.1-0.1-0.3-0.2-0.4c-0.1-0.1-0.2-0.1-0.3-0.2c-0.1,0-0.3,0-0.6,0H15.4z"/>
			<path fill="#FFFFFF" d="M18,43.3v-3.7h2.7v0.6h-2v0.8h1.8v0.6h-1.8v1h2v0.6H18z"/>
			<path fill="#FFFFFF" d="M20.9,42.1l0.7-0.1c0,0.2,0.1,0.4,0.3,0.5c0.1,0.1,0.3,0.2,0.5,0.2c0.2,0,0.4-0.1,0.5-0.2
				c0.1-0.1,0.2-0.2,0.2-0.4c0-0.1,0-0.2-0.1-0.2C23,42,23,41.9,22.8,41.9c-0.1,0-0.3-0.1-0.6-0.2c-0.4-0.1-0.7-0.2-0.8-0.4
				c-0.2-0.2-0.3-0.4-0.3-0.7c0-0.2,0.1-0.4,0.2-0.5c0.1-0.2,0.3-0.3,0.5-0.4c0.2-0.1,0.4-0.1,0.7-0.1c0.5,0,0.8,0.1,1,0.3
				c0.2,0.2,0.4,0.5,0.4,0.8l-0.7,0c0-0.2-0.1-0.3-0.2-0.4c-0.1-0.1-0.3-0.1-0.5-0.1c-0.2,0-0.4,0-0.5,0.1c-0.1,0.1-0.1,0.1-0.1,0.2
				c0,0.1,0,0.2,0.1,0.2c0.1,0.1,0.3,0.2,0.7,0.2c0.4,0.1,0.6,0.2,0.8,0.3c0.2,0.1,0.3,0.2,0.4,0.4c0.1,0.2,0.1,0.4,0.1,0.6
				c0,0.2-0.1,0.4-0.2,0.6c-0.1,0.2-0.3,0.3-0.5,0.4c-0.2,0.1-0.5,0.1-0.8,0.1c-0.5,0-0.8-0.1-1.1-0.3C21.1,42.9,21,42.6,20.9,42.1z
				"/>
			<path fill="#FFFFFF" d="M24.2,43.3v-3.7h0.7v3.7H24.2z"/>
			<path fill="#FFFFFF" d="M27.1,42v-0.6h1.6v1.5c-0.2,0.1-0.4,0.3-0.7,0.4c-0.3,0.1-0.6,0.2-0.9,0.2c-0.4,0-0.7-0.1-1-0.2
				c-0.3-0.2-0.5-0.4-0.6-0.7c-0.1-0.3-0.2-0.6-0.2-1c0-0.4,0.1-0.7,0.2-1c0.2-0.3,0.4-0.5,0.7-0.7c0.2-0.1,0.5-0.2,0.9-0.2
				c0.5,0,0.8,0.1,1.1,0.3c0.3,0.2,0.4,0.5,0.5,0.8l-0.7,0.1c-0.1-0.2-0.1-0.3-0.3-0.4c-0.1-0.1-0.3-0.2-0.5-0.2
				c-0.3,0-0.6,0.1-0.8,0.3c-0.2,0.2-0.3,0.5-0.3,0.9c0,0.4,0.1,0.8,0.3,1c0.2,0.2,0.4,0.3,0.8,0.3c0.2,0,0.3,0,0.5-0.1
				c0.2-0.1,0.3-0.1,0.4-0.2V42H27.1z"/>
			<path fill="#FFFFFF" d="M29,43.3v-3.7h0.7l1.5,2.4v-2.4h0.7v3.7h-0.7L29.7,41v2.4H29z"/>
			<path fill="#FFFFFF" d="M34.4,43.3v-1.5l-1.3-2.1h0.9l0.9,1.5l0.8-1.5h0.9l-1.3,2.1v1.5H34.4z"/>
			<path fill="#FFFFFF" d="M36.4,41.5c0-0.4,0.1-0.7,0.2-0.9c0.1-0.2,0.2-0.4,0.3-0.5c0.1-0.1,0.3-0.3,0.5-0.3
				c0.2-0.1,0.5-0.1,0.8-0.1c0.5,0,1,0.2,1.3,0.5c0.3,0.3,0.5,0.8,0.5,1.4c0,0.6-0.2,1.1-0.5,1.4c-0.3,0.3-0.8,0.5-1.3,0.5
				c-0.5,0-1-0.2-1.3-0.5C36.6,42.6,36.4,42.1,36.4,41.5z M37.2,41.5c0,0.4,0.1,0.7,0.3,0.9c0.2,0.2,0.4,0.3,0.7,0.3
				s0.5-0.1,0.7-0.3c0.2-0.2,0.3-0.5,0.3-1c0-0.4-0.1-0.7-0.3-0.9c-0.2-0.2-0.4-0.3-0.7-0.3c-0.3,0-0.6,0.1-0.7,0.3
				C37.3,40.8,37.2,41.1,37.2,41.5z"/>
			<path fill="#FFFFFF" d="M40.2,39.7H41v2c0,0.3,0,0.5,0,0.6c0,0.2,0.1,0.3,0.2,0.4c0.1,0.1,0.3,0.1,0.5,0.1c0.2,0,0.4,0,0.5-0.1
				c0.1-0.1,0.2-0.2,0.2-0.3c0-0.1,0-0.3,0-0.6v-2h0.7v1.9c0,0.4,0,0.8-0.1,0.9c0,0.2-0.1,0.3-0.2,0.5c-0.1,0.1-0.3,0.2-0.4,0.3
				c-0.2,0.1-0.4,0.1-0.7,0.1c-0.3,0-0.6,0-0.8-0.1c-0.2-0.1-0.3-0.2-0.4-0.3c-0.1-0.1-0.2-0.3-0.2-0.4c0-0.2-0.1-0.5-0.1-0.9V39.7z
				"/>
			<path fill="#FFFFFF" d="M43.6,43.3v-3.7h1.6c0.4,0,0.7,0,0.9,0.1s0.3,0.2,0.4,0.4c0.1,0.2,0.2,0.4,0.2,0.6c0,0.3-0.1,0.5-0.2,0.7
				c-0.2,0.2-0.4,0.3-0.7,0.3c0.2,0.1,0.3,0.2,0.4,0.3c0.1,0.1,0.2,0.3,0.4,0.6l0.4,0.7H46l-0.5-0.8c-0.2-0.3-0.3-0.5-0.4-0.5
				c-0.1-0.1-0.1-0.1-0.2-0.2c-0.1,0-0.2,0-0.4,0h-0.1v1.5H43.6z M44.4,41.2h0.5c0.4,0,0.6,0,0.7,0c0.1,0,0.2-0.1,0.2-0.2
				c0.1-0.1,0.1-0.2,0.1-0.3c0-0.1,0-0.2-0.1-0.3c-0.1-0.1-0.2-0.1-0.3-0.1c-0.1,0-0.2,0-0.5,0h-0.6V41.2z"/>
			<path fill="#FFFFFF" d="M46.8,42.1l0.7-0.1c0,0.2,0.1,0.4,0.3,0.5c0.1,0.1,0.3,0.2,0.5,0.2c0.2,0,0.4-0.1,0.5-0.2
				c0.1-0.1,0.2-0.2,0.2-0.4c0-0.1,0-0.2-0.1-0.2c-0.1-0.1-0.1-0.1-0.3-0.2c-0.1,0-0.3-0.1-0.6-0.2c-0.4-0.1-0.7-0.2-0.8-0.4
				c-0.2-0.2-0.3-0.4-0.3-0.7c0-0.2,0.1-0.4,0.2-0.5c0.1-0.2,0.3-0.3,0.5-0.4c0.2-0.1,0.4-0.1,0.7-0.1c0.5,0,0.8,0.1,1,0.3
				c0.2,0.2,0.4,0.5,0.4,0.8l-0.7,0c0-0.2-0.1-0.3-0.2-0.4c-0.1-0.1-0.3-0.1-0.5-0.1c-0.2,0-0.4,0-0.5,0.1c-0.1,0.1-0.1,0.1-0.1,0.2
				c0,0.1,0,0.2,0.1,0.2c0.1,0.1,0.3,0.2,0.7,0.2c0.4,0.1,0.6,0.2,0.8,0.3c0.2,0.1,0.3,0.2,0.4,0.4c0.1,0.2,0.1,0.4,0.1,0.6
				c0,0.2-0.1,0.4-0.2,0.6c-0.1,0.2-0.3,0.3-0.5,0.4c-0.2,0.1-0.5,0.1-0.8,0.1c-0.5,0-0.8-0.1-1.1-0.3C47,42.9,46.9,42.6,46.8,42.1z
				"/>
		</g>
	</g>
</g>
</svg>
