<?xml version="1.0" encoding="utf-8"?>
<!-- Generator: Adobe Illustrator 18.0.0, SVG Export Plug-In . SVG Version: 6.00 Build 0)  -->
<!DOCTYPE svg PUBLIC "-//W3C//DTD SVG 1.1//EN" "http://www.w3.org/Graphics/SVG/1.1/DTD/svg11.dtd">
<svg version="1.1" xmlns="http://www.w3.org/2000/svg" xmlns:xlink="http://www.w3.org/1999/xlink" x="0px" y="0px"
	 viewBox="0 0 63.9 48.6" enable-background="new 0 0 63.9 48.6" xml:space="preserve">
<pattern  x="331.5" y="-118" width="74.3" height="71.1" patternUnits="userSpaceOnUse" id="New_Pattern_Swatch_4" viewBox="0 -71.1 74.3 71.1" overflow="visible">
	<g>
		<polygon fill="none" points="0,0 74.3,0 74.3,-71.1 0,-71.1 		"/>
		<polygon fill="#001B30" points="74.3,0 0,0 0,-71.1 74.3,-71.1 		"/>
	</g>
</pattern>
<g id="Bacground">
</g>
<g id="ICONS" display="none">
</g>
<g id="Line_work">
</g>
<g id="Logo">
</g>
<g id="ICONS_in_SITU">
	<g>
		<g>
			<polygon opacity="0.4" fill="#032B44" stroke="url(#New_Pattern_Swatch_4)" stroke-miterlimit="10" points="63.4,48.1 0.5,48.1 
				0.5,0.5 52.3,0.5 52.3,0.5 63.4,11.3 			"/>
			<g>
				<path fill="#C12732" d="M9.3,33l3.3-3.5h5l5-5.3V17l-5-5.3h-5L9.3,8.2h10l6.6,7.1v10.6L19.3,33H9.3z M29.3,11.7h-1.7l-3.3-3.5
					h13.3l-3.3,3.5h-1.7V17l-1.7-1.8L29.3,17V11.7z M24.3,33l3.3-3.5h1.7v-5.3l1.7,1.8l1.7-1.8v5.3h1.7l3.3,3.5H24.3z M29.3,20.6
					l1.7-1.8l1.7,1.8l-1.7,1.8L29.3,20.6z M42.5,33l-6.6-7.1V15.3l6.6-7.1h10l-3.3,3.5h-5l-5,5.3v7.1l5,5.3h5l3.3,3.5H42.5z"/>
			</g>
		</g>
	</g>
	<g>
		<path fill="#FFFFFF" d="M7.2,42l0.7,0.2c-0.1,0.4-0.3,0.7-0.6,0.9c-0.3,0.2-0.6,0.3-1,0.3c-0.5,0-0.9-0.2-1.2-0.5
			c-0.3-0.3-0.5-0.8-0.5-1.4c0-0.6,0.2-1.1,0.5-1.4c0.3-0.3,0.7-0.5,1.2-0.5c0.4,0,0.8,0.1,1.1,0.4c0.2,0.2,0.3,0.4,0.4,0.7
			l-0.7,0.2c0-0.2-0.1-0.3-0.3-0.5c-0.1-0.1-0.3-0.2-0.5-0.2c-0.3,0-0.5,0.1-0.7,0.3c-0.2,0.2-0.3,0.5-0.3,0.9c0,0.5,0.1,0.8,0.3,1
			c0.2,0.2,0.4,0.3,0.6,0.3c0.2,0,0.4-0.1,0.5-0.2C7,42.5,7.1,42.3,7.2,42z"/>
		<path fill="#FFFFFF" d="M11.5,43.4h-0.8l-0.3-0.8H8.9l-0.3,0.8H7.8l1.4-3.7H10L11.5,43.4z M10.1,41.9l-0.5-1.4l-0.5,1.4H10.1z"/>
		<path fill="#FFFFFF" d="M11.4,42.2l0.7-0.1c0,0.2,0.1,0.4,0.3,0.5c0.1,0.1,0.3,0.2,0.5,0.2c0.2,0,0.4-0.1,0.5-0.2
			c0.1-0.1,0.2-0.2,0.2-0.4c0-0.1,0-0.2-0.1-0.2c-0.1-0.1-0.1-0.1-0.3-0.2c-0.1,0-0.3-0.1-0.6-0.2c-0.4-0.1-0.7-0.2-0.8-0.4
			c-0.2-0.2-0.3-0.4-0.3-0.7c0-0.2,0.1-0.4,0.2-0.5c0.1-0.2,0.3-0.3,0.5-0.4c0.2-0.1,0.4-0.1,0.7-0.1c0.5,0,0.8,0.1,1,0.3
			c0.2,0.2,0.4,0.5,0.4,0.8l-0.7,0c0-0.2-0.1-0.3-0.2-0.4c-0.1-0.1-0.3-0.1-0.5-0.1c-0.2,0-0.4,0-0.5,0.1c-0.1,0.1-0.1,0.1-0.1,0.2
			c0,0.1,0,0.2,0.1,0.2c0.1,0.1,0.3,0.2,0.7,0.2c0.4,0.1,0.6,0.2,0.8,0.3c0.2,0.1,0.3,0.2,0.4,0.4c0.1,0.2,0.1,0.4,0.1,0.6
			c0,0.2-0.1,0.4-0.2,0.6c-0.1,0.2-0.3,0.3-0.5,0.4c-0.2,0.1-0.5,0.1-0.8,0.1c-0.5,0-0.8-0.1-1.1-0.3C11.6,42.9,11.5,42.6,11.4,42.2
			z"/>
		<path fill="#FFFFFF" d="M14.7,43.4v-3.7h0.7v1.4h1.5v-1.4h0.7v3.7h-0.7v-1.6h-1.5v1.6H14.7z"/>
		<path fill="#FFFFFF" d="M19.2,43.4v-3.7h2.5v0.6H20v0.9h1.5v0.6H20v1.6H19.2z"/>
		<path fill="#FFFFFF" d="M22.1,43.4v-3.6h0.7v3h1.8v0.6H22.1z"/>
		<path fill="#FFFFFF" d="M24.7,41.6c0-0.4,0.1-0.7,0.2-0.9c0.1-0.2,0.2-0.4,0.3-0.5c0.1-0.1,0.3-0.3,0.5-0.3
			c0.2-0.1,0.5-0.1,0.8-0.1c0.5,0,1,0.2,1.3,0.5c0.3,0.3,0.5,0.8,0.5,1.4c0,0.6-0.2,1.1-0.5,1.4c-0.3,0.3-0.8,0.5-1.3,0.5
			c-0.5,0-1-0.2-1.3-0.5C24.9,42.6,24.7,42.2,24.7,41.6z M25.5,41.6c0,0.4,0.1,0.7,0.3,0.9c0.2,0.2,0.4,0.3,0.7,0.3
			c0.3,0,0.5-0.1,0.7-0.3c0.2-0.2,0.3-0.5,0.3-1c0-0.4-0.1-0.7-0.3-0.9c-0.2-0.2-0.4-0.3-0.7-0.3c-0.3,0-0.6,0.1-0.7,0.3
			C25.6,40.8,25.5,41.1,25.5,41.6z"/>
		<path fill="#FFFFFF" d="M29.1,43.4l-0.9-3.7h0.8l0.6,2.5l0.7-2.5h0.9l0.6,2.6l0.6-2.6H33l-0.9,3.7h-0.8l-0.7-2.7l-0.7,2.7H29.1z"
			/>
		<path fill="#FFFFFF" d="M34.2,43.4v-3.7h2.5v0.6h-1.8v0.9h1.5v0.6h-1.5v1.6H34.2z"/>
		<path fill="#FFFFFF" d="M36.9,41.6c0-0.4,0.1-0.7,0.2-0.9c0.1-0.2,0.2-0.4,0.3-0.5c0.1-0.1,0.3-0.3,0.5-0.3
			c0.2-0.1,0.5-0.1,0.8-0.1c0.5,0,1,0.2,1.3,0.5c0.3,0.3,0.5,0.8,0.5,1.4c0,0.6-0.2,1.1-0.5,1.4c-0.3,0.3-0.8,0.5-1.3,0.5
			c-0.5,0-1-0.2-1.3-0.5C37,42.6,36.9,42.2,36.9,41.6z M37.6,41.6c0,0.4,0.1,0.7,0.3,0.9c0.2,0.2,0.4,0.3,0.7,0.3
			c0.3,0,0.5-0.1,0.7-0.3c0.2-0.2,0.3-0.5,0.3-1c0-0.4-0.1-0.7-0.3-0.9c-0.2-0.2-0.4-0.3-0.7-0.3c-0.3,0-0.6,0.1-0.7,0.3
			C37.7,40.8,37.6,41.1,37.6,41.6z"/>
		<path fill="#FFFFFF" d="M40.7,43.4v-3.7h1.6c0.4,0,0.7,0,0.9,0.1s0.3,0.2,0.4,0.4c0.1,0.2,0.2,0.4,0.2,0.6c0,0.3-0.1,0.5-0.2,0.7
			c-0.2,0.2-0.4,0.3-0.7,0.3c0.2,0.1,0.3,0.2,0.4,0.3c0.1,0.1,0.2,0.3,0.4,0.6l0.4,0.7h-0.9l-0.5-0.8c-0.2-0.3-0.3-0.5-0.4-0.5
			C42.1,42,42,41.9,42,41.9c-0.1,0-0.2,0-0.4,0h-0.2v1.5H40.7z M41.4,41.3H42c0.4,0,0.6,0,0.7,0c0.1,0,0.2-0.1,0.2-0.2
			c0.1-0.1,0.1-0.2,0.1-0.3c0-0.1,0-0.2-0.1-0.3c-0.1-0.1-0.2-0.1-0.3-0.1c-0.1,0-0.2,0-0.5,0h-0.6V41.3z"/>
		<path fill="#FFFFFF" d="M44.1,43.4v-3.7h2.7v0.6h-2v0.8h1.8v0.6h-1.8v1h2v0.6H44.1z"/>
		<path fill="#FFFFFF" d="M49.5,42l0.7,0.2c-0.1,0.4-0.3,0.7-0.5,0.9c-0.3,0.2-0.6,0.3-1,0.3c-0.5,0-0.9-0.2-1.2-0.5
			c-0.3-0.3-0.5-0.8-0.5-1.4c0-0.6,0.2-1.1,0.5-1.4c0.3-0.3,0.7-0.5,1.2-0.5c0.4,0,0.8,0.1,1.1,0.4c0.2,0.2,0.3,0.4,0.4,0.7
			l-0.7,0.2c0-0.2-0.1-0.3-0.3-0.5c-0.1-0.1-0.3-0.2-0.5-0.2c-0.3,0-0.5,0.1-0.7,0.3c-0.2,0.2-0.3,0.5-0.3,0.9c0,0.5,0.1,0.8,0.2,1
			c0.2,0.2,0.4,0.3,0.7,0.3c0.2,0,0.4-0.1,0.5-0.2C49.4,42.5,49.5,42.3,49.5,42z"/>
		<path fill="#FFFFFF" d="M53.9,43.4h-0.8l-0.3-0.8h-1.5L51,43.4h-0.8l1.4-3.7h0.8L53.9,43.4z M52.5,41.9L52,40.6l-0.5,1.4H52.5z"/>
		<path fill="#FFFFFF" d="M53.8,42.2l0.7-0.1c0,0.2,0.1,0.4,0.3,0.5c0.1,0.1,0.3,0.2,0.5,0.2c0.2,0,0.4-0.1,0.5-0.2
			c0.1-0.1,0.2-0.2,0.2-0.4c0-0.1,0-0.2-0.1-0.2c-0.1-0.1-0.1-0.1-0.3-0.2c-0.1,0-0.3-0.1-0.6-0.2c-0.4-0.1-0.7-0.2-0.8-0.4
			c-0.2-0.2-0.3-0.4-0.3-0.7c0-0.2,0.1-0.4,0.2-0.5c0.1-0.2,0.3-0.3,0.5-0.4c0.2-0.1,0.4-0.1,0.7-0.1c0.5,0,0.8,0.1,1,0.3
			c0.2,0.2,0.4,0.5,0.4,0.8l-0.7,0c0-0.2-0.1-0.3-0.2-0.4c-0.1-0.1-0.3-0.1-0.5-0.1c-0.2,0-0.4,0-0.5,0.1c-0.1,0.1-0.1,0.1-0.1,0.2
			c0,0.1,0,0.2,0.1,0.2c0.1,0.1,0.3,0.2,0.7,0.2c0.4,0.1,0.6,0.2,0.8,0.3c0.2,0.1,0.3,0.2,0.4,0.4c0.1,0.2,0.1,0.4,0.1,0.6
			c0,0.2-0.1,0.4-0.2,0.6c-0.1,0.2-0.3,0.3-0.5,0.4c-0.2,0.1-0.5,0.1-0.8,0.1c-0.5,0-0.8-0.1-1.1-0.3C54,42.9,53.8,42.6,53.8,42.2z"
			/>
		<path fill="#FFFFFF" d="M57.9,43.4v-3h-1.1v-0.6h2.9v0.6h-1.1v3H57.9z"/>
	</g>
</g>
</svg>
