<?xml version="1.0" encoding="utf-8"?>
<!-- Generator: Adobe Illustrator 18.0.0, SVG Export Plug-In . SVG Version: 6.00 Build 0)  -->
<!DOCTYPE svg PUBLIC "-//W3C//DTD SVG 1.1//EN" "http://www.w3.org/Graphics/SVG/1.1/DTD/svg11.dtd">
<svg version="1.1" xmlns="http://www.w3.org/2000/svg" xmlns:xlink="http://www.w3.org/1999/xlink" x="0px" y="0px"
	 viewBox="0 0 63.9 48.6" enable-background="new 0 0 63.9 48.6" xml:space="preserve">
<pattern  x="331.5" y="-118" width="74.3" height="71.1" patternUnits="userSpaceOnUse" id="New_Pattern_Swatch_4" viewBox="0 -71.1 74.3 71.1" overflow="visible">
	<g>
		<polygon fill="none" points="0,0 74.3,0 74.3,-71.1 0,-71.1 		"/>
		<polygon fill="#001B30" points="74.3,0 0,0 0,-71.1 74.3,-71.1 		"/>
	</g>
</pattern>
<g id="Bacground">
</g>
<g id="ICONS" display="none">
</g>
<g id="Line_work">
</g>
<g id="Logo">
</g>
<g id="ICONS_in_SITU">
	<g>
		<polygon opacity="0.4" fill="#032B44" stroke="url(#New_Pattern_Swatch_4)" stroke-miterlimit="10" points="63.4,48.1 0.5,48.1 
			0.5,0.5 52.3,0.5 52.3,0.5 63.4,11.3 		"/>
		<g>
			<g>
				<path fill="#FFFFFF" d="M17.5,42.7v-3.2h0.7v3.2H17.5z"/>
				<path fill="#FFFFFF" d="M18.5,42.7v-3.2h0.6l1.3,2.2v-2.2h0.6v3.2h-0.7l-1.3-2.1v2.1H18.5z"/>
				<path fill="#FFFFFF" d="M22.3,42.7l-1.2-3.2h0.7l0.8,2.4l0.8-2.4h0.7L23,42.7H22.3z"/>
				<path fill="#FFFFFF" d="M24.2,42.7v-3.2h2.4V40h-1.8v0.7h1.6v0.5h-1.6v0.9h1.8v0.5H24.2z"/>
				<path fill="#FFFFFF" d="M26.8,41.6l0.6-0.1c0,0.2,0.1,0.4,0.2,0.5c0.1,0.1,0.3,0.2,0.5,0.2c0.2,0,0.4,0,0.5-0.1
					c0.1-0.1,0.2-0.2,0.2-0.3c0-0.1,0-0.1-0.1-0.2c0-0.1-0.1-0.1-0.2-0.1c-0.1,0-0.3-0.1-0.5-0.1c-0.4-0.1-0.6-0.2-0.7-0.3
					c-0.2-0.2-0.3-0.4-0.3-0.7c0-0.2,0-0.3,0.1-0.5c0.1-0.1,0.2-0.3,0.4-0.3c0.2-0.1,0.4-0.1,0.6-0.1c0.4,0,0.7,0.1,0.9,0.3
					c0.2,0.2,0.3,0.4,0.3,0.7l-0.7,0c0-0.2-0.1-0.3-0.2-0.4c-0.1-0.1-0.2-0.1-0.4-0.1c-0.2,0-0.3,0-0.4,0.1c-0.1,0-0.1,0.1-0.1,0.2
					c0,0.1,0,0.1,0.1,0.2c0.1,0.1,0.3,0.1,0.6,0.2c0.3,0.1,0.6,0.2,0.7,0.2c0.2,0.1,0.3,0.2,0.4,0.3c0.1,0.1,0.1,0.3,0.1,0.5
					c0,0.2-0.1,0.4-0.2,0.5c-0.1,0.2-0.2,0.3-0.4,0.4c-0.2,0.1-0.4,0.1-0.7,0.1c-0.4,0-0.7-0.1-0.9-0.3C27,42.2,26.9,42,26.8,41.6z"
					/>
				<path fill="#FFFFFF" d="M30.5,42.7V40h-1v-0.5h2.6V40h-1v2.7H30.5z"/>
				<path fill="#FFFFFF" d="M32.2,42.7v-3.2h1l0.6,2.2l0.6-2.2h1v3.2h-0.6v-2.6l-0.6,2.6h-0.6l-0.6-2.6v2.6H32.2z"/>
				<path fill="#FFFFFF" d="M35.8,42.7v-3.2h2.4V40h-1.8v0.7H38v0.5h-1.6v0.9h1.8v0.5H35.8z"/>
				<path fill="#FFFFFF" d="M38.5,42.7v-3.2h0.6l1.3,2.2v-2.2h0.6v3.2h-0.7l-1.3-2.1v2.1H38.5z"/>
				<path fill="#FFFFFF" d="M42.3,42.7V40h-1v-0.5h2.6V40h-1v2.7H42.3z"/>
				<path fill="#FFFFFF" d="M43.9,41.6l0.6-0.1c0,0.2,0.1,0.4,0.2,0.5c0.1,0.1,0.3,0.2,0.5,0.2c0.2,0,0.4,0,0.5-0.1
					c0.1-0.1,0.2-0.2,0.2-0.3c0-0.1,0-0.1-0.1-0.2c0-0.1-0.1-0.1-0.2-0.1c-0.1,0-0.3-0.1-0.5-0.1c-0.4-0.1-0.6-0.2-0.7-0.3
					c-0.2-0.2-0.3-0.4-0.3-0.7c0-0.2,0-0.3,0.1-0.5c0.1-0.1,0.2-0.3,0.4-0.3c0.2-0.1,0.4-0.1,0.6-0.1c0.4,0,0.7,0.1,0.9,0.3
					c0.2,0.2,0.3,0.4,0.3,0.7l-0.7,0c0-0.2-0.1-0.3-0.2-0.4c-0.1-0.1-0.2-0.1-0.4-0.1c-0.2,0-0.3,0-0.4,0.1c-0.1,0-0.1,0.1-0.1,0.2
					c0,0.1,0,0.1,0.1,0.2c0.1,0.1,0.3,0.1,0.6,0.2c0.3,0.1,0.6,0.2,0.7,0.2c0.2,0.1,0.3,0.2,0.4,0.3c0.1,0.1,0.1,0.3,0.1,0.5
					c0,0.2-0.1,0.4-0.2,0.5s-0.2,0.3-0.4,0.4c-0.2,0.1-0.4,0.1-0.7,0.1c-0.4,0-0.7-0.1-0.9-0.3C44,42.2,43.9,42,43.9,41.6z"/>
			</g>
		</g>
		<g>
			<path fill="#C12732" d="M9.3,33l3.3-3.5h5l5-5.3V17l-5-5.3h-5L9.3,8.2h10l6.6,7.1v10.6L19.3,33H9.3z M29.3,11.7h-1.7l-3.3-3.5
				h13.3l-3.3,3.5h-1.7V17l-1.7-1.8L29.3,17V11.7z M24.3,33l3.3-3.5h1.7v-5.3l1.7,1.8l1.7-1.8v5.3h1.7l3.3,3.5H24.3z M29.3,20.6
				l1.7-1.8l1.7,1.8l-1.7,1.8L29.3,20.6z M42.5,33l-6.6-7.1V15.3l6.6-7.1h10l-3.3,3.5h-5l-5,5.3v7.1l5,5.3h5l3.3,3.5H42.5z"/>
		</g>
	</g>
</g>
</svg>
