<?xml version="1.0" encoding="utf-8"?>
<!-- Generator: Adobe Illustrator 18.0.0, SVG Export Plug-In . SVG Version: 6.00 Build 0)  -->
<!DOCTYPE svg PUBLIC "-//W3C//DTD SVG 1.1//EN" "http://www.w3.org/Graphics/SVG/1.1/DTD/svg11.dtd">
<svg version="1.1" xmlns="http://www.w3.org/2000/svg" xmlns:xlink="http://www.w3.org/1999/xlink" x="0px" y="0px"
	 viewBox="0 0 63.9 40" enable-background="new 0 0 63.9 40" xml:space="preserve">
<pattern  x="331.5" y="-118" width="74.3" height="71.1" patternUnits="userSpaceOnUse" id="New_Pattern_Swatch_4" viewBox="0 -71.1 74.3 71.1" overflow="visible">
	<g>
		<polygon fill="none" points="0,0 74.3,0 74.3,-71.1 0,-71.1 		"/>
		<polygon fill="#001B30" points="74.3,0 0,0 0,-71.1 74.3,-71.1 		"/>
	</g>
</pattern>
<g id="Bacground">
</g>
<g id="ICONS" display="none">
</g>
<g id="Line_work">
</g>
<g id="Logo">
</g>
<g id="ICONS_in_SITU">
	<g>
		<g>
			<polygon opacity="0.4" fill="#032B44" stroke="url(#New_Pattern_Swatch_4)" stroke-miterlimit="10" points="63.4,48.1 0.5,48.1 
				0.5,0.5 52.3,0.5 52.3,0.5 63.4,11.3 			"/>
			<g>
				<path fill="#C12732" d="M9.3,33l3.3-3.5h5l5-5.3V17l-5-5.3h-5L9.3,8.2h10l6.6,7.1v10.6L19.3,33H9.3z M29.3,11.7h-1.7l-3.3-3.5
					h13.3l-3.3,3.5h-1.7V17l-1.7-1.8L29.3,17V11.7z M24.3,33l3.3-3.5h1.7v-5.3l1.7,1.8l1.7-1.8v5.3h1.7l3.3,3.5H24.3z M29.3,20.6
					l1.7-1.8l1.7,1.8l-1.7,1.8L29.3,20.6z M42.5,33l-6.6-7.1V15.3l6.6-7.1h10l-3.3,3.5h-5l-5,5.3v7.1l5,5.3h5l3.3,3.5H42.5z"/>
			</g>
		</g>
	</g>
</g>
</svg>
