<?xml version="1.0" encoding="utf-8"?>
<!-- Generator: Adobe Illustrator 18.0.0, SVG Export Plug-In . SVG Version: 6.00 Build 0)  -->
<!DOCTYPE svg PUBLIC "-//W3C//DTD SVG 1.1//EN" "http://www.w3.org/Graphics/SVG/1.1/DTD/svg11.dtd">
<svg version="1.1" xmlns="http://www.w3.org/2000/svg" xmlns:xlink="http://www.w3.org/1999/xlink" x="0px" y="0px"
	 viewBox="0 0 63.9 48.6" enable-background="new 0 0 63.9 48.6" xml:space="preserve">
<pattern  x="331.5" y="-181.8" width="74.3" height="71.1" patternUnits="userSpaceOnUse" id="New_Pattern_Swatch_4" viewBox="0 -71.1 74.3 71.1" overflow="visible">
	<g>
		<polygon fill="none" points="0,0 74.3,0 74.3,-71.1 0,-71.1 		"/>
		<polygon fill="#001B30" points="74.3,0 0,0 0,-71.1 74.3,-71.1 		"/>
	</g>
</pattern>
<g id="Bacground">
</g>
<g id="ICONS" display="none">
</g>
<g id="Line_work">
</g>
<g id="Logo">
</g>
<g id="ICONS_in_SITU">
	<g>
		<polygon opacity="0.4" fill="#032B44" stroke="url(#New_Pattern_Swatch_4)" stroke-miterlimit="10" points="63.4,48.1 0.5,48.1 
			0.5,0.5 52.3,0.5 52.3,0.5 63.4,11.3 		"/>
		<g>
			<path fill="#FFFFFF" d="M9.8,41.5l0.6,0.2c-0.1,0.4-0.3,0.6-0.5,0.8c-0.2,0.2-0.5,0.3-0.9,0.3c-0.4,0-0.8-0.1-1.1-0.4
				c-0.3-0.3-0.4-0.7-0.4-1.2c0-0.5,0.1-1,0.4-1.3c0.3-0.3,0.6-0.4,1.1-0.4c0.4,0,0.7,0.1,1,0.4c0.1,0.1,0.3,0.3,0.3,0.6l-0.6,0.2
				c0-0.2-0.1-0.3-0.2-0.4c-0.1-0.1-0.3-0.1-0.4-0.1c-0.2,0-0.4,0.1-0.6,0.3c-0.1,0.2-0.2,0.5-0.2,0.8c0,0.4,0.1,0.7,0.2,0.9
				c0.1,0.2,0.3,0.3,0.6,0.3c0.2,0,0.3-0.1,0.5-0.2C9.7,41.9,9.8,41.7,9.8,41.5z"/>
			<path fill="#FFFFFF" d="M13.7,42.7h-0.7l-0.3-0.7h-1.3l-0.3,0.7h-0.7l1.3-3.2h0.7L13.7,42.7z M12.5,41.4L12,40.2l-0.4,1.2H12.5z"
				/>
			<path fill="#FFFFFF" d="M13.6,41.6l0.6-0.1c0,0.2,0.1,0.4,0.2,0.5c0.1,0.1,0.3,0.2,0.5,0.2c0.2,0,0.4,0,0.5-0.1
				c0.1-0.1,0.2-0.2,0.2-0.3c0-0.1,0-0.1-0.1-0.2c0-0.1-0.1-0.1-0.2-0.1c-0.1,0-0.3-0.1-0.5-0.1c-0.4-0.1-0.6-0.2-0.7-0.3
				c-0.2-0.2-0.3-0.4-0.3-0.7c0-0.2,0-0.3,0.1-0.5c0.1-0.1,0.2-0.3,0.4-0.3c0.2-0.1,0.4-0.1,0.6-0.1c0.4,0,0.7,0.1,0.9,0.3
				c0.2,0.2,0.3,0.4,0.3,0.7l-0.7,0c0-0.2-0.1-0.3-0.2-0.4c-0.1-0.1-0.2-0.1-0.4-0.1c-0.2,0-0.3,0-0.4,0.1c-0.1,0-0.1,0.1-0.1,0.2
				c0,0.1,0,0.1,0.1,0.2c0.1,0.1,0.3,0.1,0.6,0.2c0.3,0.1,0.6,0.2,0.7,0.2c0.2,0.1,0.3,0.2,0.4,0.3c0.1,0.1,0.1,0.3,0.1,0.5
				c0,0.2-0.1,0.4-0.2,0.5c-0.1,0.2-0.2,0.3-0.4,0.4c-0.2,0.1-0.4,0.1-0.7,0.1c-0.4,0-0.7-0.1-0.9-0.3C13.7,42.2,13.6,42,13.6,41.6z
				"/>
			<path fill="#FFFFFF" d="M16.5,42.7v-3.2h0.7v1.3h1.3v-1.3h0.7v3.2h-0.7v-1.4h-1.3v1.4H16.5z"/>
			<path fill="#FFFFFF" d="M20.5,42.7v-3.2h2.2V40h-1.6v0.8h1.4v0.5h-1.4v1.4H20.5z"/>
			<path fill="#FFFFFF" d="M23,42.7v-3.2h0.7v2.7h1.6v0.5H23z"/>
			<path fill="#FFFFFF" d="M25.4,41.1c0-0.3,0-0.6,0.1-0.8c0.1-0.2,0.2-0.3,0.3-0.4c0.1-0.1,0.3-0.2,0.4-0.3
				c0.2-0.1,0.4-0.1,0.7-0.1c0.5,0,0.9,0.1,1.1,0.4c0.3,0.3,0.4,0.7,0.4,1.2c0,0.5-0.1,0.9-0.4,1.2c-0.3,0.3-0.7,0.4-1.1,0.4
				c-0.5,0-0.9-0.1-1.2-0.4C25.5,42,25.4,41.6,25.4,41.1z M26,41c0,0.4,0.1,0.6,0.3,0.8c0.2,0.2,0.4,0.3,0.6,0.3
				c0.3,0,0.5-0.1,0.6-0.3c0.2-0.2,0.3-0.5,0.3-0.8c0-0.4-0.1-0.7-0.2-0.8c-0.2-0.2-0.4-0.3-0.7-0.3c-0.3,0-0.5,0.1-0.7,0.3
				C26.1,40.4,26,40.7,26,41z"/>
			<path fill="#FFFFFF" d="M29.2,42.7l-0.8-3.2h0.7l0.5,2.2l0.6-2.2H31l0.6,2.3l0.5-2.3h0.7l-0.8,3.2h-0.7l-0.6-2.4l-0.6,2.4H29.2z"
				/>
			<path fill="#FFFFFF" d="M33.8,42.7v-3.2H36V40h-1.6v0.8h1.4v0.5h-1.4v1.4H33.8z"/>
			<path fill="#FFFFFF" d="M36.1,41.1c0-0.3,0-0.6,0.1-0.8c0.1-0.2,0.2-0.3,0.3-0.4c0.1-0.1,0.3-0.2,0.4-0.3
				c0.2-0.1,0.4-0.1,0.7-0.1c0.5,0,0.9,0.1,1.1,0.4c0.3,0.3,0.4,0.7,0.4,1.2c0,0.5-0.1,0.9-0.4,1.2c-0.3,0.3-0.7,0.4-1.1,0.4
				c-0.5,0-0.9-0.1-1.2-0.4C36.3,42,36.1,41.6,36.1,41.1z M36.8,41c0,0.4,0.1,0.6,0.3,0.8c0.2,0.2,0.4,0.3,0.6,0.3s0.5-0.1,0.6-0.3
				c0.2-0.2,0.3-0.5,0.3-0.8c0-0.4-0.1-0.7-0.2-0.8c-0.2-0.2-0.4-0.3-0.7-0.3S37.2,40,37,40.2C36.9,40.4,36.8,40.7,36.8,41z"/>
			<path fill="#FFFFFF" d="M39.5,42.7v-3.2h1.4c0.3,0,0.6,0,0.8,0.1c0.2,0.1,0.3,0.2,0.4,0.3c0.1,0.1,0.1,0.3,0.1,0.5
				c0,0.2-0.1,0.4-0.2,0.6c-0.1,0.2-0.4,0.3-0.6,0.3c0.1,0.1,0.3,0.2,0.4,0.3c0.1,0.1,0.2,0.3,0.4,0.5l0.4,0.6h-0.8L41.2,42
				c-0.2-0.3-0.3-0.4-0.3-0.5c-0.1-0.1-0.1-0.1-0.2-0.1c-0.1,0-0.2,0-0.3,0h-0.1v1.4H39.5z M40.2,40.8h0.5c0.3,0,0.5,0,0.6,0
				c0.1,0,0.1-0.1,0.2-0.1c0-0.1,0.1-0.1,0.1-0.2c0-0.1,0-0.2-0.1-0.3C41.3,40,41.3,40,41.2,40c-0.1,0-0.2,0-0.5,0h-0.5V40.8z"/>
			<path fill="#FFFFFF" d="M42.5,42.7v-3.2h2.4V40h-1.8v0.7h1.6v0.5h-1.6v0.9H45v0.5H42.5z"/>
			<path fill="#FFFFFF" d="M47.4,41.5l0.6,0.2c-0.1,0.4-0.3,0.6-0.5,0.8c-0.2,0.2-0.5,0.3-0.9,0.3c-0.4,0-0.8-0.1-1.1-0.4
				c-0.3-0.3-0.4-0.7-0.4-1.2c0-0.5,0.1-1,0.4-1.3c0.3-0.3,0.6-0.4,1.1-0.4c0.4,0,0.7,0.1,1,0.4c0.1,0.1,0.3,0.3,0.3,0.6l-0.6,0.2
				c0-0.2-0.1-0.3-0.2-0.4c-0.1-0.1-0.3-0.1-0.4-0.1c-0.2,0-0.4,0.1-0.6,0.3c-0.2,0.2-0.2,0.5-0.2,0.8c0,0.4,0.1,0.7,0.2,0.9
				c0.1,0.2,0.3,0.3,0.6,0.3c0.2,0,0.3-0.1,0.5-0.2C47.2,41.9,47.3,41.7,47.4,41.5z"/>
			<path fill="#FFFFFF" d="M51.2,42.7h-0.7l-0.3-0.7h-1.3l-0.3,0.7h-0.7l1.3-3.2h0.7L51.2,42.7z M50,41.4l-0.4-1.2l-0.4,1.2H50z"/>
			<path fill="#FFFFFF" d="M51.1,41.6l0.6-0.1c0,0.2,0.1,0.4,0.2,0.5c0.1,0.1,0.3,0.2,0.5,0.2c0.2,0,0.4,0,0.5-0.1
				c0.1-0.1,0.2-0.2,0.2-0.3c0-0.1,0-0.1-0.1-0.2c0-0.1-0.1-0.1-0.2-0.1c-0.1,0-0.3-0.1-0.5-0.1c-0.4-0.1-0.6-0.2-0.7-0.3
				c-0.2-0.2-0.3-0.4-0.3-0.7c0-0.2,0-0.3,0.1-0.5c0.1-0.1,0.2-0.3,0.4-0.3c0.2-0.1,0.4-0.1,0.6-0.1c0.4,0,0.7,0.1,0.9,0.3
				c0.2,0.2,0.3,0.4,0.3,0.7l-0.7,0c0-0.2-0.1-0.3-0.2-0.4c-0.1-0.1-0.2-0.1-0.4-0.1c-0.2,0-0.3,0-0.4,0.1c-0.1,0-0.1,0.1-0.1,0.2
				c0,0.1,0,0.1,0.1,0.2c0.1,0.1,0.3,0.1,0.6,0.2c0.3,0.1,0.6,0.2,0.7,0.2c0.2,0.1,0.3,0.2,0.4,0.3c0.1,0.1,0.1,0.3,0.1,0.5
				c0,0.2-0.1,0.4-0.2,0.5c-0.1,0.2-0.2,0.3-0.4,0.4c-0.2,0.1-0.4,0.1-0.7,0.1c-0.4,0-0.7-0.1-0.9-0.3C51.3,42.2,51.2,42,51.1,41.6z
				"/>
			<path fill="#FFFFFF" d="M54.8,42.7V40h-1v-0.6h2.6V40h-1v2.7H54.8z"/>
		</g>
		<g>
			<path fill="#C12732" d="M14.5,32.1l-5-5.3V12.6l5-5.3h6.6l3.3,3.5h1.7l3.3-3.5h8.3l-3.3,3.5h-3.3l-3.3,3.5h-5l-3.3-3.5h-3.3
				l-3.3,3.5V25l3.3,3.5h3.3l3.3-3.5h5l3.3,3.5h3.3l3.3,3.5h-8.3l-3.3-3.5h-1.7l-3.3,3.5H14.5z M47.7,10.9h-3.3l-3.3,3.5h-5l6.6-7.1
				h6.6l3.3,3.5v5.3L47.7,10.9z M42.7,32.1L36.1,25h5l3.3,3.5h3.3l5-5.3v5.3l-3.3,3.5H42.7z"/>
		</g>
	</g>
</g>
</svg>
