<?xml version="1.0" encoding="utf-8"?>
<!-- Generator: Adobe Illustrator 18.0.0, SVG Export Plug-In . SVG Version: 6.00 Build 0)  -->
<!DOCTYPE svg PUBLIC "-//W3C//DTD SVG 1.1//EN" "http://www.w3.org/Graphics/SVG/1.1/DTD/svg11.dtd">
<svg version="1.1" xmlns="http://www.w3.org/2000/svg" xmlns:xlink="http://www.w3.org/1999/xlink" x="0px" y="0px"
	 viewBox="0 0 63.9 48.6" enable-background="new 0 0 63.9 48.6" xml:space="preserve">
<pattern  x="331.5" y="-181.8" width="74.3" height="71.1" patternUnits="userSpaceOnUse" id="New_Pattern_Swatch_4" viewBox="0 -71.1 74.3 71.1" overflow="visible">
	<g>
		<polygon fill="none" points="0,0 74.3,0 74.3,-71.1 0,-71.1 		"/>
		<polygon fill="#001B30" points="74.3,0 0,0 0,-71.1 74.3,-71.1 		"/>
	</g>
</pattern>
<g id="Bacground">
</g>
<g id="ICONS" display="none">
</g>
<g id="Line_work">
</g>
<g id="Logo">
</g>
<g id="ICONS_in_SITU">
	<g>
		<g>
			<polygon opacity="0.4" fill="#032B44" stroke="url(#New_Pattern_Swatch_4)" stroke-miterlimit="10" points="63.4,48.1 0.5,48.1 
				0.5,0.5 52.3,0.5 52.3,0.5 63.4,11.3 			"/>
			<g>
				<path fill="#C12732" d="M14.5,32.1l-5-5.3V12.6l5-5.3h6.6l3.3,3.5h1.7l3.3-3.5h8.3l-3.3,3.5h-3.3l-3.3,3.5h-5l-3.3-3.5h-3.3
					l-3.3,3.5V25l3.3,3.5h3.3l3.3-3.5h5l3.3,3.5h3.3l3.3,3.5h-8.3l-3.3-3.5h-1.7l-3.3,3.5H14.5z M47.7,10.9h-3.3l-3.3,3.5h-5
					l6.6-7.1h6.6l3.3,3.5v5.3L47.7,10.9z M42.7,32.1L36.1,25h5l3.3,3.5h3.3l5-5.3v5.3l-3.3,3.5H42.7z"/>
			</g>
		</g>
	</g>
	<g>
		<g>
			<path fill="#FFFFFF" d="M15.8,43.4v-3.7h0.7v3.7H15.8z"/>
			<path fill="#FFFFFF" d="M17,43.4v-3.7h0.7l1.5,2.4v-2.4h0.7v3.7h-0.7L17.7,41v2.4H17z"/>
			<path fill="#FFFFFF" d="M21.3,43.4L20,39.7h0.8l0.9,2.7l0.9-2.7h0.8l-1.3,3.7H21.3z"/>
			<path fill="#FFFFFF" d="M23.5,43.4v-3.7h2.7v0.6h-2v0.8h1.8v0.6h-1.8v1h2v0.6H23.5z"/>
			<path fill="#FFFFFF" d="M26.4,42.2l0.7-0.1c0,0.2,0.1,0.4,0.3,0.5c0.1,0.1,0.3,0.2,0.5,0.2c0.2,0,0.4,0,0.5-0.2
				c0.1-0.1,0.2-0.2,0.2-0.4c0-0.1,0-0.2-0.1-0.2c-0.1-0.1-0.1-0.1-0.3-0.2c-0.1,0-0.3-0.1-0.6-0.2c-0.4-0.1-0.7-0.2-0.8-0.4
				c-0.2-0.2-0.3-0.4-0.3-0.7c0-0.2,0.1-0.4,0.2-0.5c0.1-0.2,0.3-0.3,0.5-0.4c0.2-0.1,0.4-0.1,0.7-0.1c0.5,0,0.8,0.1,1,0.3
				c0.2,0.2,0.4,0.5,0.4,0.8l-0.7,0c0-0.2-0.1-0.3-0.2-0.4c-0.1-0.1-0.3-0.1-0.5-0.1c-0.2,0-0.4,0-0.5,0.1c-0.1,0.1-0.1,0.1-0.1,0.2
				c0,0.1,0,0.2,0.1,0.2c0.1,0.1,0.3,0.2,0.7,0.2c0.4,0.1,0.6,0.2,0.8,0.3c0.2,0.1,0.3,0.2,0.4,0.4c0.1,0.2,0.1,0.4,0.1,0.6
				c0,0.2-0.1,0.4-0.2,0.6c-0.1,0.2-0.3,0.3-0.5,0.4c-0.2,0.1-0.5,0.1-0.8,0.1c-0.5,0-0.8-0.1-1.1-0.3
				C26.6,42.9,26.4,42.6,26.4,42.2z"/>
			<path fill="#FFFFFF" d="M30.5,43.4v-3h-1.1v-0.6h2.9v0.6h-1.1v3H30.5z"/>
			<path fill="#FFFFFF" d="M32.5,43.4v-3.7h1.1l0.7,2.5l0.7-2.5H36v3.7h-0.7v-2.9l-0.7,2.9h-0.7l-0.7-2.9v2.9H32.5z"/>
			<path fill="#FFFFFF" d="M36.5,43.4v-3.7h2.7v0.6h-2v0.8h1.8v0.6h-1.8v1h2v0.6H36.5z"/>
			<path fill="#FFFFFF" d="M39.6,43.4v-3.7h0.7l1.5,2.4v-2.4h0.7v3.7h-0.7L40.3,41v2.4H39.6z"/>
			<path fill="#FFFFFF" d="M43.8,43.4v-3h-1.1v-0.6h2.9v0.6h-1.1v3H43.8z"/>
			<path fill="#FFFFFF" d="M45.6,42.2l0.7-0.1c0,0.2,0.1,0.4,0.3,0.5c0.1,0.1,0.3,0.2,0.5,0.2c0.2,0,0.4,0,0.5-0.2
				c0.1-0.1,0.2-0.2,0.2-0.4c0-0.1,0-0.2-0.1-0.2c-0.1-0.1-0.1-0.1-0.3-0.2c-0.1,0-0.3-0.1-0.6-0.2c-0.4-0.1-0.7-0.2-0.8-0.4
				c-0.2-0.2-0.3-0.4-0.3-0.7c0-0.2,0.1-0.4,0.2-0.5c0.1-0.2,0.3-0.3,0.5-0.4c0.2-0.1,0.4-0.1,0.7-0.1c0.5,0,0.8,0.1,1,0.3
				c0.2,0.2,0.4,0.5,0.4,0.8l-0.7,0c0-0.2-0.1-0.3-0.2-0.4c-0.1-0.1-0.3-0.1-0.5-0.1c-0.2,0-0.4,0-0.5,0.1c-0.1,0.1-0.1,0.1-0.1,0.2
				c0,0.1,0,0.2,0.1,0.2c0.1,0.1,0.3,0.2,0.7,0.2c0.4,0.1,0.6,0.2,0.8,0.3c0.2,0.1,0.3,0.2,0.4,0.4c0.1,0.2,0.1,0.4,0.1,0.6
				c0,0.2-0.1,0.4-0.2,0.6c-0.1,0.2-0.3,0.3-0.5,0.4c-0.2,0.1-0.5,0.1-0.8,0.1c-0.5,0-0.8-0.1-1.1-0.3
				C45.8,42.9,45.7,42.6,45.6,42.2z"/>
		</g>
	</g>
</g>
</svg>
