<?xml version="1.0" encoding="utf-8"?>
<!-- Generator: Adobe Illustrator 18.0.0, SVG Export Plug-In . SVG Version: 6.00 Build 0)  -->
<!DOCTYPE svg PUBLIC "-//W3C//DTD SVG 1.1//EN" "http://www.w3.org/Graphics/SVG/1.1/DTD/svg11.dtd">
<svg version="1.1" xmlns="http://www.w3.org/2000/svg" xmlns:xlink="http://www.w3.org/1999/xlink" x="0px" y="0px"
	 viewBox="0 0 63.9 39.7" enable-background="new 0 0 63.9 39.7" xml:space="preserve">
<pattern  x="331.5" y="-181.8" width="74.3" height="71.1" patternUnits="userSpaceOnUse" id="New_Pattern_Swatch_4" viewBox="0 -71.1 74.3 71.1" overflow="visible">
	<g>
		<polygon fill="none" points="0,0 74.3,0 74.3,-71.1 0,-71.1 		"/>
		<polygon fill="#001B30" points="74.3,0 0,0 0,-71.1 74.3,-71.1 		"/>
	</g>
</pattern>
<g id="Bacground">
</g>
<g id="ICONS" display="none">
</g>
<g id="Line_work">
</g>
<g id="Logo">
</g>
<g id="ICONS_in_SITU">
	<g>
		<g>
			<polygon opacity="0.4" fill="#032B44" stroke="url(#New_Pattern_Swatch_4)" stroke-miterlimit="10" points="63.4,48.1 0.5,48.1 
				0.5,0.5 52.3,0.5 52.3,0.5 63.4,11.3 			"/>
			<g>
				<path fill="#C12732" d="M14.5,32.1l-5-5.3V12.6l5-5.3h6.6l3.3,3.5h1.7l3.3-3.5h8.3l-3.3,3.5h-3.3l-3.3,3.5h-5l-3.3-3.5h-3.3
					l-3.3,3.5V25l3.3,3.5h3.3l3.3-3.5h5l3.3,3.5h3.3l3.3,3.5h-8.3l-3.3-3.5h-1.7l-3.3,3.5H14.5z M47.7,10.9h-3.3l-3.3,3.5h-5
					l6.6-7.1h6.6l3.3,3.5v5.3L47.7,10.9z M42.7,32.1L36.1,25h5l3.3,3.5h3.3l5-5.3v5.3l-3.3,3.5H42.7z"/>
			</g>
		</g>
	</g>
</g>
</svg>
