<?xml version="1.0" encoding="utf-8"?>
<!-- Generator: Adobe Illustrator 18.0.0, SVG Export Plug-In . SVG Version: 6.00 Build 0)  -->
<!DOCTYPE svg PUBLIC "-//W3C//DTD SVG 1.1//EN" "http://www.w3.org/Graphics/SVG/1.1/DTD/svg11.dtd">
<svg version="1.1" xmlns="http://www.w3.org/2000/svg" xmlns:xlink="http://www.w3.org/1999/xlink" x="0px" y="0px"
	 viewBox="0 0 63.9 48.6" enable-background="new 0 0 63.9 48.6" xml:space="preserve">
<pattern  x="331.5" y="-245.6" width="74.3" height="71.1" patternUnits="userSpaceOnUse" id="New_Pattern_Swatch_4" viewBox="0 -71.1 74.3 71.1" overflow="visible">
	<g>
		<polygon fill="none" points="0,0 74.3,0 74.3,-71.1 0,-71.1 		"/>
		<polygon fill="#001B30" points="74.3,0 0,0 0,-71.1 74.3,-71.1 		"/>
	</g>
</pattern>
<g id="Bacground">
</g>
<g id="ICONS" display="none">
</g>
<g id="Line_work">
</g>
<g id="Logo">
</g>
<g id="ICONS_in_SITU">
	<g>
		<polygon opacity="0.4" fill="#032B44" stroke="url(#New_Pattern_Swatch_4)" stroke-miterlimit="10" points="63.4,48.1 0.5,48.1 
			0.5,0.5 52.3,0.5 52.3,0.5 63.4,11.3 		"/>
		<g>
			<g>
				<path fill="#FFFFFF" d="M22.2,42.7v-3.2h0.7v2.7h1.6v0.5H22.2z"/>
				<path fill="#FFFFFF" d="M24.7,42.7v-3.2h0.7v3.2H24.7z"/>
				<path fill="#FFFFFF" d="M28.3,42.3c0.2,0.1,0.3,0.2,0.5,0.3L28.6,43c-0.1,0-0.2-0.1-0.3-0.1c0,0-0.2-0.1-0.4-0.3
					c-0.2,0.1-0.4,0.1-0.7,0.1c-0.5,0-0.9-0.1-1.2-0.4c-0.3-0.3-0.4-0.7-0.4-1.2c0-0.5,0.1-0.9,0.4-1.2c0.3-0.3,0.7-0.4,1.2-0.4
					c0.5,0,0.9,0.1,1.1,0.4c0.3,0.3,0.4,0.7,0.4,1.2c0,0.3,0,0.5-0.1,0.7C28.5,41.9,28.4,42.1,28.3,42.3z M27.8,41.9
					c0.1-0.1,0.1-0.2,0.2-0.4c0-0.1,0.1-0.3,0.1-0.5c0-0.4-0.1-0.7-0.2-0.8c-0.2-0.2-0.4-0.3-0.6-0.3c-0.3,0-0.5,0.1-0.7,0.3
					c-0.2,0.2-0.2,0.5-0.2,0.8c0,0.4,0.1,0.7,0.2,0.9c0.2,0.2,0.4,0.3,0.6,0.3c0.1,0,0.2,0,0.3,0C27.2,42,27.1,42,27,41.9l0.2-0.4
					C27.4,41.6,27.6,41.7,27.8,41.9z"/>
				<path fill="#FFFFFF" d="M28.9,39.4h0.7v1.8c0,0.3,0,0.5,0,0.5c0,0.1,0.1,0.2,0.2,0.3c0.1,0.1,0.3,0.1,0.4,0.1
					c0.2,0,0.3,0,0.4-0.1c0.1-0.1,0.2-0.2,0.2-0.3c0-0.1,0-0.3,0-0.6v-1.8h0.7v1.7c0,0.4,0,0.7-0.1,0.8c0,0.2-0.1,0.3-0.2,0.4
					c-0.1,0.1-0.2,0.2-0.4,0.3c-0.2,0.1-0.4,0.1-0.6,0.1c-0.3,0-0.5,0-0.7-0.1c-0.2-0.1-0.3-0.2-0.4-0.3C29.1,42.2,29,42.1,29,42
					c0-0.2-0.1-0.5-0.1-0.8V39.4z"/>
				<path fill="#FFFFFF" d="M31.9,42.7v-3.2h0.7v3.2H31.9z"/>
				<path fill="#FFFFFF" d="M32.9,39.4h1.2c0.3,0,0.5,0,0.6,0.1c0.2,0.1,0.4,0.2,0.5,0.3c0.1,0.1,0.2,0.3,0.3,0.5
					c0.1,0.2,0.1,0.5,0.1,0.8c0,0.3,0,0.5-0.1,0.7c-0.1,0.2-0.2,0.4-0.3,0.6c-0.1,0.1-0.3,0.2-0.5,0.3c-0.1,0-0.3,0.1-0.6,0.1h-1.2
					V39.4z M33.6,40v2.2h0.5c0.2,0,0.3,0,0.4,0c0.1,0,0.2-0.1,0.3-0.1c0.1-0.1,0.1-0.2,0.2-0.3c0-0.1,0.1-0.3,0.1-0.6
					c0-0.3,0-0.4-0.1-0.6c0-0.1-0.1-0.2-0.2-0.3c-0.1-0.1-0.2-0.1-0.3-0.2c-0.1,0-0.3,0-0.5,0H33.6z"/>
				<path fill="#FFFFFF" d="M35.9,42.7v-3.2h0.7v3.2H35.9z"/>
				<path fill="#FFFFFF" d="M37.6,42.7V40h-1v-0.5h2.6V40h-1v2.7H37.6z"/>
				<path fill="#FFFFFF" d="M40.3,42.7v-1.4l-1.2-1.9h0.8l0.8,1.3l0.7-1.3h0.8l-1.2,1.9v1.4H40.3z"/>
			</g>
		</g>
		<g>
			<path fill="#C12732" d="M16.8,33l-6.6-7.1V11.7l3.3-3.5h10l-3.3,3.5h-5l-1.7,1.8v10.6l5,5.3h5l3.3,3.5H16.8z M21.8,15.3l3.3-3.5
				h3.3l3.3-3.5h5l-6.6,7.1H21.8z M41.7,33l-3.3-3.5h-10l-3.3-3.5H40l3.3,3.5h5l1.7-1.8v-1.8l3.3-3.5v7.1L50,33H41.7z"/>
		</g>
	</g>
</g>
</svg>
