<?xml version="1.0" encoding="utf-8"?>
<!-- Generator: Adobe Illustrator 18.0.0, SVG Export Plug-In . SVG Version: 6.00 Build 0)  -->
<!DOCTYPE svg PUBLIC "-//W3C//DTD SVG 1.1//EN" "http://www.w3.org/Graphics/SVG/1.1/DTD/svg11.dtd">
<svg version="1.1" xmlns="http://www.w3.org/2000/svg" xmlns:xlink="http://www.w3.org/1999/xlink" x="0px" y="0px"
	 viewBox="0 0 63.9 48.6" enable-background="new 0 0 63.9 48.6" xml:space="preserve">
<pattern  x="331.5" y="-245.6" width="74.3" height="71.1" patternUnits="userSpaceOnUse" id="New_Pattern_Swatch_4" viewBox="0 -71.1 74.3 71.1" overflow="visible">
	<g>
		<polygon fill="none" points="0,0 74.3,0 74.3,-71.1 0,-71.1 		"/>
		<polygon fill="#001B30" points="74.3,0 0,0 0,-71.1 74.3,-71.1 		"/>
	</g>
</pattern>
<g id="Bacground">
</g>
<g id="ICONS" display="none">
</g>
<g id="Line_work">
</g>
<g id="Logo">
</g>
<g id="ICONS_in_SITU">
	<g>
		<g>
			<polygon opacity="0.4" fill="#032B44" stroke="url(#New_Pattern_Swatch_4)" stroke-miterlimit="10" points="63.4,48.1 0.5,48.1 
				0.5,0.5 52.3,0.5 52.3,0.5 63.4,11.3 			"/>
			<g>
				<path fill="#C12732" d="M16.8,33l-6.6-7.1V11.7l3.3-3.5h10l-3.3,3.5h-5l-1.7,1.8v10.6l5,5.3h5l3.3,3.5H16.8z M21.8,15.3l3.3-3.5
					h3.3l3.3-3.5h5l-6.6,7.1H21.8z M41.7,33l-3.3-3.5h-10l-3.3-3.5H40l3.3,3.5h5l1.7-1.8v-1.8l3.3-3.5v7.1L50,33H41.7z"/>
			</g>
		</g>
	</g>
	<g>
		<g>
			<path fill="#FFFFFF" d="M21,43.2v-3.6h0.7v3h1.8v0.6H21z"/>
			<path fill="#FFFFFF" d="M23.7,43.2v-3.7h0.7v3.7H23.7z"/>
			<path fill="#FFFFFF" d="M27.8,42.8c0.2,0.1,0.4,0.2,0.6,0.3l-0.3,0.5c-0.1,0-0.2-0.1-0.3-0.1c0,0-0.2-0.1-0.5-0.3
				c-0.2,0.1-0.5,0.2-0.8,0.2c-0.6,0-1-0.2-1.3-0.5c-0.3-0.3-0.5-0.8-0.5-1.4c0-0.6,0.2-1.1,0.5-1.4c0.3-0.3,0.8-0.5,1.3-0.5
				c0.5,0,1,0.2,1.3,0.5c0.3,0.3,0.5,0.8,0.5,1.4c0,0.3,0,0.6-0.1,0.8C28.1,42.4,28,42.6,27.8,42.8z M27.2,42.3
				c0.1-0.1,0.2-0.2,0.2-0.4c0-0.2,0.1-0.3,0.1-0.5c0-0.4-0.1-0.7-0.3-1c-0.2-0.2-0.4-0.3-0.7-0.3c-0.3,0-0.5,0.1-0.7,0.3
				c-0.2,0.2-0.3,0.5-0.3,0.9c0,0.4,0.1,0.7,0.3,1c0.2,0.2,0.4,0.3,0.7,0.3c0.1,0,0.2,0,0.3-0.1c-0.2-0.1-0.3-0.2-0.5-0.2l0.2-0.4
				C26.8,42.1,27,42.2,27.2,42.3z"/>
			<path fill="#FFFFFF" d="M28.6,39.6h0.7v2c0,0.3,0,0.5,0,0.6c0,0.2,0.1,0.3,0.2,0.4c0.1,0.1,0.3,0.1,0.5,0.1c0.2,0,0.4,0,0.5-0.1
				c0.1-0.1,0.2-0.2,0.2-0.3c0-0.1,0-0.3,0-0.6v-2h0.7v1.9c0,0.4,0,0.8-0.1,0.9c0,0.2-0.1,0.3-0.2,0.5c-0.1,0.1-0.3,0.2-0.4,0.3
				c-0.2,0.1-0.4,0.1-0.7,0.1c-0.4,0-0.6,0-0.8-0.1c-0.2-0.1-0.3-0.2-0.4-0.3c-0.1-0.1-0.2-0.3-0.2-0.4c0-0.2-0.1-0.5-0.1-0.9V39.6z
				"/>
			<path fill="#FFFFFF" d="M31.9,43.2v-3.7h0.7v3.7H31.9z"/>
			<path fill="#FFFFFF" d="M33.1,39.6h1.4c0.3,0,0.5,0,0.7,0.1c0.2,0.1,0.4,0.2,0.6,0.3c0.2,0.2,0.3,0.4,0.4,0.6
				c0.1,0.2,0.1,0.5,0.1,0.9c0,0.3,0,0.6-0.1,0.8c-0.1,0.3-0.2,0.5-0.4,0.6c-0.1,0.1-0.3,0.2-0.5,0.3c-0.2,0.1-0.4,0.1-0.7,0.1h-1.4
				V39.6z M33.8,40.2v2.4h0.6c0.2,0,0.4,0,0.4,0c0.1,0,0.2-0.1,0.3-0.2c0.1-0.1,0.1-0.2,0.2-0.4c0-0.2,0.1-0.4,0.1-0.7
				c0-0.3,0-0.5-0.1-0.7c-0.1-0.2-0.1-0.3-0.2-0.4c-0.1-0.1-0.2-0.1-0.3-0.2c-0.1,0-0.3,0-0.6,0H33.8z"/>
			<path fill="#FFFFFF" d="M36.4,43.2v-3.7h0.7v3.7H36.4z"/>
			<path fill="#FFFFFF" d="M38.4,43.2v-3h-1.1v-0.6h2.9v0.6h-1.1v3H38.4z"/>
			<path fill="#FFFFFF" d="M41.4,43.2v-1.5L40,39.6h0.9l0.9,1.5l0.8-1.5h0.9l-1.3,2.1v1.5H41.4z"/>
		</g>
	</g>
</g>
</svg>
