<?xml version="1.0" encoding="utf-8"?>
<!-- Generator: Adobe Illustrator 18.0.0, SVG Export Plug-In . SVG Version: 6.00 Build 0)  -->
<!DOCTYPE svg PUBLIC "-//W3C//DTD SVG 1.1//EN" "http://www.w3.org/Graphics/SVG/1.1/DTD/svg11.dtd">
<svg version="1.1" xmlns="http://www.w3.org/2000/svg" xmlns:xlink="http://www.w3.org/1999/xlink" x="0px" y="0px"
	 viewBox="0 0 63.9 38.2" enable-background="new 0 0 63.9 38.2" xml:space="preserve">
<pattern  x="332.6" y="-310.3" width="74.3" height="71.1" patternUnits="userSpaceOnUse" id="New_Pattern_Swatch_4" viewBox="0 -71.1 74.3 71.1" overflow="visible">
	<g>
		<polygon fill="none" points="0,0 74.3,0 74.3,-71.1 0,-71.1 		"/>
		<polygon fill="#001B30" points="74.3,0 0,0 0,-71.1 74.3,-71.1 		"/>
	</g>
</pattern>
<g id="Bacground">
</g>
<g id="ICONS" display="none">
</g>
<g id="Line_work">
</g>
<g id="Logo">
</g>
<g id="ICONS_in_SITU">
	<g>
		<g>
			<polygon opacity="0.4" fill="#032B44" stroke="url(#New_Pattern_Swatch_4)" stroke-miterlimit="10" points="63.4,48.1 0.5,48.1 
				0.5,0.5 52.3,0.5 52.3,0.5 63.4,11.3 			"/>
			<g>
				<path fill="#C12732" d="M13.7,32.1V25l-3.3-3.5V10.9l3.3-3.5H22l3.3,3.5H32l3.3,3.5H23.7l-3.3-3.5h-5l-1.7,1.8v7.1l3.3,3.5v8.9
					H13.7z M20.4,25l6.6-7.1h11.6l-3.3,3.5h-6.6L25.3,25H20.4z M48.6,32.1l-3.3-3.5H27l3.3-3.5h16.6l6.6,7.1H48.6z M40.3,14.4
					l-6.6-7.1h5l6.6,7.1H40.3z M40.3,21.5l3.3-3.5h5l1.7-1.8v-1.8l-6.6-7.1h5l5,5.3v5.3l-3.3,3.5H40.3z"/>
			</g>
		</g>
	</g>
</g>
</svg>
