<?xml version="1.0" encoding="utf-8"?>
<!-- Generator: Adobe Illustrator 18.0.0, SVG Export Plug-In . SVG Version: 6.00 Build 0)  -->
<!DOCTYPE svg PUBLIC "-//W3C//DTD SVG 1.1//EN" "http://www.w3.org/Graphics/SVG/1.1/DTD/svg11.dtd">
<svg version="1.1" xmlns="http://www.w3.org/2000/svg" xmlns:xlink="http://www.w3.org/1999/xlink" x="0px" y="0px"
	 viewBox="0 0 63.9 48.6" enable-background="new 0 0 63.9 48.6" xml:space="preserve">
<pattern  x="332.6" y="-310.3" width="74.3" height="71.1" patternUnits="userSpaceOnUse" id="New_Pattern_Swatch_4" viewBox="0 -71.1 74.3 71.1" overflow="visible">
	<g>
		<polygon fill="none" points="0,0 74.3,0 74.3,-71.1 0,-71.1 		"/>
		<polygon fill="#001B30" points="74.3,0 0,0 0,-71.1 74.3,-71.1 		"/>
	</g>
</pattern>
<g id="Bacground">
</g>
<g id="ICONS" display="none">
</g>
<g id="Line_work">
</g>
<g id="Logo">
</g>
<g id="ICONS_in_SITU">
	<g>
		<g>
			<polygon opacity="0.4" fill="#032B44" stroke="url(#New_Pattern_Swatch_4)" stroke-miterlimit="10" points="63.4,48.1 0.5,48.1 
				0.5,0.5 52.3,0.5 52.3,0.5 63.4,11.3 			"/>
			<g>
				<path fill="#C12732" d="M13.7,32.1V25l-3.3-3.5V10.9l3.3-3.5H22l3.3,3.5H32l3.3,3.5H23.7l-3.3-3.5h-5l-1.7,1.8v7.1l3.3,3.5v8.9
					H13.7z M20.4,25l6.6-7.1h11.6l-3.3,3.5h-6.6L25.3,25H20.4z M48.6,32.1l-3.3-3.5H27l3.3-3.5h16.6l6.6,7.1H48.6z M40.3,14.4
					l-6.6-7.1h5l6.6,7.1H40.3z M40.3,21.5l3.3-3.5h5l1.7-1.8v-1.8l-6.6-7.1h5l5,5.3v5.3l-3.3,3.5H40.3z"/>
			</g>
		</g>
	</g>
	<g>
		<g>
			<path fill="#FFFFFF" d="M6.3,41.1L7,41.4c-0.1,0.4-0.3,0.7-0.5,0.9c-0.3,0.2-0.6,0.3-1,0.3c-0.5,0-0.9-0.2-1.2-0.5
				c-0.3-0.3-0.5-0.8-0.5-1.4c0-0.6,0.2-1.1,0.5-1.4c0.3-0.3,0.7-0.5,1.2-0.5c0.4,0,0.8,0.1,1.1,0.4c0.2,0.2,0.3,0.4,0.4,0.7L6.2,40
				c0-0.2-0.1-0.3-0.3-0.5c-0.1-0.1-0.3-0.2-0.5-0.2c-0.3,0-0.5,0.1-0.7,0.3c-0.2,0.2-0.3,0.5-0.3,0.9c0,0.5,0.1,0.8,0.3,1
				c0.2,0.2,0.4,0.3,0.7,0.3c0.2,0,0.4-0.1,0.5-0.2C6.1,41.6,6.2,41.4,6.3,41.1z"/>
			<path fill="#FFFFFF" d="M7.2,40.7c0-0.4,0.1-0.7,0.2-0.9c0.1-0.2,0.2-0.4,0.3-0.5C7.8,39.1,8,39,8.1,38.9
				c0.2-0.1,0.5-0.1,0.8-0.1c0.5,0,1,0.2,1.3,0.5c0.3,0.3,0.5,0.8,0.5,1.4c0,0.6-0.2,1.1-0.5,1.4c-0.3,0.3-0.8,0.5-1.3,0.5
				c-0.5,0-1-0.2-1.3-0.5C7.3,41.7,7.2,41.3,7.2,40.7z M7.9,40.6c0,0.4,0.1,0.7,0.3,0.9c0.2,0.2,0.4,0.3,0.7,0.3
				c0.3,0,0.5-0.1,0.7-0.3c0.2-0.2,0.3-0.5,0.3-1c0-0.4-0.1-0.7-0.3-0.9c-0.2-0.2-0.4-0.3-0.7-0.3c-0.3,0-0.6,0.1-0.7,0.3
				C8,39.9,7.9,40.2,7.9,40.6z"/>
			<path fill="#FFFFFF" d="M11,42.5v-3.6h0.7v3h1.8v0.6H11z"/>
			<path fill="#FFFFFF" d="M13.8,42.5v-3.6h0.7v3h1.8v0.6H13.8z"/>
			<path fill="#FFFFFF" d="M16.6,42.5v-3.7h2.7v0.6h-2v0.8h1.8v0.6h-1.8v1h2v0.6H16.6z"/>
			<path fill="#FFFFFF" d="M22.1,41.1l0.7,0.2c-0.1,0.4-0.3,0.7-0.5,0.9c-0.3,0.2-0.6,0.3-1,0.3c-0.5,0-0.9-0.2-1.2-0.5
				c-0.3-0.3-0.5-0.8-0.5-1.4c0-0.6,0.2-1.1,0.5-1.4c0.3-0.3,0.7-0.5,1.2-0.5c0.4,0,0.8,0.1,1.1,0.4c0.2,0.2,0.3,0.4,0.4,0.7
				L22.1,40c0-0.2-0.1-0.3-0.3-0.5c-0.1-0.1-0.3-0.2-0.5-0.2c-0.3,0-0.5,0.1-0.7,0.3c-0.2,0.2-0.3,0.5-0.3,0.9c0,0.5,0.1,0.8,0.2,1
				c0.2,0.2,0.4,0.3,0.7,0.3c0.2,0,0.4-0.1,0.5-0.2C21.9,41.6,22,41.4,22.1,41.1z"/>
			<path fill="#FFFFFF" d="M24,42.5v-3h-1.1v-0.6h2.9v0.6h-1.1v3H24z"/>
			<path fill="#FFFFFF" d="M25.9,42.5v-3.7h0.7v3.7H25.9z"/>
			<path fill="#FFFFFF" d="M26.9,40.7c0-0.4,0.1-0.7,0.2-0.9c0.1-0.2,0.2-0.4,0.3-0.5c0.1-0.1,0.3-0.3,0.5-0.3
				c0.2-0.1,0.5-0.1,0.8-0.1c0.5,0,1,0.2,1.3,0.5c0.3,0.3,0.5,0.8,0.5,1.4c0,0.6-0.2,1.1-0.5,1.4c-0.3,0.3-0.8,0.5-1.3,0.5
				c-0.5,0-1-0.2-1.3-0.5C27.1,41.7,26.9,41.3,26.9,40.7z M27.7,40.6c0,0.4,0.1,0.7,0.3,0.9c0.2,0.2,0.4,0.3,0.7,0.3
				s0.5-0.1,0.7-0.3c0.2-0.2,0.3-0.5,0.3-1c0-0.4-0.1-0.7-0.3-0.9c-0.2-0.2-0.4-0.3-0.7-0.3s-0.6,0.1-0.7,0.3
				C27.8,39.9,27.7,40.2,27.7,40.6z"/>
			<path fill="#FFFFFF" d="M30.8,42.5v-3.7h0.7l1.5,2.5v-2.5h0.7v3.7h-0.7l-1.5-2.4v2.4H30.8z"/>
			<path fill="#FFFFFF" d="M34,41.3l0.7-0.1c0,0.2,0.1,0.4,0.3,0.5c0.1,0.1,0.3,0.2,0.5,0.2c0.2,0,0.4-0.1,0.5-0.2
				c0.1-0.1,0.2-0.2,0.2-0.4c0-0.1,0-0.2-0.1-0.2c-0.1-0.1-0.1-0.1-0.3-0.2c-0.1,0-0.3-0.1-0.6-0.2c-0.4-0.1-0.7-0.2-0.8-0.4
				c-0.2-0.2-0.3-0.4-0.3-0.7c0-0.2,0.1-0.4,0.2-0.5c0.1-0.2,0.3-0.3,0.5-0.4c0.2-0.1,0.4-0.1,0.7-0.1c0.5,0,0.8,0.1,1,0.3
				c0.2,0.2,0.4,0.5,0.4,0.8l-0.7,0c0-0.2-0.1-0.3-0.2-0.4c-0.1-0.1-0.3-0.1-0.5-0.1c-0.2,0-0.4,0-0.5,0.1c-0.1,0.1-0.1,0.1-0.1,0.2
				c0,0.1,0,0.2,0.1,0.2c0.1,0.1,0.3,0.2,0.7,0.2c0.4,0.1,0.6,0.2,0.8,0.3c0.2,0.1,0.3,0.2,0.4,0.4c0.1,0.2,0.1,0.4,0.1,0.6
				c0,0.2-0.1,0.4-0.2,0.6c-0.1,0.2-0.3,0.3-0.5,0.4c-0.2,0.1-0.5,0.1-0.8,0.1c-0.5,0-0.8-0.1-1.1-0.3C34.2,42,34,41.7,34,41.3z"/>
			<path fill="#FFFFFF" d="M41.6,42l-0.4,0.5c-0.2-0.1-0.4-0.2-0.6-0.4c-0.1,0.1-0.3,0.2-0.5,0.3c-0.2,0.1-0.4,0.1-0.6,0.1
				c-0.5,0-0.8-0.1-1-0.4c-0.2-0.2-0.3-0.4-0.3-0.7c0-0.2,0.1-0.4,0.2-0.6c0.1-0.2,0.3-0.4,0.6-0.5c-0.1-0.1-0.2-0.3-0.3-0.4
				c-0.1-0.1-0.1-0.3-0.1-0.4c0-0.2,0.1-0.4,0.3-0.6c0.2-0.2,0.4-0.2,0.8-0.2c0.3,0,0.6,0.1,0.7,0.2c0.2,0.2,0.3,0.4,0.3,0.6
				c0,0.1,0,0.3-0.1,0.4c-0.1,0.1-0.3,0.3-0.5,0.5l0.5,0.7c0.1-0.1,0.1-0.2,0.2-0.4l0.6,0.1c-0.1,0.2-0.1,0.4-0.2,0.5
				c0,0.1-0.1,0.2-0.2,0.3c0.1,0.1,0.2,0.2,0.3,0.2C41.5,41.9,41.6,42,41.6,42z M39.4,40.8c-0.2,0.1-0.3,0.2-0.4,0.3
				c-0.1,0.1-0.1,0.2-0.1,0.4c0,0.2,0,0.3,0.1,0.4c0.1,0.1,0.2,0.1,0.4,0.1c0.1,0,0.2,0,0.3-0.1c0.1,0,0.2-0.1,0.3-0.2L39.4,40.8z
				 M39.7,40l0.2-0.1c0.1-0.1,0.2-0.2,0.2-0.3c0-0.1,0-0.2-0.1-0.2c-0.1-0.1-0.2-0.1-0.3-0.1c-0.1,0-0.2,0-0.3,0.1
				c-0.1,0.1-0.1,0.1-0.1,0.2c0,0.1,0.1,0.2,0.2,0.3L39.7,40z"/>
			<path fill="#FFFFFF" d="M42.9,42.5v-3.7h1.6c0.4,0,0.7,0,0.9,0.1c0.2,0.1,0.3,0.2,0.4,0.4c0.1,0.2,0.2,0.4,0.2,0.6
				c0,0.3-0.1,0.5-0.2,0.7c-0.2,0.2-0.4,0.3-0.7,0.3c0.2,0.1,0.3,0.2,0.4,0.3c0.1,0.1,0.2,0.3,0.4,0.6l0.4,0.7h-0.9l-0.5-0.8
				c-0.2-0.3-0.3-0.5-0.4-0.5c-0.1-0.1-0.1-0.1-0.2-0.2c-0.1,0-0.2,0-0.4,0h-0.1v1.5H42.9z M43.6,40.4h0.5c0.4,0,0.6,0,0.7,0
				c0.1,0,0.2-0.1,0.2-0.2c0.1-0.1,0.1-0.2,0.1-0.3c0-0.1,0-0.2-0.1-0.3c-0.1-0.1-0.2-0.1-0.3-0.1c-0.1,0-0.2,0-0.5,0h-0.6V40.4z"/>
			<path fill="#FFFFFF" d="M46.3,42.5v-3.7H49v0.6h-2v0.8h1.8v0.6H47v1h2v0.6H46.3z"/>
			<path fill="#FFFFFF" d="M51.7,41.1l0.7,0.2c-0.1,0.4-0.3,0.7-0.6,0.9c-0.3,0.2-0.6,0.3-1,0.3c-0.5,0-0.9-0.2-1.2-0.5
				c-0.3-0.3-0.5-0.8-0.5-1.4c0-0.6,0.2-1.1,0.5-1.4c0.3-0.3,0.7-0.5,1.2-0.5c0.4,0,0.8,0.1,1.1,0.4c0.2,0.2,0.3,0.4,0.4,0.7
				L51.7,40c0-0.2-0.1-0.3-0.3-0.5c-0.1-0.1-0.3-0.2-0.5-0.2c-0.3,0-0.5,0.1-0.7,0.3c-0.2,0.2-0.3,0.5-0.3,0.9c0,0.5,0.1,0.8,0.3,1
				c0.2,0.2,0.4,0.3,0.7,0.3c0.2,0,0.4-0.1,0.5-0.2C51.6,41.6,51.7,41.4,51.7,41.1z"/>
			<path fill="#FFFFFF" d="M52.8,42.5v-3.7h2.7v0.6h-2v0.8h1.8v0.6h-1.8v1h2v0.6H52.8z"/>
			<path fill="#FFFFFF" d="M55.9,42.5v-3.7h0.7v3.7H55.9z"/>
			<path fill="#FFFFFF" d="M57.9,42.5l-1.3-3.7h0.8l0.9,2.7l0.9-2.7H60l-1.3,3.7H57.9z"/>
			<path fill="#FFFFFF" d="M60.1,42.5v-3.7h2.7v0.6h-2v0.8h1.8v0.6h-1.8v1h2v0.6H60.1z"/>
		</g>
	</g>
</g>
</svg>
