<?xml version="1.0" encoding="utf-8"?>
<!-- Generator: Adobe Illustrator 18.0.0, SVG Export Plug-In . SVG Version: 6.00 Build 0)  -->
<!DOCTYPE svg PUBLIC "-//W3C//DTD SVG 1.1//EN" "http://www.w3.org/Graphics/SVG/1.1/DTD/svg11.dtd">
<svg version="1.1" xmlns="http://www.w3.org/2000/svg" xmlns:xlink="http://www.w3.org/1999/xlink" x="0px" y="0px"
	 viewBox="0 0 63.9 48.6" enable-background="new 0 0 63.9 48.6" xml:space="preserve">
<pattern  x="331.5" y="-373.2" width="74.3" height="71.1" patternUnits="userSpaceOnUse" id="New_Pattern_Swatch_4" viewBox="0 -71.1 74.3 71.1" overflow="visible">
	<g>
		<polygon fill="none" points="0,0 74.3,0 74.3,-71.1 0,-71.1 		"/>
		<polygon fill="#001B30" points="74.3,0 0,0 0,-71.1 74.3,-71.1 		"/>
	</g>
</pattern>
<g id="Bacground">
</g>
<g id="ICONS" display="none">
</g>
<g id="Line_work">
</g>
<g id="Logo">
</g>
<g id="ICONS_in_SITU">
	<g>
		<g>
			<polygon opacity="0.4" fill="#032B44" stroke="url(#New_Pattern_Swatch_4)" stroke-miterlimit="10" points="63.4,48.1 0.5,48.1 
				0.5,0.5 52.3,0.5 52.3,0.5 63.4,11.3 			"/>
			<g>
				<path fill="#C12732" d="M13.2,33v-7.1l-3.3-3.5v-8.9l5-5.3h10l3.3,3.5h6.6l3.3,3.5H26.4l-3.3-3.5h-6.6l-3.3,3.5v5.3l3.3,3.5V33
					H13.2z M19.8,25.9l6.6-7.1H38l-3.3,3.5h-6.6l-3.3,3.5H19.8z M36.4,25.9l3.3-3.5H43l3.3-3.5H48l1.7-1.8L48,15.3h-1.7L43,11.7
					h-3.3l-3.3-3.5h8.3l3.3,3.5h1.7l3.3,3.5v3.5l-3.3,3.5H48l-3.3,3.5H36.4z"/>
			</g>
		</g>
	</g>
	<g>
		<g>
			<path fill="#FFFFFF" d="M19.8,43.4v-3.7H21c0.4,0,0.7,0,0.9,0.1c0.2,0.1,0.4,0.2,0.5,0.4c0.1,0.2,0.2,0.4,0.2,0.7
				c0,0.2,0,0.4-0.1,0.6c-0.1,0.2-0.2,0.3-0.3,0.4c-0.1,0.1-0.3,0.1-0.4,0.2C21.6,42,21.3,42,21,42h-0.5v1.4H19.8z M20.5,40.3v1h0.4
				c0.3,0,0.5,0,0.6-0.1c0.1,0,0.2-0.1,0.2-0.2c0.1-0.1,0.1-0.2,0.1-0.3c0-0.1,0-0.2-0.1-0.3c-0.1-0.1-0.2-0.1-0.3-0.2
				c-0.1,0-0.3,0-0.5,0H20.5z"/>
			<path fill="#FFFFFF" d="M25.8,43.4H25l-0.3-0.8h-1.5l-0.3,0.8h-0.8l1.4-3.7h0.8L25.8,43.4z M24.5,41.9L24,40.6l-0.5,1.4H24.5z"/>
			<path fill="#FFFFFF" d="M26.4,43.4v-1.5l-1.3-2.1h0.9l0.9,1.5l0.8-1.5h0.9l-1.3,2.1v1.5H26.4z"/>
			<path fill="#FFFFFF" d="M28.5,43.4v-3.7h1.1l0.7,2.5l0.7-2.5h1.1v3.7h-0.7v-2.9l-0.7,2.9H30l-0.7-2.9v2.9H28.5z"/>
			<path fill="#FFFFFF" d="M32.5,43.4v-3.7h2.7v0.6h-2v0.8h1.8v0.6h-1.8v1h2v0.6H32.5z"/>
			<path fill="#FFFFFF" d="M35.6,43.4v-3.7h0.7l1.5,2.4v-2.4h0.7v3.7h-0.7L36.3,41v2.4H35.6z"/>
			<path fill="#FFFFFF" d="M39.8,43.4v-3h-1.1v-0.6h2.9v0.6h-1.1v3H39.8z"/>
			<path fill="#FFFFFF" d="M41.7,42.2l0.7-0.1c0,0.2,0.1,0.4,0.3,0.5c0.1,0.1,0.3,0.2,0.5,0.2c0.2,0,0.4,0,0.5-0.2
				c0.1-0.1,0.2-0.2,0.2-0.4c0-0.1,0-0.2-0.1-0.2c-0.1-0.1-0.1-0.1-0.3-0.2c-0.1,0-0.3-0.1-0.6-0.2c-0.4-0.1-0.7-0.2-0.8-0.4
				c-0.2-0.2-0.3-0.4-0.3-0.7c0-0.2,0.1-0.4,0.2-0.5c0.1-0.2,0.3-0.3,0.5-0.4c0.2-0.1,0.4-0.1,0.7-0.1c0.5,0,0.8,0.1,1,0.3
				c0.2,0.2,0.4,0.5,0.4,0.8l-0.7,0c0-0.2-0.1-0.3-0.2-0.4c-0.1-0.1-0.3-0.1-0.5-0.1c-0.2,0-0.4,0-0.5,0.1c-0.1,0.1-0.1,0.1-0.1,0.2
				c0,0.1,0,0.2,0.1,0.2c0.1,0.1,0.3,0.2,0.7,0.2c0.4,0.1,0.6,0.2,0.8,0.3c0.2,0.1,0.3,0.2,0.4,0.4c0.1,0.2,0.1,0.4,0.1,0.6
				c0,0.2-0.1,0.4-0.2,0.6c-0.1,0.2-0.3,0.3-0.5,0.4c-0.2,0.1-0.5,0.1-0.8,0.1c-0.5,0-0.8-0.1-1.1-0.3
				C41.9,42.9,41.7,42.6,41.7,42.2z"/>
		</g>
	</g>
</g>
</svg>
