<?xml version="1.0" encoding="utf-8"?>
<!-- Generator: Adobe Illustrator 18.0.0, SVG Export Plug-In . SVG Version: 6.00 Build 0)  -->
<!DOCTYPE svg PUBLIC "-//W3C//DTD SVG 1.1//EN" "http://www.w3.org/Graphics/SVG/1.1/DTD/svg11.dtd">
<svg version="1.1" xmlns="http://www.w3.org/2000/svg" xmlns:xlink="http://www.w3.org/1999/xlink" x="0px" y="0px"
	 viewBox="0 0 63.9 48.6" enable-background="new 0 0 63.9 48.6" xml:space="preserve">
<pattern  x="331.5" y="-373.2" width="74.3" height="71.1" patternUnits="userSpaceOnUse" id="New_Pattern_Swatch_4" viewBox="0 -71.1 74.3 71.1" overflow="visible">
	<g>
		<polygon fill="none" points="0,0 74.3,0 74.3,-71.1 0,-71.1 		"/>
		<polygon fill="#001B30" points="74.3,0 0,0 0,-71.1 74.3,-71.1 		"/>
	</g>
</pattern>
<g id="Bacground">
</g>
<g id="ICONS" display="none">
</g>
<g id="Line_work">
</g>
<g id="Logo">
</g>
<g id="ICONS_in_SITU">
	<g>
		<polygon opacity="0.4" fill="#032B44" stroke="url(#New_Pattern_Swatch_4)" stroke-miterlimit="10" points="63.4,48.1 0.5,48.1 
			0.5,0.5 52.3,0.5 52.3,0.5 63.4,11.3 		"/>
		<g>
			<g>
				<path fill="#FFFFFF" d="M21,42.7v-3.2H22c0.4,0,0.7,0,0.8,0c0.2,0,0.3,0.2,0.5,0.3c0.1,0.2,0.2,0.4,0.2,0.6c0,0.2,0,0.4-0.1,0.5
					c-0.1,0.1-0.2,0.2-0.3,0.3c-0.1,0.1-0.2,0.1-0.3,0.2c-0.2,0-0.4,0-0.7,0h-0.4v1.2H21z M21.6,40v0.9H22c0.3,0,0.4,0,0.5-0.1
					c0.1,0,0.2-0.1,0.2-0.2c0-0.1,0.1-0.2,0.1-0.3c0-0.1,0-0.2-0.1-0.3c-0.1-0.1-0.2-0.1-0.3-0.1c-0.1,0-0.2,0-0.5,0H21.6z"/>
				<path fill="#FFFFFF" d="M26.3,42.7h-0.7l-0.3-0.7H24l-0.3,0.7h-0.7l1.3-3.2H25L26.3,42.7z M25.1,41.4l-0.4-1.2l-0.4,1.2H25.1z"
					/>
				<path fill="#FFFFFF" d="M26.9,42.7v-1.4l-1.2-1.9h0.8l0.8,1.3l0.8-1.3h0.8l-1.2,1.9v1.4H26.9z"/>
				<path fill="#FFFFFF" d="M28.7,42.7v-3.2h1l0.6,2.2l0.6-2.2h1v3.2h-0.6v-2.6l-0.6,2.6H30l-0.6-2.6v2.6H28.7z"/>
				<path fill="#FFFFFF" d="M32.3,42.7v-3.2h2.4V40h-1.8v0.7h1.6v0.5h-1.6v0.9h1.8v0.5H32.3z"/>
				<path fill="#FFFFFF" d="M35,42.7v-3.2h0.6l1.3,2.2v-2.2h0.6v3.2h-0.7l-1.3-2.1v2.1H35z"/>
				<path fill="#FFFFFF" d="M38.8,42.7V40h-1v-0.5h2.6V40h-1v2.7H38.8z"/>
				<path fill="#FFFFFF" d="M40.4,41.6l0.6-0.1c0,0.2,0.1,0.4,0.2,0.5c0.1,0.1,0.3,0.2,0.5,0.2c0.2,0,0.4,0,0.5-0.1
					c0.1-0.1,0.2-0.2,0.2-0.3c0-0.1,0-0.1-0.1-0.2c0-0.1-0.1-0.1-0.2-0.1c-0.1,0-0.3-0.1-0.5-0.1c-0.4-0.1-0.6-0.2-0.7-0.3
					c-0.2-0.2-0.3-0.4-0.3-0.7c0-0.2,0-0.3,0.1-0.5c0.1-0.1,0.2-0.3,0.4-0.3c0.2-0.1,0.4-0.1,0.6-0.1c0.4,0,0.7,0.1,0.9,0.3
					c0.2,0.2,0.3,0.4,0.3,0.7l-0.7,0c0-0.2-0.1-0.3-0.2-0.4c-0.1-0.1-0.2-0.1-0.4-0.1c-0.2,0-0.3,0-0.4,0.1c-0.1,0-0.1,0.1-0.1,0.2
					c0,0.1,0,0.1,0.1,0.2c0.1,0.1,0.3,0.1,0.6,0.2c0.3,0.1,0.6,0.2,0.7,0.2c0.2,0.1,0.3,0.2,0.4,0.3c0.1,0.1,0.1,0.3,0.1,0.5
					c0,0.2-0.1,0.4-0.2,0.5c-0.1,0.2-0.2,0.3-0.4,0.4c-0.2,0.1-0.4,0.1-0.7,0.1c-0.4,0-0.7-0.1-0.9-0.3C40.5,42.2,40.4,42,40.4,41.6
					z"/>
			</g>
		</g>
		<g>
			<path fill="#C12732" d="M13.2,33v-7.1l-3.3-3.5v-8.9l5-5.3h10l3.3,3.5h6.6l3.3,3.5H26.4l-3.3-3.5h-6.6l-3.3,3.5v5.3l3.3,3.5V33
				H13.2z M19.8,25.9l6.6-7.1H38l-3.3,3.5h-6.6l-3.3,3.5H19.8z M36.4,25.9l3.3-3.5H43l3.3-3.5H48l1.7-1.8L48,15.3h-1.7L43,11.7h-3.3
				l-3.3-3.5h8.3l3.3,3.5h1.7l3.3,3.5v3.5l-3.3,3.5H48l-3.3,3.5H36.4z"/>
		</g>
	</g>
</g>
</svg>
