<?xml version="1.0" encoding="utf-8"?>
<!-- Generator: Adobe Illustrator 18.0.0, SVG Export Plug-In . SVG Version: 6.00 Build 0)  -->
<!DOCTYPE svg PUBLIC "-//W3C//DTD SVG 1.1//EN" "http://www.w3.org/Graphics/SVG/1.1/DTD/svg11.dtd">
<svg version="1.1" xmlns="http://www.w3.org/2000/svg" xmlns:xlink="http://www.w3.org/1999/xlink" x="0px" y="0px"
	 viewBox="0 0 63.9 48.6" enable-background="new 0 0 63.9 48.6" xml:space="preserve">
<pattern  x="331.5" y="-436.9" width="74.3" height="71.1" patternUnits="userSpaceOnUse" id="New_Pattern_Swatch_4" viewBox="0 -71.1 74.3 71.1" overflow="visible">
	<g>
		<polygon fill="none" points="0,0 74.3,0 74.3,-71.1 0,-71.1 		"/>
		<polygon fill="#001B30" points="74.3,0 0,0 0,-71.1 74.3,-71.1 		"/>
	</g>
</pattern>
<g id="Bacground">
</g>
<g id="ICONS" display="none">
</g>
<g id="Line_work">
</g>
<g id="Logo">
</g>
<g id="ICONS_in_SITU">
	<g>
		<g>
			<polygon opacity="0.4" fill="#032B44" stroke="url(#New_Pattern_Swatch_4)" stroke-miterlimit="10" points="63.4,48.1 0.5,48.1 
				0.5,0.5 52.3,0.5 52.3,0.5 63.4,11.3 			"/>
			<g>
				<path fill="#C12732" d="M8.8,28.6l-3.3-3.5V14.4l3.3-3.5H32l-3.3,3.5H10.4l-1.7,1.8v7.1l1.7,1.8h18.2l3.3,3.5H8.8z"/>
				<path fill="#C12732" d="M35.5,28.6l-3.3-3.5V14.4l3.3-3.5h23.2l-3.3,3.5H37.1l-1.7,1.8v7.1l1.7,1.8h18.2l3.3,3.5H35.5z"/>
			</g>
		</g>
	</g>
	<g>
		<g>
			<path fill="#FFFFFF" d="M9.8,42l0.7,0.2c-0.1,0.4-0.3,0.7-0.6,0.9c-0.3,0.2-0.6,0.3-1,0.3c-0.5,0-0.9-0.2-1.2-0.5
				c-0.3-0.3-0.5-0.8-0.5-1.4c0-0.6,0.2-1.1,0.5-1.4c0.3-0.3,0.7-0.5,1.2-0.5c0.4,0,0.8,0.1,1.1,0.4c0.2,0.2,0.3,0.4,0.4,0.7
				l-0.7,0.2c0-0.2-0.1-0.3-0.3-0.5c-0.1-0.1-0.3-0.2-0.5-0.2c-0.3,0-0.5,0.1-0.7,0.3c-0.2,0.2-0.3,0.5-0.3,0.9c0,0.5,0.1,0.8,0.3,1
				c0.2,0.2,0.4,0.3,0.7,0.3c0.2,0,0.4-0.1,0.5-0.2C9.7,42.5,9.8,42.3,9.8,42z"/>
			<path fill="#FFFFFF" d="M10.7,41.6c0-0.4,0.1-0.7,0.2-0.9c0.1-0.2,0.2-0.4,0.3-0.5c0.1-0.1,0.3-0.3,0.5-0.3
				c0.2-0.1,0.5-0.1,0.8-0.1c0.5,0,1,0.2,1.3,0.5c0.3,0.3,0.5,0.8,0.5,1.4c0,0.6-0.2,1.1-0.5,1.4c-0.3,0.3-0.8,0.5-1.3,0.5
				c-0.5,0-1-0.2-1.3-0.5C10.9,42.6,10.7,42.1,10.7,41.6z M11.5,41.5c0,0.4,0.1,0.7,0.3,0.9c0.2,0.2,0.4,0.3,0.7,0.3
				c0.3,0,0.5-0.1,0.7-0.3c0.2-0.2,0.3-0.5,0.3-1c0-0.4-0.1-0.7-0.3-0.9c-0.2-0.2-0.4-0.3-0.7-0.3c-0.3,0-0.6,0.1-0.7,0.3
				C11.6,40.8,11.5,41.1,11.5,41.5z"/>
			<path fill="#FFFFFF" d="M14.5,43.4v-3.7h1.1l0.7,2.5l0.7-2.5h1.1v3.7h-0.7v-2.9l-0.7,2.9h-0.7l-0.7-2.9v2.9H14.5z"/>
			<path fill="#FFFFFF" d="M18.5,43.4v-3.7h1.1l0.7,2.5l0.7-2.5H22v3.7h-0.7v-2.9l-0.7,2.9h-0.7l-0.7-2.9v2.9H18.5z"/>
			<path fill="#FFFFFF" d="M22.5,43.4v-3.7h2.7v0.6h-2v0.8H25v0.6h-1.8v1h2v0.6H22.5z"/>
			<path fill="#FFFFFF" d="M25.6,43.4v-3.7h1.6c0.4,0,0.7,0,0.9,0.1c0.2,0.1,0.3,0.2,0.4,0.4c0.1,0.2,0.2,0.4,0.2,0.6
				c0,0.3-0.1,0.5-0.2,0.7c-0.2,0.2-0.4,0.3-0.7,0.3c0.2,0.1,0.3,0.2,0.4,0.3c0.1,0.1,0.2,0.3,0.4,0.6l0.4,0.7H28l-0.5-0.8
				c-0.2-0.3-0.3-0.5-0.4-0.5c-0.1-0.1-0.1-0.1-0.2-0.2c-0.1,0-0.2,0-0.4,0h-0.2v1.5H25.6z M26.3,41.3h0.5c0.4,0,0.6,0,0.7,0
				c0.1,0,0.2-0.1,0.2-0.2c0.1-0.1,0.1-0.2,0.1-0.3c0-0.1,0-0.2-0.1-0.3c-0.1-0.1-0.2-0.1-0.3-0.1c-0.1,0-0.2,0-0.5,0h-0.6V41.3z"/>
			<path fill="#FFFFFF" d="M31.3,42l0.7,0.2c-0.1,0.4-0.3,0.7-0.5,0.9c-0.3,0.2-0.6,0.3-1,0.3c-0.5,0-0.9-0.2-1.2-0.5
				c-0.3-0.3-0.5-0.8-0.5-1.4c0-0.6,0.2-1.1,0.5-1.4c0.3-0.3,0.7-0.5,1.2-0.5c0.4,0,0.8,0.1,1.1,0.4c0.2,0.2,0.3,0.4,0.4,0.7
				l-0.7,0.2c0-0.2-0.1-0.3-0.3-0.5c-0.1-0.1-0.3-0.2-0.5-0.2c-0.3,0-0.5,0.1-0.7,0.3c-0.2,0.2-0.3,0.5-0.3,0.9c0,0.5,0.1,0.8,0.3,1
				c0.2,0.2,0.4,0.3,0.6,0.3c0.2,0,0.4-0.1,0.5-0.2C31.2,42.5,31.3,42.3,31.3,42z"/>
			<path fill="#FFFFFF" d="M32.3,43.4v-3.7h0.7v3.7H32.3z"/>
			<path fill="#FFFFFF" d="M36.8,43.4H36l-0.3-0.8h-1.5l-0.3,0.8h-0.8l1.4-3.7h0.8L36.8,43.4z M35.4,41.9l-0.5-1.4l-0.5,1.4H35.4z"
				/>
			<path fill="#FFFFFF" d="M36.9,43.4v-3.6h0.7v3h1.8v0.6H36.9z"/>
			<path fill="#FFFFFF" d="M43.1,42l0.7,0.2c-0.1,0.4-0.3,0.7-0.5,0.9c-0.3,0.2-0.6,0.3-1,0.3c-0.5,0-0.9-0.2-1.2-0.5
				c-0.3-0.3-0.5-0.8-0.5-1.4c0-0.6,0.2-1.1,0.5-1.4c0.3-0.3,0.7-0.5,1.2-0.5c0.4,0,0.8,0.1,1.1,0.4c0.2,0.2,0.3,0.4,0.4,0.7
				L43,40.9c0-0.2-0.1-0.3-0.3-0.5c-0.1-0.1-0.3-0.2-0.5-0.2c-0.3,0-0.5,0.1-0.7,0.3c-0.2,0.2-0.3,0.5-0.3,0.9c0,0.5,0.1,0.8,0.3,1
				c0.2,0.2,0.4,0.3,0.6,0.3c0.2,0,0.4-0.1,0.5-0.2C42.9,42.5,43,42.3,43.1,42z"/>
			<path fill="#FFFFFF" d="M47.4,43.4h-0.8l-0.3-0.8h-1.5l-0.3,0.8h-0.8l1.4-3.7H46L47.4,43.4z M46.1,41.9l-0.5-1.4l-0.5,1.4H46.1z"
				/>
			<path fill="#FFFFFF" d="M47.5,43.4v-3.7h1.6c0.4,0,0.7,0,0.9,0.1c0.2,0.1,0.3,0.2,0.4,0.4c0.1,0.2,0.2,0.4,0.2,0.6
				c0,0.3-0.1,0.5-0.2,0.7c-0.2,0.2-0.4,0.3-0.7,0.3c0.2,0.1,0.3,0.2,0.4,0.3c0.1,0.1,0.2,0.3,0.4,0.6l0.4,0.7h-0.9l-0.5-0.8
				c-0.2-0.3-0.3-0.5-0.4-0.5c-0.1-0.1-0.1-0.1-0.2-0.2c-0.1,0-0.2,0-0.4,0h-0.1v1.5H47.5z M48.2,41.3h0.5c0.4,0,0.6,0,0.7,0
				c0.1,0,0.2-0.1,0.2-0.2c0-0.1,0.1-0.2,0.1-0.3c0-0.1,0-0.2-0.1-0.3c-0.1-0.1-0.2-0.1-0.3-0.1c-0.1,0-0.2,0-0.5,0h-0.6V41.3z"/>
			<path fill="#FFFFFF" d="M50.9,39.7h1.4c0.3,0,0.5,0,0.7,0.1c0.2,0.1,0.4,0.2,0.6,0.3c0.2,0.2,0.3,0.4,0.4,0.6
				c0.1,0.2,0.1,0.5,0.1,0.9c0,0.3,0,0.6-0.1,0.8c-0.1,0.3-0.2,0.5-0.4,0.6c-0.1,0.1-0.3,0.2-0.5,0.3c-0.2,0.1-0.4,0.1-0.7,0.1h-1.4
				V39.7z M51.6,40.3v2.4h0.6c0.2,0,0.4,0,0.4,0c0.1,0,0.2-0.1,0.3-0.2c0.1-0.1,0.1-0.2,0.2-0.4c0-0.2,0.1-0.4,0.1-0.7
				c0-0.3,0-0.5-0.1-0.7c-0.1-0.2-0.1-0.3-0.2-0.4c-0.1-0.1-0.2-0.1-0.3-0.2c-0.1,0-0.3,0-0.6,0H51.6z"/>
			<path fill="#FFFFFF" d="M54.1,42.2l0.7-0.1c0,0.2,0.1,0.4,0.3,0.5c0.1,0.1,0.3,0.2,0.5,0.2c0.2,0,0.4-0.1,0.5-0.2
				c0.1-0.1,0.2-0.2,0.2-0.4c0-0.1,0-0.2-0.1-0.2C56.2,42,56.1,42,56,41.9c-0.1,0-0.3-0.1-0.6-0.2c-0.4-0.1-0.7-0.2-0.8-0.4
				c-0.2-0.2-0.3-0.4-0.3-0.7c0-0.2,0.1-0.4,0.2-0.5c0.1-0.2,0.3-0.3,0.5-0.4c0.2-0.1,0.4-0.1,0.7-0.1c0.5,0,0.8,0.1,1,0.3
				c0.2,0.2,0.4,0.5,0.4,0.8l-0.7,0c0-0.2-0.1-0.3-0.2-0.4c-0.1-0.1-0.3-0.1-0.5-0.1c-0.2,0-0.4,0-0.5,0.1c-0.1,0.1-0.1,0.1-0.1,0.2
				c0,0.1,0,0.2,0.1,0.2c0.1,0.1,0.3,0.2,0.7,0.2c0.4,0.1,0.6,0.2,0.8,0.3c0.2,0.1,0.3,0.2,0.4,0.4c0.1,0.2,0.1,0.4,0.1,0.6
				c0,0.2-0.1,0.4-0.2,0.6c-0.1,0.2-0.3,0.3-0.5,0.4c-0.2,0.1-0.5,0.1-0.8,0.1c-0.5,0-0.8-0.1-1.1-0.3
				C54.3,42.9,54.2,42.6,54.1,42.2z"/>
		</g>
	</g>
</g>
</svg>
