<?xml version="1.0" encoding="utf-8"?>
<!-- Generator: Adobe Illustrator 18.0.0, SVG Export Plug-In . SVG Version: 6.00 Build 0)  -->
<!DOCTYPE svg PUBLIC "-//W3C//DTD SVG 1.1//EN" "http://www.w3.org/Graphics/SVG/1.1/DTD/svg11.dtd">
<svg version="1.1" xmlns="http://www.w3.org/2000/svg" xmlns:xlink="http://www.w3.org/1999/xlink" x="0px" y="0px"
	 viewBox="0 0 63.9 48.6" enable-background="new 0 0 63.9 48.6" xml:space="preserve">
<pattern  x="331.5" y="-436.9" width="74.3" height="71.1" patternUnits="userSpaceOnUse" id="New_Pattern_Swatch_4" viewBox="0 -71.1 74.3 71.1" overflow="visible">
	<g>
		<polygon fill="none" points="0,0 74.3,0 74.3,-71.1 0,-71.1 		"/>
		<polygon fill="#001B30" points="74.3,0 0,0 0,-71.1 74.3,-71.1 		"/>
	</g>
</pattern>
<g id="Bacground">
</g>
<g id="ICONS" display="none">
</g>
<g id="Line_work">
</g>
<g id="Logo">
</g>
<g id="ICONS_in_SITU">
	<g>
		<polygon opacity="0.4" fill="#032B44" stroke="url(#New_Pattern_Swatch_4)" stroke-miterlimit="10" points="63.4,48.1 0.5,48.1 
			0.5,0.5 52.3,0.5 52.3,0.5 63.4,11.3 		"/>
		<g>
			<g>
				<path fill="#FFFFFF" d="M12.1,41.5l0.6,0.2c-0.1,0.4-0.3,0.6-0.5,0.8c-0.2,0.2-0.5,0.3-0.9,0.3c-0.4,0-0.8-0.1-1.1-0.4
					C10,42,9.9,41.6,9.9,41.1c0-0.5,0.1-1,0.4-1.3c0.3-0.3,0.6-0.4,1.1-0.4c0.4,0,0.7,0.1,1,0.4c0.1,0.1,0.3,0.3,0.3,0.6l-0.7,0.2
					c0-0.2-0.1-0.3-0.2-0.4c-0.1-0.1-0.3-0.1-0.4-0.1c-0.2,0-0.4,0.1-0.6,0.3c-0.2,0.2-0.2,0.5-0.2,0.8c0,0.4,0.1,0.7,0.2,0.9
					c0.1,0.2,0.3,0.3,0.6,0.3c0.2,0,0.3-0.1,0.5-0.2C12,41.9,12,41.7,12.1,41.5z"/>
				<path fill="#FFFFFF" d="M12.9,41.1c0-0.3,0-0.6,0.1-0.8c0.1-0.2,0.2-0.3,0.3-0.4c0.1-0.1,0.3-0.2,0.4-0.3
					c0.2-0.1,0.4-0.1,0.7-0.1c0.5,0,0.9,0.1,1.1,0.4c0.3,0.3,0.4,0.7,0.4,1.2c0,0.5-0.1,0.9-0.4,1.2c-0.3,0.3-0.7,0.4-1.1,0.4
					c-0.5,0-0.9-0.1-1.2-0.4C13,42,12.9,41.6,12.9,41.1z M13.6,41c0,0.4,0.1,0.6,0.3,0.8c0.2,0.2,0.4,0.3,0.6,0.3
					c0.3,0,0.5-0.1,0.6-0.3c0.2-0.2,0.3-0.5,0.3-0.8c0-0.4-0.1-0.7-0.2-0.8c-0.2-0.2-0.4-0.3-0.7-0.3c-0.3,0-0.5,0.1-0.7,0.3
					C13.6,40.4,13.6,40.7,13.6,41z"/>
				<path fill="#FFFFFF" d="M16.3,42.7v-3.2h1l0.6,2.2l0.6-2.2h1v3.2h-0.6v-2.6l-0.6,2.6h-0.6l-0.6-2.6v2.6H16.3z"/>
				<path fill="#FFFFFF" d="M19.8,42.7v-3.2h1l0.6,2.2l0.6-2.2h1v3.2h-0.6v-2.6l-0.6,2.6H21l-0.6-2.6v2.6H19.8z"/>
				<path fill="#FFFFFF" d="M23.3,42.7v-3.2h2.4V40H24v0.7h1.6v0.5H24v0.9h1.8v0.5H23.3z"/>
				<path fill="#FFFFFF" d="M26.1,42.7v-3.2h1.4c0.3,0,0.6,0,0.8,0.1c0.2,0.1,0.3,0.2,0.4,0.3c0.1,0.1,0.1,0.3,0.1,0.5
					c0,0.2-0.1,0.4-0.2,0.6c-0.1,0.2-0.4,0.3-0.6,0.3c0.1,0.1,0.3,0.2,0.4,0.3c0.1,0.1,0.2,0.3,0.4,0.5l0.4,0.6h-0.8L27.7,42
					c-0.2-0.3-0.3-0.4-0.3-0.5c-0.1-0.1-0.1-0.1-0.2-0.1c-0.1,0-0.2,0-0.3,0h-0.1v1.4H26.1z M26.7,40.8h0.5c0.3,0,0.5,0,0.6,0
					c0.1,0,0.1-0.1,0.2-0.1c0-0.1,0.1-0.1,0.1-0.2c0-0.1,0-0.2-0.1-0.3C27.9,40,27.8,40,27.7,40c-0.1,0-0.2,0-0.5,0h-0.5V40.8z"/>
				<path fill="#FFFFFF" d="M31.1,41.5l0.6,0.2c-0.1,0.4-0.3,0.6-0.5,0.8c-0.2,0.2-0.5,0.3-0.9,0.3c-0.4,0-0.8-0.1-1.1-0.4
					c-0.3-0.3-0.4-0.7-0.4-1.2c0-0.5,0.1-1,0.4-1.3c0.3-0.3,0.6-0.4,1.1-0.4c0.4,0,0.7,0.1,1,0.4c0.1,0.1,0.3,0.3,0.3,0.6l-0.7,0.2
					c0-0.2-0.1-0.3-0.2-0.4c-0.1-0.1-0.3-0.1-0.4-0.1c-0.2,0-0.4,0.1-0.6,0.3c-0.1,0.2-0.2,0.5-0.2,0.8c0,0.4,0.1,0.7,0.2,0.9
					c0.1,0.2,0.3,0.3,0.6,0.3c0.2,0,0.3-0.1,0.5-0.2C31,41.9,31.1,41.7,31.1,41.5z"/>
				<path fill="#FFFFFF" d="M32,42.7v-3.2h0.7v3.2H32z"/>
				<path fill="#FFFFFF" d="M36,42.7h-0.7L35,41.9h-1.3l-0.3,0.7h-0.7l1.3-3.2h0.7L36,42.7z M34.8,41.4l-0.4-1.2l-0.4,1.2H34.8z"/>
				<path fill="#FFFFFF" d="M36.1,42.7v-3.2h0.7v2.7h1.6v0.5H36.1z"/>
				<path fill="#FFFFFF" d="M41.6,41.5l0.6,0.2c-0.1,0.4-0.3,0.6-0.5,0.8c-0.2,0.2-0.5,0.3-0.9,0.3c-0.4,0-0.8-0.1-1.1-0.4
					c-0.3-0.3-0.4-0.7-0.4-1.2c0-0.5,0.1-1,0.4-1.3c0.3-0.3,0.6-0.4,1.1-0.4c0.4,0,0.7,0.1,1,0.4c0.1,0.1,0.3,0.3,0.3,0.6l-0.7,0.2
					c0-0.2-0.1-0.3-0.2-0.4c-0.1-0.1-0.3-0.1-0.4-0.1c-0.2,0-0.4,0.1-0.6,0.3C40.1,40.4,40,40.6,40,41c0,0.4,0.1,0.7,0.2,0.9
					c0.1,0.2,0.3,0.3,0.6,0.3c0.2,0,0.3-0.1,0.5-0.2C41.4,41.9,41.5,41.7,41.6,41.5z"/>
				<path fill="#FFFFFF" d="M45.4,42.7h-0.7l-0.3-0.7h-1.3l-0.3,0.7h-0.7l1.3-3.2h0.7L45.4,42.7z M44.2,41.4l-0.4-1.2l-0.4,1.2H44.2
					z"/>
				<path fill="#FFFFFF" d="M45.5,42.7v-3.2h1.4c0.3,0,0.6,0,0.8,0.1c0.2,0.1,0.3,0.2,0.4,0.3c0.1,0.1,0.1,0.3,0.1,0.5
					c0,0.2-0.1,0.4-0.2,0.6c-0.1,0.2-0.4,0.3-0.6,0.3c0.1,0.1,0.3,0.2,0.4,0.3c0.1,0.1,0.2,0.3,0.4,0.5l0.4,0.6h-0.8L47.1,42
					c-0.2-0.3-0.3-0.4-0.3-0.5c-0.1-0.1-0.1-0.1-0.2-0.1c-0.1,0-0.2,0-0.3,0h-0.1v1.4H45.5z M46.1,40.8h0.5c0.3,0,0.5,0,0.6,0
					c0.1,0,0.1-0.1,0.2-0.1c0-0.1,0.1-0.1,0.1-0.2c0-0.1,0-0.2-0.1-0.3C47.3,40,47.2,40,47.1,40c-0.1,0-0.2,0-0.5,0h-0.5V40.8z"/>
				<path fill="#FFFFFF" d="M48.5,39.4h1.2c0.3,0,0.5,0,0.6,0.1c0.2,0.1,0.4,0.2,0.5,0.3c0.1,0.1,0.2,0.3,0.3,0.5
					c0.1,0.2,0.1,0.5,0.1,0.8c0,0.3,0,0.5-0.1,0.7c-0.1,0.2-0.2,0.4-0.3,0.6c-0.1,0.1-0.3,0.2-0.5,0.3c-0.1,0-0.3,0.1-0.6,0.1h-1.2
					V39.4z M49.1,40v2.2h0.5c0.2,0,0.3,0,0.4,0c0.1,0,0.2-0.1,0.3-0.1c0.1-0.1,0.1-0.2,0.2-0.3c0-0.1,0.1-0.3,0.1-0.6
					c0-0.3,0-0.4-0.1-0.6c0-0.1-0.1-0.2-0.2-0.3C50.2,40.1,50.1,40,50,40c-0.1,0-0.3,0-0.5,0H49.1z"/>
				<path fill="#FFFFFF" d="M51.3,41.6l0.6-0.1c0,0.2,0.1,0.4,0.2,0.5c0.1,0.1,0.3,0.2,0.5,0.2c0.2,0,0.4,0,0.5-0.1
					c0.1-0.1,0.2-0.2,0.2-0.3c0-0.1,0-0.1-0.1-0.2c0-0.1-0.1-0.1-0.2-0.1c-0.1,0-0.3-0.1-0.5-0.1c-0.4-0.1-0.6-0.2-0.7-0.3
					c-0.2-0.2-0.3-0.4-0.3-0.7c0-0.2,0-0.3,0.1-0.5c0.1-0.1,0.2-0.3,0.4-0.3c0.2-0.1,0.4-0.1,0.6-0.1c0.4,0,0.7,0.1,0.9,0.3
					c0.2,0.2,0.3,0.4,0.3,0.7l-0.7,0c0-0.2-0.1-0.3-0.2-0.4c-0.1-0.1-0.2-0.1-0.4-0.1c-0.2,0-0.3,0-0.4,0.1c-0.1,0-0.1,0.1-0.1,0.2
					c0,0.1,0,0.1,0.1,0.2c0.1,0.1,0.3,0.1,0.6,0.2c0.3,0.1,0.6,0.2,0.7,0.2c0.2,0.1,0.3,0.2,0.4,0.3c0.1,0.1,0.1,0.3,0.1,0.5
					c0,0.2-0.1,0.4-0.2,0.5c-0.1,0.2-0.3,0.3-0.4,0.4c-0.2,0.1-0.4,0.1-0.7,0.1c-0.4,0-0.7-0.1-0.9-0.3C51.5,42.2,51.4,42,51.3,41.6
					z"/>
			</g>
		</g>
		<g>
			<path fill="#C12732" d="M8.8,28.6l-3.3-3.5V14.4l3.3-3.5H32l-3.3,3.5H10.4l-1.7,1.8v7.1l1.7,1.8h18.2l3.3,3.5H8.8z"/>
			<path fill="#C12732" d="M35.5,28.6l-3.3-3.5V14.4l3.3-3.5h23.2l-3.3,3.5H37.1l-1.7,1.8v7.1l1.7,1.8h18.2l3.3,3.5H35.5z"/>
		</g>
	</g>
</g>
</svg>
