<?xml version="1.0" encoding="utf-8"?>
<!-- Generator: Adobe Illustrator 18.0.0, SVG Export Plug-In . SVG Version: 6.00 Build 0)  -->
<!DOCTYPE svg PUBLIC "-//W3C//DTD SVG 1.1//EN" "http://www.w3.org/Graphics/SVG/1.1/DTD/svg11.dtd">
<svg version="1.1" xmlns="http://www.w3.org/2000/svg" xmlns:xlink="http://www.w3.org/1999/xlink" x="0px" y="0px"
	 viewBox="0 0 63.9 48.6" enable-background="new 0 0 63.9 48.6" xml:space="preserve">
<pattern  x="331.5" y="-500.7" width="74.3" height="71.1" patternUnits="userSpaceOnUse" id="New_Pattern_Swatch_4" viewBox="0 -71.1 74.3 71.1" overflow="visible">
	<g>
		<polygon fill="none" points="0,0 74.3,0 74.3,-71.1 0,-71.1 		"/>
		<polygon fill="#001B30" points="74.3,0 0,0 0,-71.1 74.3,-71.1 		"/>
	</g>
</pattern>
<g id="Bacground">
</g>
<g id="ICONS" display="none">
</g>
<g id="Line_work">
</g>
<g id="Logo">
</g>
<g id="ICONS_in_SITU">
	<g>
		<g>
			<polygon opacity="0.4" fill="#032B44" stroke="url(#New_Pattern_Swatch_4)" stroke-miterlimit="10" points="63.4,48.1 0.5,48.1 
				0.5,0.5 52.3,0.5 52.3,0.5 63.4,11.3 			"/>
		</g>
		<g>
			<path fill="#C12732" d="M12.5,18.8l-3.3-3.5V9.9l5,5.3h1.7l3.3,3.5H12.5z M22.5,22.3V17l-5-5.3h-1.7l-3.3-3.5h6.6l6.6,7.1v10.6
				L22.5,22.3z M12.5,33l3.3-3.5h1.7l1.7-1.8v-3.5l3.3,3.5v1.8L19.2,33H12.5z M24.2,33l3.3-3.5h1.7V11.7h-1.7l-3.3-3.5h13.3
				l-3.3,3.5h-1.7v17.7h1.7l3.3,3.5H24.2z M35.8,15.3l6.6-7.1H49l-3.3,3.5h-1.7l-5,5.3v5.3l-3.3,3.5V15.3z M42.4,33l-3.3-3.5v-1.8
				l3.3-3.5v3.5l1.7,1.8h1.7L49,33H42.4z M42.4,18.8l3.3-3.5h1.7l5-5.3v5.3L49,18.8H42.4z"/>
		</g>
	</g>
	<g>
		<g>
			<path fill="#FFFFFF" d="M25.3,43.4v-3h-1.1v-0.6h2.9v0.6H26v3H25.3z"/>
			<path fill="#FFFFFF" d="M27.3,43.4v-3.7h1.6c0.4,0,0.7,0,0.9,0.1c0.2,0.1,0.3,0.2,0.4,0.4c0.1,0.2,0.2,0.4,0.2,0.6
				c0,0.3-0.1,0.5-0.2,0.7c-0.2,0.2-0.4,0.3-0.7,0.3c0.2,0.1,0.3,0.2,0.4,0.3c0.1,0.1,0.2,0.3,0.4,0.6l0.4,0.7h-0.9l-0.5-0.8
				c-0.2-0.3-0.3-0.5-0.4-0.5c-0.1-0.1-0.1-0.1-0.2-0.2c-0.1,0-0.2,0-0.4,0H28v1.5H27.3z M28,41.2h0.5c0.4,0,0.6,0,0.7,0
				c0.1,0,0.2-0.1,0.2-0.2c0.1-0.1,0.1-0.2,0.1-0.3c0-0.1,0-0.2-0.1-0.3c-0.1-0.1-0.2-0.1-0.3-0.1c-0.1,0-0.2,0-0.5,0H28V41.2z"/>
			<path fill="#FFFFFF" d="M34,43.4h-0.8l-0.3-0.8h-1.5l-0.3,0.8h-0.8l1.4-3.7h0.8L34,43.4z M32.6,41.9l-0.5-1.4l-0.5,1.4H32.6z"/>
			<path fill="#FFFFFF" d="M34.1,39.7h1.4c0.3,0,0.5,0,0.7,0.1c0.2,0.1,0.4,0.2,0.6,0.3c0.2,0.2,0.3,0.4,0.4,0.6
				c0.1,0.2,0.1,0.5,0.1,0.9c0,0.3,0,0.6-0.1,0.8c-0.1,0.3-0.2,0.5-0.4,0.6c-0.1,0.1-0.3,0.2-0.5,0.3c-0.2,0.1-0.4,0.1-0.7,0.1h-1.4
				V39.7z M34.8,40.3v2.4h0.6c0.2,0,0.4,0,0.4,0c0.1,0,0.2-0.1,0.3-0.2c0.1-0.1,0.1-0.2,0.2-0.4c0.1-0.2,0.1-0.4,0.1-0.7
				c0-0.3,0-0.5-0.1-0.7c0-0.2-0.1-0.3-0.2-0.4c-0.1-0.1-0.2-0.1-0.3-0.2c-0.1,0-0.3,0-0.6,0H34.8z"/>
			<path fill="#FFFFFF" d="M37.5,43.4v-3.7h2.7v0.6h-2v0.8H40v0.6h-1.8v1h2v0.6H37.5z"/>
		</g>
	</g>
</g>
</svg>
