<?xml version="1.0" encoding="utf-8"?>
<!-- Generator: Adobe Illustrator 18.0.0, SVG Export Plug-In . SVG Version: 6.00 Build 0)  -->
<!DOCTYPE svg PUBLIC "-//W3C//DTD SVG 1.1//EN" "http://www.w3.org/Graphics/SVG/1.1/DTD/svg11.dtd">
<svg version="1.1" xmlns="http://www.w3.org/2000/svg" xmlns:xlink="http://www.w3.org/1999/xlink" x="0px" y="0px"
	 viewBox="0 0 63.9 48.6" enable-background="new 0 0 63.9 48.6" xml:space="preserve">
<pattern  x="331.5" y="-500.7" width="74.3" height="71.1" patternUnits="userSpaceOnUse" id="New_Pattern_Swatch_4" viewBox="0 -71.1 74.3 71.1" overflow="visible">
	<g>
		<polygon fill="none" points="0,0 74.3,0 74.3,-71.1 0,-71.1 		"/>
		<polygon fill="#001B30" points="74.3,0 0,0 0,-71.1 74.3,-71.1 		"/>
	</g>
</pattern>
<g id="Bacground">
</g>
<g id="ICONS" display="none">
</g>
<g id="Line_work">
</g>
<g id="Logo">
</g>
<g id="ICONS_in_SITU">
	<g>
		<polygon opacity="0.4" fill="#032B44" stroke="url(#New_Pattern_Swatch_4)" stroke-miterlimit="10" points="63.4,48.1 0.5,48.1 
			0.5,0.5 52.3,0.5 52.3,0.5 63.4,11.3 		"/>
		<g>
			<g>
				<path fill="#FFFFFF" d="M25.7,42.7V40h-1v-0.5h2.6V40h-1v2.7H25.7z"/>
				<path fill="#FFFFFF" d="M27.5,42.7v-3.2h1.4c0.3,0,0.6,0,0.8,0.1c0.2,0.1,0.3,0.2,0.4,0.3c0.1,0.1,0.1,0.3,0.1,0.5
					c0,0.2-0.1,0.4-0.2,0.6c-0.1,0.2-0.4,0.3-0.6,0.3c0.1,0.1,0.3,0.2,0.4,0.3c0.1,0.1,0.2,0.3,0.4,0.5l0.4,0.6h-0.8L29.2,42
					c-0.2-0.3-0.3-0.4-0.3-0.5c-0.1-0.1-0.1-0.1-0.2-0.1c-0.1,0-0.2,0-0.3,0h-0.1v1.4H27.5z M28.2,40.8h0.5c0.3,0,0.5,0,0.6,0
					c0.1,0,0.1-0.1,0.2-0.1c0-0.1,0.1-0.1,0.1-0.2c0-0.1,0-0.2-0.1-0.3C29.3,40,29.3,40,29.1,40c-0.1,0-0.2,0-0.5,0h-0.5V40.8z"/>
				<path fill="#FFFFFF" d="M33.4,42.7h-0.7l-0.3-0.7h-1.3l-0.3,0.7h-0.7l1.3-3.2h0.7L33.4,42.7z M32.2,41.4l-0.4-1.2l-0.4,1.2H32.2
					z"/>
				<path fill="#FFFFFF" d="M33.5,39.4h1.2c0.3,0,0.5,0,0.6,0.1c0.2,0.1,0.4,0.2,0.5,0.3c0.1,0.1,0.2,0.3,0.3,0.5
					c0.1,0.2,0.1,0.5,0.1,0.8c0,0.3,0,0.5-0.1,0.7c-0.1,0.2-0.2,0.4-0.3,0.6c-0.1,0.1-0.3,0.2-0.5,0.3c-0.1,0-0.3,0.1-0.6,0.1h-1.2
					V39.4z M34.2,40v2.2h0.5c0.2,0,0.3,0,0.4,0c0.1,0,0.2-0.1,0.3-0.1c0.1-0.1,0.1-0.2,0.2-0.3c0-0.1,0.1-0.3,0.1-0.6
					c0-0.3,0-0.4-0.1-0.6c0-0.1-0.1-0.2-0.2-0.3C35.2,40.1,35.1,40,35,40c-0.1,0-0.3,0-0.5,0H34.2z"/>
				<path fill="#FFFFFF" d="M36.5,42.7v-3.2h2.4V40h-1.8v0.7h1.6v0.5h-1.6v0.9H39v0.5H36.5z"/>
			</g>
		</g>
		<g>
			<path fill="#C12732" d="M12.5,18.8l-3.3-3.5V9.9l5,5.3h1.7l3.3,3.5H12.5z M22.5,22.3V17l-5-5.3h-1.7l-3.3-3.5h6.6l6.6,7.1v10.6
				L22.5,22.3z M12.5,33l3.3-3.5h1.7l1.7-1.8v-3.5l3.3,3.5v1.8L19.2,33H12.5z M24.2,33l3.3-3.5h1.7V11.7h-1.7l-3.3-3.5h13.3
				l-3.3,3.5h-1.7v17.7h1.7l3.3,3.5H24.2z M35.8,15.3l6.6-7.1H49l-3.3,3.5h-1.7l-5,5.3v5.3l-3.3,3.5V15.3z M42.4,33l-3.3-3.5v-1.8
				l3.3-3.5v3.5l1.7,1.8h1.7L49,33H42.4z M42.4,18.8l3.3-3.5h1.7l5-5.3v5.3L49,18.8H42.4z"/>
		</g>
	</g>
</g>
</svg>
