<?xml version="1.0" encoding="utf-8"?>
<!-- Generator: Adobe Illustrator 18.0.0, SVG Export Plug-In . SVG Version: 6.00 Build 0)  -->
<!DOCTYPE svg PUBLIC "-//W3C//DTD SVG 1.1//EN" "http://www.w3.org/Graphics/SVG/1.1/DTD/svg11.dtd">
<svg version="1.1" xmlns="http://www.w3.org/2000/svg" xmlns:xlink="http://www.w3.org/1999/xlink" x="0px" y="0px"
	 viewBox="0 0 63.9 48.6" enable-background="new 0 0 63.9 48.6" xml:space="preserve">
<pattern  x="331.5" y="-564.5" width="74.3" height="71.1" patternUnits="userSpaceOnUse" id="New_Pattern_Swatch_4" viewBox="0 -71.1 74.3 71.1" overflow="visible">
	<g>
		<polygon fill="none" points="0,0 74.3,0 74.3,-71.1 0,-71.1 		"/>
		<polygon fill="#001B30" points="74.3,0 0,0 0,-71.1 74.3,-71.1 		"/>
	</g>
</pattern>
<g id="Bacground">
</g>
<g id="ICONS" display="none">
</g>
<g id="Line_work">
</g>
<g id="Logo">
</g>
<g id="ICONS_in_SITU">
	<g>
		<polygon opacity="0.4" fill="#032B44" stroke="url(#New_Pattern_Swatch_4)" stroke-miterlimit="10" points="63.4,48.1 0.5,48.1 
			0.5,0.5 52.3,0.5 52.3,0.5 63.4,11.3 		"/>
		<g>
			<g>
				<path fill="#FFFFFF" d="M12.8,42.7v-3.2h1l0.6,2.2l0.6-2.2h1v3.2h-0.6v-2.6l-0.6,2.6h-0.6l-0.6-2.6v2.6H12.8z"/>
				<path fill="#FFFFFF" d="M19.3,42.7h-0.7l-0.3-0.7H17l-0.3,0.7H16l1.3-3.2H18L19.3,42.7z M18.1,41.4l-0.4-1.2l-0.4,1.2H18.1z"/>
				<path fill="#FFFFFF" d="M19.4,42.7v-3.2H20v3.2H19.4z"/>
				<path fill="#FFFFFF" d="M20.4,42.7v-3.2H21l1.3,2.2v-2.2h0.6v3.2h-0.7L21,40.5v2.1H20.4z"/>
				<path fill="#FFFFFF" d="M24.4,39.4h1.2c0.3,0,0.5,0,0.6,0.1c0.2,0.1,0.4,0.2,0.5,0.3c0.1,0.1,0.2,0.3,0.3,0.5
					c0.1,0.2,0.1,0.5,0.1,0.8c0,0.3,0,0.5-0.1,0.7c-0.1,0.2-0.2,0.4-0.3,0.6c-0.1,0.1-0.3,0.2-0.5,0.3c-0.1,0-0.3,0.1-0.6,0.1h-1.2
					V39.4z M25,40v2.2h0.5c0.2,0,0.3,0,0.4,0c0.1,0,0.2-0.1,0.3-0.1c0.1-0.1,0.1-0.2,0.2-0.3c0-0.1,0.1-0.3,0.1-0.6
					c0-0.3,0-0.4-0.1-0.6c0-0.1-0.1-0.2-0.2-0.3C26.1,40.1,26,40,25.8,40c-0.1,0-0.3,0-0.5,0H25z"/>
				<path fill="#FFFFFF" d="M30.3,42.7h-0.7l-0.3-0.7H28l-0.3,0.7H27l1.3-3.2H29L30.3,42.7z M29.1,41.4l-0.4-1.2l-0.4,1.2H29.1z"/>
				<path fill="#FFFFFF" d="M30.2,41.6l0.6-0.1c0,0.2,0.1,0.4,0.2,0.5c0.1,0.1,0.3,0.2,0.5,0.2c0.2,0,0.4,0,0.5-0.1
					c0.1-0.1,0.2-0.2,0.2-0.3c0-0.1,0-0.1-0.1-0.2c0-0.1-0.1-0.1-0.2-0.1c-0.1,0-0.3-0.1-0.5-0.1c-0.4-0.1-0.6-0.2-0.7-0.3
					c-0.2-0.2-0.3-0.4-0.3-0.7c0-0.2,0-0.3,0.1-0.5c0.1-0.1,0.2-0.3,0.4-0.3c0.2-0.1,0.4-0.1,0.6-0.1c0.4,0,0.7,0.1,0.9,0.3
					c0.2,0.2,0.3,0.4,0.3,0.7l-0.7,0c0-0.2-0.1-0.3-0.2-0.4c-0.1-0.1-0.2-0.1-0.4-0.1c-0.2,0-0.3,0-0.4,0.1c-0.1,0-0.1,0.1-0.1,0.2
					c0,0.1,0,0.1,0.1,0.2c0.1,0.1,0.3,0.1,0.6,0.2c0.3,0.1,0.6,0.2,0.7,0.2c0.2,0.1,0.3,0.2,0.4,0.3c0.1,0.1,0.1,0.3,0.1,0.5
					c0,0.2-0.1,0.4-0.2,0.5c-0.1,0.2-0.2,0.3-0.4,0.4c-0.2,0.1-0.4,0.1-0.7,0.1c-0.4,0-0.7-0.1-0.9-0.3C30.4,42.2,30.2,42,30.2,41.6
					z"/>
				<path fill="#FFFFFF" d="M33.1,42.7v-3.2h0.7v1.3h1.3v-1.3h0.7v3.2h-0.7v-1.4h-1.3v1.4H33.1z"/>
				<path fill="#FFFFFF" d="M36.1,39.4h1.3c0.3,0,0.4,0,0.6,0c0.1,0,0.2,0.1,0.3,0.1c0.1,0.1,0.2,0.2,0.2,0.3
					c0.1,0.1,0.1,0.2,0.1,0.4c0,0.2,0,0.3-0.1,0.4c-0.1,0.1-0.2,0.2-0.3,0.3c0.2,0.1,0.3,0.2,0.5,0.3c0.1,0.1,0.2,0.3,0.2,0.5
					c0,0.1,0,0.3-0.1,0.4c-0.1,0.1-0.2,0.3-0.3,0.3c-0.1,0.1-0.3,0.1-0.4,0.2c-0.1,0-0.4,0-0.8,0h-1.1V39.4z M36.8,40v0.8h0.4
					c0.3,0,0.4,0,0.5,0c0.1,0,0.2-0.1,0.3-0.1c0.1-0.1,0.1-0.1,0.1-0.3c0-0.1,0-0.2-0.1-0.2C37.9,40,37.8,40,37.7,40
					c-0.1,0-0.3,0-0.6,0H36.8z M36.8,41.2v0.9h0.6c0.2,0,0.4,0,0.4,0c0.1,0,0.2-0.1,0.2-0.1c0.1-0.1,0.1-0.2,0.1-0.3
					c0-0.1,0-0.2-0.1-0.2c0-0.1-0.1-0.1-0.2-0.1c-0.1,0-0.3,0-0.6,0H36.8z"/>
				<path fill="#FFFFFF" d="M39,41.1c0-0.3,0-0.6,0.1-0.8c0.1-0.2,0.2-0.3,0.3-0.4c0.1-0.1,0.3-0.2,0.4-0.3c0.2-0.1,0.4-0.1,0.7-0.1
					c0.5,0,0.9,0.1,1.1,0.4c0.3,0.3,0.4,0.7,0.4,1.2c0,0.5-0.1,0.9-0.4,1.2c-0.3,0.3-0.7,0.4-1.1,0.4c-0.5,0-0.9-0.1-1.2-0.4
					C39.1,42,39,41.6,39,41.1z M39.7,41c0,0.4,0.1,0.6,0.3,0.8c0.2,0.2,0.4,0.3,0.6,0.3c0.3,0,0.5-0.1,0.6-0.3
					c0.2-0.2,0.3-0.5,0.3-0.8c0-0.4-0.1-0.7-0.2-0.8c-0.2-0.2-0.4-0.3-0.7-0.3s-0.5,0.1-0.7,0.3C39.8,40.4,39.7,40.7,39.7,41z"/>
				<path fill="#FFFFFF" d="M45.3,42.7h-0.7l-0.3-0.7H43l-0.3,0.7h-0.7l1.3-3.2H44L45.3,42.7z M44.1,41.4l-0.4-1.2l-0.4,1.2H44.1z"
					/>
				<path fill="#FFFFFF" d="M45.4,42.7v-3.2h1.4c0.3,0,0.6,0,0.8,0.1c0.2,0.1,0.3,0.2,0.4,0.3c0.1,0.1,0.1,0.3,0.1,0.5
					c0,0.2-0.1,0.4-0.2,0.6c-0.1,0.2-0.4,0.3-0.6,0.3c0.1,0.1,0.3,0.2,0.4,0.3c0.1,0.1,0.2,0.3,0.4,0.5l0.4,0.6h-0.8L47.1,42
					c-0.2-0.3-0.3-0.4-0.3-0.5c-0.1-0.1-0.1-0.1-0.2-0.1c-0.1,0-0.2,0-0.3,0h-0.1v1.4H45.4z M46.1,40.8h0.5c0.3,0,0.5,0,0.6,0
					c0.1,0,0.1-0.1,0.2-0.1c0-0.1,0.1-0.1,0.1-0.2c0-0.1,0-0.2-0.1-0.3C47.2,40,47.2,40,47.1,40c-0.1,0-0.2,0-0.5,0h-0.5V40.8z"/>
				<path fill="#FFFFFF" d="M48.4,39.4h1.2c0.3,0,0.5,0,0.6,0.1c0.2,0.1,0.4,0.2,0.5,0.3c0.1,0.1,0.2,0.3,0.3,0.5
					c0.1,0.2,0.1,0.5,0.1,0.8c0,0.3,0,0.5-0.1,0.7c-0.1,0.2-0.2,0.4-0.3,0.6c-0.1,0.1-0.3,0.2-0.5,0.3c-0.1,0-0.3,0.1-0.6,0.1h-1.2
					V39.4z M49.1,40v2.2h0.5c0.2,0,0.3,0,0.4,0c0.1,0,0.2-0.1,0.3-0.1c0.1-0.1,0.1-0.2,0.2-0.3c0-0.1,0.1-0.3,0.1-0.6
					c0-0.3,0-0.4-0.1-0.6c0-0.1-0.1-0.2-0.2-0.3C50.1,40.1,50,40,49.9,40c-0.1,0-0.3,0-0.5,0H49.1z"/>
			</g>
		</g>
		<g>
			<path fill="#C12732" d="M11.2,32.1l-1.7-1.8V9.1l1.7-1.8h5l10,10.6h-5l-6.6-7.1h-1.7v17.7h1.7l6.6-7.1h5l-10,10.6H11.2z
				 M31.1,14.4l-3.3-3.5h-3.3l-3.3-3.5h8.3l3.3,3.5H36l3.3,3.5H31.1z M21.1,32.1l3.3-3.5h3.3l3.3-3.5h8.3L36,28.6h-3.3l-3.3,3.5
				H21.1z M37.7,32.1l3.3-3.5h3.3l5-5.3v-7.1l-5-5.3H41l-3.3-3.5H46l6.6,7.1V25L46,32.1H37.7z"/>
		</g>
	</g>
</g>
</svg>
