<?xml version="1.0" encoding="utf-8"?>
<!-- Generator: Adobe Illustrator 18.0.0, SVG Export Plug-In . SVG Version: 6.00 Build 0)  -->
<!DOCTYPE svg PUBLIC "-//W3C//DTD SVG 1.1//EN" "http://www.w3.org/Graphics/SVG/1.1/DTD/svg11.dtd">
<svg version="1.1" xmlns="http://www.w3.org/2000/svg" xmlns:xlink="http://www.w3.org/1999/xlink" x="0px" y="0px"
	 viewBox="0 0 63.9 48.6" enable-background="new 0 0 63.9 48.6" xml:space="preserve">
<pattern  x="331.5" y="-564.5" width="74.3" height="71.1" patternUnits="userSpaceOnUse" id="New_Pattern_Swatch_4" viewBox="0 -71.1 74.3 71.1" overflow="visible">
	<g>
		<polygon fill="none" points="0,0 74.3,0 74.3,-71.1 0,-71.1 		"/>
		<polygon fill="#001B30" points="74.3,0 0,0 0,-71.1 74.3,-71.1 		"/>
	</g>
</pattern>
<g id="Bacground">
</g>
<g id="ICONS" display="none">
</g>
<g id="Line_work">
</g>
<g id="Logo">
</g>
<g id="ICONS_in_SITU">
	<g>
		<g>
			<polygon opacity="0.4" fill="#032B44" stroke="url(#New_Pattern_Swatch_4)" stroke-miterlimit="10" points="63.4,48.1 0.5,48.1 
				0.5,0.5 52.3,0.5 52.3,0.5 63.4,11.3 			"/>
			<g>
				<path fill="#C12732" d="M11.2,32.1l-1.7-1.8V9.1l1.7-1.8h5l10,10.6h-5l-6.6-7.1h-1.7v17.7h1.7l6.6-7.1h5l-10,10.6H11.2z
					 M31.1,14.4l-3.3-3.5h-3.3l-3.3-3.5h8.3l3.3,3.5H36l3.3,3.5H31.1z M21.1,32.1l3.3-3.5h3.3l3.3-3.5h8.3L36,28.6h-3.3l-3.3,3.5
					H21.1z M37.7,32.1l3.3-3.5h3.3l5-5.3v-7.1l-5-5.3H41l-3.3-3.5H46l6.6,7.1V25L46,32.1H37.7z"/>
			</g>
		</g>
	</g>
	<g>
		<g>
			<path fill="#FFFFFF" d="M10.6,43.4v-3.7h1.1l0.7,2.5l0.7-2.5h1.1v3.7h-0.7v-2.9l-0.7,2.9H12l-0.7-2.9v2.9H10.6z"/>
			<path fill="#FFFFFF" d="M17.9,43.4h-0.8l-0.3-0.8h-1.5L15,43.4h-0.8l1.4-3.7h0.8L17.9,43.4z M16.5,41.9L16,40.5l-0.5,1.4H16.5z"
				/>
			<path fill="#FFFFFF" d="M17.9,43.4v-3.7h0.7v3.7H17.9z"/>
			<path fill="#FFFFFF" d="M19.1,43.4v-3.7h0.7l1.5,2.5v-2.5H22v3.7h-0.7L19.8,41v2.4H19.1z"/>
			<path fill="#FFFFFF" d="M23.6,39.7h1.4c0.3,0,0.5,0,0.7,0.1c0.2,0.1,0.4,0.2,0.6,0.3c0.2,0.2,0.3,0.4,0.4,0.6
				c0.1,0.2,0.1,0.5,0.1,0.9c0,0.3,0,0.6-0.1,0.8c-0.1,0.3-0.2,0.5-0.4,0.6c-0.1,0.1-0.3,0.2-0.5,0.3c-0.2,0.1-0.4,0.1-0.7,0.1h-1.4
				V39.7z M24.3,40.3v2.4h0.6c0.2,0,0.4,0,0.4,0c0.1,0,0.2-0.1,0.3-0.2c0.1-0.1,0.1-0.2,0.2-0.4c0-0.2,0.1-0.4,0.1-0.7
				c0-0.3,0-0.5-0.1-0.7c0-0.2-0.1-0.3-0.2-0.4c-0.1-0.1-0.2-0.1-0.3-0.2c-0.1,0-0.3,0-0.6,0H24.3z"/>
			<path fill="#FFFFFF" d="M30.3,43.4h-0.8l-0.3-0.8h-1.5l-0.3,0.8h-0.8l1.4-3.7h0.8L30.3,43.4z M28.9,41.9l-0.5-1.4l-0.5,1.4H28.9z
				"/>
			<path fill="#FFFFFF" d="M30.2,42.2l0.7-0.1c0,0.2,0.1,0.4,0.3,0.5c0.1,0.1,0.3,0.2,0.5,0.2c0.2,0,0.4-0.1,0.5-0.2
				c0.1-0.1,0.2-0.2,0.2-0.4c0-0.1,0-0.2-0.1-0.2c-0.1-0.1-0.1-0.1-0.3-0.2c-0.1,0-0.3-0.1-0.6-0.2c-0.4-0.1-0.7-0.2-0.8-0.4
				c-0.2-0.2-0.3-0.4-0.3-0.7c0-0.2,0.1-0.4,0.2-0.5c0.1-0.2,0.3-0.3,0.5-0.4c0.2-0.1,0.4-0.1,0.7-0.1c0.5,0,0.8,0.1,1,0.3
				c0.2,0.2,0.4,0.5,0.4,0.8l-0.7,0c0-0.2-0.1-0.3-0.2-0.4c-0.1-0.1-0.3-0.1-0.5-0.1c-0.2,0-0.4,0-0.5,0.1c-0.1,0.1-0.1,0.1-0.1,0.2
				c0,0.1,0,0.2,0.1,0.2c0.1,0.1,0.3,0.2,0.7,0.2c0.4,0.1,0.6,0.2,0.8,0.3c0.2,0.1,0.3,0.2,0.4,0.4c0.1,0.2,0.1,0.4,0.1,0.6
				c0,0.2-0.1,0.4-0.2,0.6c-0.1,0.2-0.3,0.3-0.5,0.4c-0.2,0.1-0.5,0.1-0.8,0.1c-0.5,0-0.8-0.1-1.1-0.3
				C30.4,42.9,30.2,42.6,30.2,42.2z"/>
			<path fill="#FFFFFF" d="M33.5,43.4v-3.7h0.7v1.4h1.5v-1.4h0.7v3.7h-0.7v-1.6h-1.5v1.6H33.5z"/>
			<path fill="#FFFFFF" d="M36.9,39.7h1.5c0.3,0,0.5,0,0.7,0c0.1,0,0.3,0.1,0.4,0.2c0.1,0.1,0.2,0.2,0.3,0.3
				c0.1,0.1,0.1,0.3,0.1,0.4c0,0.2,0,0.3-0.1,0.5c-0.1,0.1-0.2,0.3-0.4,0.3c0.2,0.1,0.4,0.2,0.5,0.3c0.1,0.2,0.2,0.3,0.2,0.6
				c0,0.2,0,0.3-0.1,0.5c-0.1,0.2-0.2,0.3-0.3,0.4c-0.1,0.1-0.3,0.2-0.5,0.2c-0.1,0-0.4,0-0.9,0h-1.2V39.7z M37.6,40.3v0.8h0.5
				c0.3,0,0.5,0,0.5,0c0.1,0,0.2-0.1,0.3-0.1c0.1-0.1,0.1-0.2,0.1-0.3c0-0.1,0-0.2-0.1-0.3c-0.1-0.1-0.2-0.1-0.3-0.1
				c-0.1,0-0.3,0-0.6,0H37.6z M37.6,41.8v1h0.7c0.3,0,0.4,0,0.5,0c0.1,0,0.2-0.1,0.3-0.1c0.1-0.1,0.1-0.2,0.1-0.3
				c0-0.1,0-0.2-0.1-0.3c-0.1-0.1-0.1-0.1-0.2-0.2c-0.1,0-0.3-0.1-0.7-0.1H37.6z"/>
			<path fill="#FFFFFF" d="M40.1,41.5c0-0.4,0.1-0.7,0.2-0.9c0.1-0.2,0.2-0.4,0.3-0.5c0.1-0.1,0.3-0.3,0.5-0.3
				c0.2-0.1,0.5-0.1,0.8-0.1c0.5,0,1,0.2,1.3,0.5c0.3,0.3,0.5,0.8,0.5,1.4c0,0.6-0.2,1.1-0.5,1.4c-0.3,0.3-0.8,0.5-1.3,0.5
				c-0.5,0-1-0.2-1.3-0.5C40.3,42.6,40.1,42.1,40.1,41.5z M40.9,41.5c0,0.4,0.1,0.7,0.3,0.9c0.2,0.2,0.4,0.3,0.7,0.3
				c0.3,0,0.5-0.1,0.7-0.3c0.2-0.2,0.3-0.5,0.3-1c0-0.4-0.1-0.7-0.3-0.9c-0.2-0.2-0.4-0.3-0.7-0.3c-0.3,0-0.6,0.1-0.7,0.3
				C41,40.8,40.9,41.1,40.9,41.5z"/>
			<path fill="#FFFFFF" d="M47.3,43.4h-0.8l-0.3-0.8h-1.5l-0.3,0.8h-0.8l1.4-3.7h0.8L47.3,43.4z M45.9,41.9l-0.5-1.4l-0.5,1.4H45.9z
				"/>
			<path fill="#FFFFFF" d="M47.4,43.4v-3.7h1.6c0.4,0,0.7,0,0.9,0.1c0.2,0.1,0.3,0.2,0.4,0.4c0.1,0.2,0.2,0.4,0.2,0.6
				c0,0.3-0.1,0.5-0.2,0.7c-0.2,0.2-0.4,0.3-0.7,0.3c0.2,0.1,0.3,0.2,0.4,0.3c0.1,0.1,0.2,0.3,0.4,0.6l0.4,0.7h-0.9l-0.5-0.8
				c-0.2-0.3-0.3-0.5-0.4-0.5c-0.1-0.1-0.1-0.1-0.2-0.2c-0.1,0-0.2,0-0.4,0h-0.1v1.5H47.4z M48.1,41.2h0.5c0.4,0,0.6,0,0.7,0
				c0.1,0,0.2-0.1,0.2-0.2c0-0.1,0.1-0.2,0.1-0.3c0-0.1,0-0.2-0.1-0.3c-0.1-0.1-0.2-0.1-0.3-0.1c-0.1,0-0.2,0-0.5,0h-0.6V41.2z"/>
			<path fill="#FFFFFF" d="M50.7,39.7h1.4c0.3,0,0.5,0,0.7,0.1c0.2,0.1,0.4,0.2,0.6,0.3c0.2,0.2,0.3,0.4,0.4,0.6
				c0.1,0.2,0.1,0.5,0.1,0.9c0,0.3,0,0.6-0.1,0.8c-0.1,0.3-0.2,0.5-0.4,0.6c-0.1,0.1-0.3,0.2-0.5,0.3c-0.2,0.1-0.4,0.1-0.7,0.1h-1.4
				V39.7z M51.5,40.3v2.4H52c0.2,0,0.4,0,0.4,0c0.1,0,0.2-0.1,0.3-0.2c0.1-0.1,0.1-0.2,0.2-0.4c0.1-0.2,0.1-0.4,0.1-0.7
				c0-0.3,0-0.5-0.1-0.7c0-0.2-0.1-0.3-0.2-0.4c-0.1-0.1-0.2-0.1-0.3-0.2c-0.1,0-0.3,0-0.6,0H51.5z"/>
		</g>
	</g>
</g>
</svg>
